<?xml version="1.0" encoding="us-ascii" standalone="no"?><svg xmlns="http://www.w3.org/2000/svg" xmlns:xlink="http://www.w3.org/1999/xlink" contentStyleType="text/css" height="1601px" preserveAspectRatio="none" style="width:1184px;height:1601px;background:#FFFFFF;" version="1.1" viewBox="0 0 1184 1601" width="1184px" zoomAndPan="magnify"><defs/><g><rect fill="#ADD8E6" height="1589.75" style="stroke:#181818;stroke-width:0.5;" width="140" x="151.5" y="6"/><text fill="#000000" font-family="sans-serif" font-size="13" font-weight="bold" lengthAdjust="spacing" textLength="134" x="154.5" y="18.5684">API Gateway: NGINX</text><rect fill="#FAFAD2" height="1589.75" style="stroke:#181818;stroke-width:0.5;" width="156" x="327.5" y="6"/><text fill="#000000" font-family="sans-serif" font-size="13" font-weight="bold" lengthAdjust="spacing" textLength="150" x="330.5" y="18.5684">System: Flask (Python)</text><rect fill="#D3D3D3" height="1589.75" style="stroke:#181818;stroke-width:0.5;" width="106" x="583.5" y="6"/><text fill="#000000" font-family="sans-serif" font-size="13" font-weight="bold" lengthAdjust="spacing" textLength="82" x="595.5" y="18.5684">Rate Limiter</text><rect fill="#90EE90" height="1589.75" style="stroke:#181818;stroke-width:0.5;" width="132" x="691.5" y="6"/><text fill="#000000" font-family="sans-serif" font-size="13" font-weight="bold" lengthAdjust="spacing" textLength="126" x="694.5" y="18.5684">Data Layer: MySQL</text><rect fill="#FFFFE0" height="1589.75" style="stroke:#181818;stroke-width:0.5;" width="131" x="825.5" y="6"/><text fill="#000000" font-family="sans-serif" font-size="13" font-weight="bold" lengthAdjust="spacing" textLength="125" x="828.5" y="18.5684">SMS Service: Twilio</text><rect fill="#E0FFFF" height="1589.75" style="stroke:#181818;stroke-width:0.5;" width="209" x="967.5" y="6"/><text fill="#000000" font-family="sans-serif" font-size="13" font-weight="bold" lengthAdjust="spacing" textLength="203" x="970.5" y="18.5684">Logging Service: ElasticSearch</text><rect fill="none" height="326.0156" style="stroke:#000000;stroke-width:1.5;" width="1144.5" x="10" y="200.4199"/><rect fill="none" height="178.8184" style="stroke:#000000;stroke-width:1.5;" width="1124.5" x="20" y="340.6172"/><rect fill="none" height="355.3262" style="stroke:#000000;stroke-width:1.5;" width="1144.5" x="10" y="642.3672"/><rect fill="none" height="149.5078" style="stroke:#000000;stroke-width:1.5;" width="1124.5" x="20" y="841.1855"/><rect fill="none" height="283.7051" style="stroke:#000000;stroke-width:1.5;" width="1144.5" x="10" y="1113.625"/><rect fill="none" height="149.5078" style="stroke:#000000;stroke-width:1.5;" width="1124.5" x="20" y="1240.8223"/><line style="stroke:#181818;stroke-width:0.5;stroke-dasharray:5.0,5.0;" x1="48" x2="48" y1="81.4883" y2="1516.2617"/><line style="stroke:#181818;stroke-width:0.5;stroke-dasharray:5.0,5.0;" x1="221.5" x2="221.5" y1="81.4883" y2="1516.2617"/><line style="stroke:#181818;stroke-width:0.5;stroke-dasharray:5.0,5.0;" x1="405.5" x2="405.5" y1="81.4883" y2="1516.2617"/><line style="stroke:#181818;stroke-width:0.5;stroke-dasharray:5.0,5.0;" x1="636.5" x2="636.5" y1="81.4883" y2="1516.2617"/><line style="stroke:#181818;stroke-width:0.5;stroke-dasharray:5.0,5.0;" x1="757" x2="757" y1="81.4883" y2="1516.2617"/><line style="stroke:#181818;stroke-width:0.5;stroke-dasharray:5.0,5.0;" x1="890.5" x2="890.5" y1="81.4883" y2="1516.2617"/><line style="stroke:#181818;stroke-width:0.5;stroke-dasharray:5.0,5.0;" x1="1071.5" x2="1071.5" y1="81.4883" y2="1516.2617"/><text fill="#000000" font-family="sans-serif" font-size="14" lengthAdjust="spacing" textLength="31" x="30" y="78.5352">User</text><ellipse cx="48.5" cy="13.5" fill="#E2E2F0" rx="8" ry="8" style="stroke:#181818;stroke-width:0.5;"/><path d="M48.5,21.5 L48.5,48.5 M35.5,29.5 L61.5,29.5 M48.5,48.5 L35.5,63.5 M48.5,48.5 L61.5,63.5 " fill="none" style="stroke:#181818;stroke-width:0.5;"/><text fill="#000000" font-family="sans-serif" font-size="14" lengthAdjust="spacing" textLength="31" x="30" y="1528.7969">User</text><ellipse cx="48.5" cy="1540.25" fill="#E2E2F0" rx="8" ry="8" style="stroke:#181818;stroke-width:0.5;"/><path d="M48.5,1548.25 L48.5,1575.25 M35.5,1556.25 L61.5,1556.25 M48.5,1575.25 L35.5,1590.25 M48.5,1575.25 L61.5,1590.25 " fill="none" style="stroke:#181818;stroke-width:0.5;"/><rect fill="#E2E2F0" height="30.4883" rx="2.5" ry="2.5" style="stroke:#181818;stroke-width:0.5;" width="100" x="171.5" y="50"/><text fill="#000000" font-family="sans-serif" font-size="14" lengthAdjust="spacing" textLength="86" x="178.5" y="70.5352">API_Gateway</text><rect fill="#E2E2F0" height="30.4883" rx="2.5" ry="2.5" style="stroke:#181818;stroke-width:0.5;" width="100" x="171.5" y="1515.2617"/><text fill="#000000" font-family="sans-serif" font-size="14" lengthAdjust="spacing" textLength="86" x="178.5" y="1535.7969">API_Gateway</text><rect fill="#E2E2F0" height="30.4883" rx="2.5" ry="2.5" style="stroke:#181818;stroke-width:0.5;" width="62" x="374.5" y="50"/><text fill="#000000" font-family="sans-serif" font-size="14" lengthAdjust="spacing" textLength="48" x="381.5" y="70.5352">System</text><rect fill="#E2E2F0" height="30.4883" rx="2.5" ry="2.5" style="stroke:#181818;stroke-width:0.5;" width="62" x="374.5" y="1515.2617"/><text fill="#000000" font-family="sans-serif" font-size="14" lengthAdjust="spacing" textLength="48" x="381.5" y="1535.7969">System</text><rect fill="#E2E2F0" height="30.4883" rx="2.5" ry="2.5" style="stroke:#181818;stroke-width:0.5;" width="98" x="587.5" y="50"/><text fill="#000000" font-family="sans-serif" font-size="14" lengthAdjust="spacing" textLength="84" x="594.5" y="70.5352">Rate_Limiter</text><rect fill="#E2E2F0" height="30.4883" rx="2.5" ry="2.5" style="stroke:#181818;stroke-width:0.5;" width="98" x="587.5" y="1515.2617"/><text fill="#000000" font-family="sans-serif" font-size="14" lengthAdjust="spacing" textLength="84" x="594.5" y="1535.7969">Rate_Limiter</text><rect fill="#E2E2F0" height="30.4883" rx="2.5" ry="2.5" style="stroke:#181818;stroke-width:0.5;" width="77" x="719" y="50"/><text fill="#000000" font-family="sans-serif" font-size="14" lengthAdjust="spacing" textLength="63" x="726" y="70.5352">Database</text><rect fill="#E2E2F0" height="30.4883" rx="2.5" ry="2.5" style="stroke:#181818;stroke-width:0.5;" width="77" x="719" y="1515.2617"/><text fill="#000000" font-family="sans-serif" font-size="14" lengthAdjust="spacing" textLength="63" x="726" y="1535.7969">Database</text><rect fill="#E2E2F0" height="30.4883" rx="2.5" ry="2.5" style="stroke:#181818;stroke-width:0.5;" width="97" x="842.5" y="50"/><text fill="#000000" font-family="sans-serif" font-size="14" lengthAdjust="spacing" textLength="83" x="849.5" y="70.5352">SMS_Service</text><rect fill="#E2E2F0" height="30.4883" rx="2.5" ry="2.5" style="stroke:#181818;stroke-width:0.5;" width="97" x="842.5" y="1515.2617"/><text fill="#000000" font-family="sans-serif" font-size="14" lengthAdjust="spacing" textLength="83" x="849.5" y="1535.7969">SMS_Service</text><rect fill="#E2E2F0" height="30.4883" rx="2.5" ry="2.5" style="stroke:#181818;stroke-width:0.5;" width="125" x="1009.5" y="50"/><text fill="#000000" font-family="sans-serif" font-size="14" lengthAdjust="spacing" textLength="111" x="1016.5" y="70.5352">Logging_Service</text><rect fill="#E2E2F0" height="30.4883" rx="2.5" ry="2.5" style="stroke:#181818;stroke-width:0.5;" width="125" x="1009.5" y="1515.2617"/><text fill="#000000" font-family="sans-serif" font-size="14" lengthAdjust="spacing" textLength="111" x="1016.5" y="1535.7969">Logging_Service</text><rect fill="#EEEEEE" height="3" style="stroke:#EEEEEE;stroke-width:1.0;" width="1177.5" x="0" y="112.1436"/><line style="stroke:#000000;stroke-width:1.0;" x1="0" x2="1177.5" y1="112.1436" y2="112.1436"/><line style="stroke:#000000;stroke-width:1.0;" x1="0" x2="1177.5" y1="115.1436" y2="115.1436"/><rect fill="#EEEEEE" height="23.3105" style="stroke:#000000;stroke-width:2.0;" width="200" x="488.75" y="101.4883"/><text fill="#000000" font-family="sans-serif" font-size="13" font-weight="bold" lengthAdjust="spacing" textLength="182" x="494.75" y="118.0566">Phone Number Submission</text><polygon fill="#181818" points="209.5,152.1094,219.5,156.1094,209.5,160.1094,213.5,156.1094" style="stroke:#181818;stroke-width:1.0;"/><line style="stroke:#181818;stroke-width:1.0;" x1="48.5" x2="215.5" y1="156.1094" y2="156.1094"/><text fill="#000000" font-family="sans-serif" font-size="13" lengthAdjust="spacing" textLength="133" x="55.5" y="151.3672">POST /phone/submit</text><polygon fill="#181818" points="624.5,181.4199,634.5,185.4199,624.5,189.4199,628.5,185.4199" style="stroke:#181818;stroke-width:1.0;"/><line style="stroke:#181818;stroke-width:1.0;" x1="221.5" x2="630.5" y1="185.4199" y2="185.4199"/><text fill="#000000" font-family="sans-serif" font-size="13" lengthAdjust="spacing" textLength="100" x="228.5" y="180.6777">Check rate limit</text><path d="M10,200.4199 L72,200.4199 L72,207.7305 L62,217.7305 L10,217.7305 L10,200.4199 " fill="#EEEEEE" style="stroke:#000000;stroke-width:1.5;"/><rect fill="none" height="326.0156" style="stroke:#000000;stroke-width:1.5;" width="1144.5" x="10" y="200.4199"/><text fill="#000000" font-family="sans-serif" font-size="13" font-weight="bold" lengthAdjust="spacing" textLength="17" x="25" y="213.9883">alt</text><a href="Rate" target="_top" title="Rate" xlink:actuate="onRequest" xlink:href="Rate" xlink:show="new" xlink:title="Rate" xlink:type="simple"><text fill="#0000FF" font-family="sans-serif" font-size="11" font-weight="bold" lengthAdjust="spacing" text-decoration="underline" textLength="81" x="87" y="213.0547">limit exceeded</text></a><polygon fill="#181818" points="59.5,235.041,49.5,239.041,59.5,243.041,55.5,239.041" style="stroke:#181818;stroke-width:1.0;"/><line style="stroke:#181818;stroke-width:1.0;" x1="53.5" x2="635.5" y1="239.041" y2="239.041"/><text fill="#000000" font-family="sans-serif" font-size="13" lengthAdjust="spacing" textLength="150" x="65.5" y="234.2988">429 Too Many Requests</text><line style="stroke:#000000;stroke-width:1.0;stroke-dasharray:2.0,2.0;" x1="10" x2="1154.5" y1="248.041" y2="248.041"/><a href="Within" target="_top" title="Within" xlink:actuate="onRequest" xlink:href="Within" xlink:show="new" xlink:title="Within" xlink:type="simple"><text fill="#0000FF" font-family="sans-serif" font-size="11" font-weight="bold" lengthAdjust="spacing" text-decoration="underline" textLength="52" x="15" y="258.6758">rate limit</text></a><polygon fill="#181818" points="393.5,279.3066,403.5,283.3066,393.5,287.3066,397.5,283.3066" style="stroke:#181818;stroke-width:1.0;"/><line style="stroke:#181818;stroke-width:1.0;" x1="221.5" x2="399.5" y1="283.3066" y2="283.3066"/><text fill="#000000" font-family="sans-serif" font-size="13" lengthAdjust="spacing" textLength="101" x="228.5" y="278.5645">Forward request</text><line style="stroke:#181818;stroke-width:1.0;" x1="405.5" x2="447.5" y1="312.6172" y2="312.6172"/><line style="stroke:#181818;stroke-width:1.0;" x1="447.5" x2="447.5" y1="312.6172" y2="325.6172"/><line style="stroke:#181818;stroke-width:1.0;" x1="406.5" x2="447.5" y1="325.6172" y2="325.6172"/><polygon fill="#181818" points="416.5,321.6172,406.5,325.6172,416.5,329.6172,412.5,325.6172" style="stroke:#181818;stroke-width:1.0;"/><text fill="#000000" font-family="sans-serif" font-size="13" lengthAdjust="spacing" textLength="145" x="412.5" y="307.875">Validate phone number</text><path d="M20,340.6172 L82,340.6172 L82,347.9277 L72,357.9277 L20,357.9277 L20,340.6172 " fill="#EEEEEE" style="stroke:#000000;stroke-width:1.5;"/><rect fill="none" height="178.8184" style="stroke:#000000;stroke-width:1.5;" width="1124.5" x="20" y="340.6172"/><text fill="#000000" font-family="sans-serif" font-size="13" font-weight="bold" lengthAdjust="spacing" textLength="17" x="35" y="354.1855">alt</text><a href="Invalid" target="_top" title="Invalid" xlink:actuate="onRequest" xlink:href="Invalid" xlink:show="new" xlink:title="Invalid" xlink:type="simple"><text fill="#0000FF" font-family="sans-serif" font-size="11" font-weight="bold" lengthAdjust="spacing" text-decoration="underline" textLength="81" x="97" y="353.252">phone number</text></a><polygon fill="#181818" points="1060,375.2383,1070,379.2383,1060,383.2383,1064,379.2383" style="stroke:#181818;stroke-width:1.0;"/><line style="stroke:#181818;stroke-width:1.0;" x1="405.5" x2="1066" y1="379.2383" y2="379.2383"/><text fill="#000000" font-family="sans-serif" font-size="13" lengthAdjust="spacing" textLength="164" x="412.5" y="374.4961">Log invalid phone number</text><polygon fill="#181818" points="59.5,404.5488,49.5,408.5488,59.5,412.5488,55.5,408.5488" style="stroke:#181818;stroke-width:1.0;"/><line style="stroke:#181818;stroke-width:1.0;" x1="53.5" x2="404.5" y1="408.5488" y2="408.5488"/><text fill="#000000" font-family="sans-serif" font-size="13" lengthAdjust="spacing" textLength="165" x="65.5" y="403.8066">400 Invalid phone number</text><line style="stroke:#000000;stroke-width:1.0;stroke-dasharray:2.0,2.0;" x1="20" x2="1144.5" y1="417.5488" y2="417.5488"/><a href="Valid" target="_top" title="Valid" xlink:actuate="onRequest" xlink:href="Valid" xlink:show="new" xlink:title="Valid" xlink:type="simple"><text fill="#0000FF" font-family="sans-serif" font-size="11" font-weight="bold" lengthAdjust="spacing" text-decoration="underline" textLength="81" x="25" y="428.1836">phone number</text></a><polygon fill="#181818" points="1060,448.8145,1070,452.8145,1060,456.8145,1064,452.8145" style="stroke:#181818;stroke-width:1.0;"/><line style="stroke:#181818;stroke-width:1.0;" x1="405.5" x2="1066" y1="452.8145" y2="452.8145"/><text fill="#000000" font-family="sans-serif" font-size="13" lengthAdjust="spacing" textLength="171" x="412.5" y="448.0723">Log successful submission</text><polygon fill="#181818" points="745.5,478.125,755.5,482.125,745.5,486.125,749.5,482.125" style="stroke:#181818;stroke-width:1.0;"/><line style="stroke:#181818;stroke-width:1.0;" x1="405.5" x2="751.5" y1="482.125" y2="482.125"/><text fill="#000000" font-family="sans-serif" font-size="13" lengthAdjust="spacing" textLength="127" x="412.5" y="477.3828">Store phone number</text><polygon fill="#181818" points="59.5,507.4355,49.5,511.4355,59.5,515.4355,55.5,511.4355" style="stroke:#181818;stroke-width:1.0;"/><line style="stroke:#181818;stroke-width:1.0;" x1="53.5" x2="404.5" y1="511.4355" y2="511.4355"/><text fill="#000000" font-family="sans-serif" font-size="13" lengthAdjust="spacing" textLength="186" x="65.5" y="506.6934">200 Phone number submitted</text><rect fill="#EEEEEE" height="3" style="stroke:#EEEEEE;stroke-width:1.0;" width="1177.5" x="0" y="554.0908"/><line style="stroke:#000000;stroke-width:1.0;" x1="0" x2="1177.5" y1="554.0908" y2="554.0908"/><line style="stroke:#000000;stroke-width:1.0;" x1="0" x2="1177.5" y1="557.0908" y2="557.0908"/><rect fill="#EEEEEE" height="23.3105" style="stroke:#000000;stroke-width:2.0;" width="225" x="476.25" y="543.4355"/><text fill="#000000" font-family="sans-serif" font-size="13" font-weight="bold" lengthAdjust="spacing" textLength="207" x="482.25" y="560.0039">Confirmation Code Submission</text><polygon fill="#181818" points="209.5,594.0566,219.5,598.0566,209.5,602.0566,213.5,598.0566" style="stroke:#181818;stroke-width:1.0;"/><line style="stroke:#181818;stroke-width:1.0;" x1="48.5" x2="215.5" y1="598.0566" y2="598.0566"/><text fill="#000000" font-family="sans-serif" font-size="13" lengthAdjust="spacing" textLength="110" x="55.5" y="593.3145">POST /code/send</text><polygon fill="#181818" points="624.5,623.3672,634.5,627.3672,624.5,631.3672,628.5,627.3672" style="stroke:#181818;stroke-width:1.0;"/><line style="stroke:#181818;stroke-width:1.0;" x1="221.5" x2="630.5" y1="627.3672" y2="627.3672"/><text fill="#000000" font-family="sans-serif" font-size="13" lengthAdjust="spacing" textLength="100" x="228.5" y="622.625">Check rate limit</text><path d="M10,642.3672 L72,642.3672 L72,649.6777 L62,659.6777 L10,659.6777 L10,642.3672 " fill="#EEEEEE" style="stroke:#000000;stroke-width:1.5;"/><rect fill="none" height="355.3262" style="stroke:#000000;stroke-width:1.5;" width="1144.5" x="10" y="642.3672"/><text fill="#000000" font-family="sans-serif" font-size="13" font-weight="bold" lengthAdjust="spacing" textLength="17" x="25" y="655.9355">alt</text><a href="Rate" target="_top" title="Rate" xlink:actuate="onRequest" xlink:href="Rate" xlink:show="new" xlink:title="Rate" xlink:type="simple"><text fill="#0000FF" font-family="sans-serif" font-size="11" font-weight="bold" lengthAdjust="spacing" text-decoration="underline" textLength="81" x="87" y="655.002">limit exceeded</text></a><polygon fill="#181818" points="59.5,676.9883,49.5,680.9883,59.5,684.9883,55.5,680.9883" style="stroke:#181818;stroke-width:1.0;"/><line style="stroke:#181818;stroke-width:1.0;" x1="53.5" x2="635.5" y1="680.9883" y2="680.9883"/><text fill="#000000" font-family="sans-serif" font-size="13" lengthAdjust="spacing" textLength="150" x="65.5" y="676.2461">429 Too Many Requests</text><line style="stroke:#000000;stroke-width:1.0;stroke-dasharray:2.0,2.0;" x1="10" x2="1154.5" y1="689.9883" y2="689.9883"/><a href="Within" target="_top" title="Within" xlink:actuate="onRequest" xlink:href="Within" xlink:show="new" xlink:title="Within" xlink:type="simple"><text fill="#0000FF" font-family="sans-serif" font-size="11" font-weight="bold" lengthAdjust="spacing" text-decoration="underline" textLength="52" x="15" y="700.623">rate limit</text></a><polygon fill="#181818" points="393.5,721.2539,403.5,725.2539,393.5,729.2539,397.5,725.2539" style="stroke:#181818;stroke-width:1.0;"/><line style="stroke:#181818;stroke-width:1.0;" x1="221.5" x2="399.5" y1="725.2539" y2="725.2539"/><text fill="#000000" font-family="sans-serif" font-size="13" lengthAdjust="spacing" textLength="101" x="228.5" y="720.5117">Forward request</text><line style="stroke:#181818;stroke-width:1.0;" x1="405.5" x2="447.5" y1="754.5645" y2="754.5645"/><line style="stroke:#181818;stroke-width:1.0;" x1="447.5" x2="447.5" y1="754.5645" y2="767.5645"/><line style="stroke:#181818;stroke-width:1.0;" x1="406.5" x2="447.5" y1="767.5645" y2="767.5645"/><polygon fill="#181818" points="416.5,763.5645,406.5,767.5645,416.5,771.5645,412.5,767.5645" style="stroke:#181818;stroke-width:1.0;"/><text fill="#000000" font-family="sans-serif" font-size="13" lengthAdjust="spacing" textLength="174" x="412.5" y="749.8223">Generate confirmation code</text><polygon fill="#181818" points="745.5,792.875,755.5,796.875,745.5,800.875,749.5,796.875" style="stroke:#181818;stroke-width:1.0;"/><line style="stroke:#181818;stroke-width:1.0;" x1="405.5" x2="751.5" y1="796.875" y2="796.875"/><text fill="#000000" font-family="sans-serif" font-size="13" lengthAdjust="spacing" textLength="140" x="412.5" y="792.1328">Store code with expiry</text><polygon fill="#181818" points="879,822.1855,889,826.1855,879,830.1855,883,826.1855" style="stroke:#181818;stroke-width:1.0;"/><line style="stroke:#181818;stroke-width:1.0;" x1="405.5" x2="885" y1="826.1855" y2="826.1855"/><text fill="#000000" font-family="sans-serif" font-size="13" lengthAdjust="spacing" textLength="59" x="412.5" y="821.4434">Send SMS</text><path d="M20,841.1855 L82,841.1855 L82,848.4961 L72,858.4961 L20,858.4961 L20,841.1855 " fill="#EEEEEE" style="stroke:#000000;stroke-width:1.5;"/><rect fill="none" height="149.5078" style="stroke:#000000;stroke-width:1.5;" width="1124.5" x="20" y="841.1855"/><text fill="#000000" font-family="sans-serif" font-size="13" font-weight="bold" lengthAdjust="spacing" textLength="17" x="35" y="854.7539">alt</text><a href="SMS" target="_top" title="SMS" xlink:actuate="onRequest" xlink:href="SMS" xlink:show="new" xlink:title="SMS" xlink:type="simple"><text fill="#0000FF" font-family="sans-serif" font-size="11" font-weight="bold" lengthAdjust="spacing" text-decoration="underline" textLength="81" x="97" y="853.8203">service failure</text></a><polygon fill="#181818" points="1060,875.8066,1070,879.8066,1060,883.8066,1064,879.8066" style="stroke:#181818;stroke-width:1.0;"/><line style="stroke:#181818;stroke-width:1.0;" x1="891" x2="1066" y1="879.8066" y2="879.8066"/><text fill="#000000" font-family="sans-serif" font-size="13" lengthAdjust="spacing" textLength="96" x="898" y="875.0645">Log SMS failure</text><polygon fill="#181818" points="879,905.1172,889,909.1172,879,913.1172,883,909.1172" style="stroke:#181818;stroke-width:1.0;"/><line style="stroke:#181818;stroke-width:1.0;" x1="405.5" x2="885" y1="909.1172" y2="909.1172"/><text fill="#000000" font-family="sans-serif" font-size="13" lengthAdjust="spacing" textLength="155" x="412.5" y="904.375">Retry sending SMS (loop)</text><line style="stroke:#000000;stroke-width:1.0;stroke-dasharray:2.0,2.0;" x1="20" x2="1144.5" y1="918.1172" y2="918.1172"/><a href="SMS" target="_top" title="SMS" xlink:actuate="onRequest" xlink:href="SMS" xlink:show="new" xlink:title="SMS" xlink:type="simple"><text fill="#0000FF" font-family="sans-serif" font-size="11" font-weight="bold" lengthAdjust="spacing" text-decoration="underline" textLength="96" x="25" y="928.752">sent successfully</text></a><polygon fill="#181818" points="1060,949.3828,1070,953.3828,1060,957.3828,1064,953.3828" style="stroke:#181818;stroke-width:1.0;"/><line style="stroke:#181818;stroke-width:1.0;" x1="891" x2="1066" y1="953.3828" y2="953.3828"/><text fill="#000000" font-family="sans-serif" font-size="13" lengthAdjust="spacing" textLength="106" x="898" y="948.6406">Log SMS success</text><polygon fill="#181818" points="59.5,978.6934,49.5,982.6934,59.5,986.6934,55.5,982.6934" style="stroke:#181818;stroke-width:1.0;"/><line style="stroke:#181818;stroke-width:1.0;" x1="53.5" x2="404.5" y1="982.6934" y2="982.6934"/><text fill="#000000" font-family="sans-serif" font-size="13" lengthAdjust="spacing" textLength="91" x="65.5" y="977.9512">200 Code sent</text><rect fill="#EEEEEE" height="3" style="stroke:#EEEEEE;stroke-width:1.0;" width="1177.5" x="0" y="1025.3486"/><line style="stroke:#000000;stroke-width:1.0;" x1="0" x2="1177.5" y1="1025.3486" y2="1025.3486"/><line style="stroke:#000000;stroke-width:1.0;" x1="0" x2="1177.5" y1="1028.3486" y2="1028.3486"/><rect fill="#EEEEEE" height="23.3105" style="stroke:#000000;stroke-width:2.0;" width="165" x="506.25" y="1014.6934"/><text fill="#000000" font-family="sans-serif" font-size="13" font-weight="bold" lengthAdjust="spacing" textLength="147" x="512.25" y="1031.2617">Code Resend Request</text><polygon fill="#181818" points="209.5,1065.3145,219.5,1069.3145,209.5,1073.3145,213.5,1069.3145" style="stroke:#181818;stroke-width:1.0;"/><line style="stroke:#181818;stroke-width:1.0;" x1="48.5" x2="215.5" y1="1069.3145" y2="1069.3145"/><text fill="#000000" font-family="sans-serif" font-size="13" lengthAdjust="spacing" textLength="122" x="55.5" y="1064.5723">POST /code/resend</text><polygon fill="#181818" points="624.5,1094.625,634.5,1098.625,624.5,1102.625,628.5,1098.625" style="stroke:#181818;stroke-width:1.0;"/><line style="stroke:#181818;stroke-width:1.0;" x1="221.5" x2="630.5" y1="1098.625" y2="1098.625"/><text fill="#000000" font-family="sans-serif" font-size="13" lengthAdjust="spacing" textLength="100" x="228.5" y="1093.8828">Check rate limit</text><path d="M10,1113.625 L72,1113.625 L72,1120.9355 L62,1130.9355 L10,1130.9355 L10,1113.625 " fill="#EEEEEE" style="stroke:#000000;stroke-width:1.5;"/><rect fill="none" height="283.7051" style="stroke:#000000;stroke-width:1.5;" width="1144.5" x="10" y="1113.625"/><text fill="#000000" font-family="sans-serif" font-size="13" font-weight="bold" lengthAdjust="spacing" textLength="17" x="25" y="1127.1934">alt</text><a href="Rate" target="_top" title="Rate" xlink:actuate="onRequest" xlink:href="Rate" xlink:show="new" xlink:title="Rate" xlink:type="simple"><text fill="#0000FF" font-family="sans-serif" font-size="11" font-weight="bold" lengthAdjust="spacing" text-decoration="underline" textLength="81" x="87" y="1126.2598">limit exceeded</text></a><polygon fill="#181818" points="59.5,1148.2461,49.5,1152.2461,59.5,1156.2461,55.5,1152.2461" style="stroke:#181818;stroke-width:1.0;"/><line style="stroke:#181818;stroke-width:1.0;" x1="53.5" x2="635.5" y1="1152.2461" y2="1152.2461"/><text fill="#000000" font-family="sans-serif" font-size="13" lengthAdjust="spacing" textLength="150" x="65.5" y="1147.5039">429 Too Many Requests</text><line style="stroke:#000000;stroke-width:1.0;stroke-dasharray:2.0,2.0;" x1="10" x2="1154.5" y1="1161.2461" y2="1161.2461"/><a href="Within" target="_top" title="Within" xlink:actuate="onRequest" xlink:href="Within" xlink:show="new" xlink:title="Within" xlink:type="simple"><text fill="#0000FF" font-family="sans-serif" font-size="11" font-weight="bold" lengthAdjust="spacing" text-decoration="underline" textLength="52" x="15" y="1171.8809">rate limit</text></a><polygon fill="#181818" points="393.5,1192.5117,403.5,1196.5117,393.5,1200.5117,397.5,1196.5117" style="stroke:#181818;stroke-width:1.0;"/><line style="stroke:#181818;stroke-width:1.0;" x1="221.5" x2="399.5" y1="1196.5117" y2="1196.5117"/><text fill="#000000" font-family="sans-serif" font-size="13" lengthAdjust="spacing" textLength="101" x="228.5" y="1191.7695">Forward request</text><polygon fill="#181818" points="745.5,1221.8223,755.5,1225.8223,745.5,1229.8223,749.5,1225.8223" style="stroke:#181818;stroke-width:1.0;"/><line style="stroke:#181818;stroke-width:1.0;" x1="405.5" x2="751.5" y1="1225.8223" y2="1225.8223"/><text fill="#000000" font-family="sans-serif" font-size="13" lengthAdjust="spacing" textLength="162" x="412.5" y="1221.0801">Fetch code from database</text><path d="M20,1240.8223 L82,1240.8223 L82,1248.1328 L72,1258.1328 L20,1258.1328 L20,1240.8223 " fill="#EEEEEE" style="stroke:#000000;stroke-width:1.5;"/><rect fill="none" height="149.5078" style="stroke:#000000;stroke-width:1.5;" width="1124.5" x="20" y="1240.8223"/><text fill="#000000" font-family="sans-serif" font-size="13" font-weight="bold" lengthAdjust="spacing" textLength="17" x="35" y="1254.3906">alt</text><a href="Code" target="_top" title="Code" xlink:actuate="onRequest" xlink:href="Code" xlink:show="new" xlink:title="Code" xlink:type="simple"><text fill="#0000FF" font-family="sans-serif" font-size="11" font-weight="bold" lengthAdjust="spacing" text-decoration="underline" textLength="100" x="97" y="1253.457">invalid or expired</text></a><polygon fill="#181818" points="1060,1275.4434,1070,1279.4434,1060,1283.4434,1064,1279.4434" style="stroke:#181818;stroke-width:1.0;"/><line style="stroke:#181818;stroke-width:1.0;" x1="405.5" x2="1066" y1="1279.4434" y2="1279.4434"/><text fill="#000000" font-family="sans-serif" font-size="13" lengthAdjust="spacing" textLength="137" x="412.5" y="1274.7012">Log failed verification</text><polygon fill="#181818" points="59.5,1304.7539,49.5,1308.7539,59.5,1312.7539,55.5,1308.7539" style="stroke:#181818;stroke-width:1.0;"/><line style="stroke:#181818;stroke-width:1.0;" x1="53.5" x2="404.5" y1="1308.7539" y2="1308.7539"/><text fill="#000000" font-family="sans-serif" font-size="13" lengthAdjust="spacing" textLength="172" x="65.5" y="1304.0117">400 Invalid or expired code</text><line style="stroke:#000000;stroke-width:1.0;stroke-dasharray:2.0,2.0;" x1="20" x2="1144.5" y1="1317.7539" y2="1317.7539"/><a href="Code" target="_top" title="Code" xlink:actuate="onRequest" xlink:href="Code" xlink:show="new" xlink:title="Code" xlink:type="simple"><text fill="#0000FF" font-family="sans-serif" font-size="11" font-weight="bold" lengthAdjust="spacing" text-decoration="underline" textLength="28" x="25" y="1328.3887">valid</text></a><polygon fill="#181818" points="1060,1349.0195,1070,1353.0195,1060,1357.0195,1064,1353.0195" style="stroke:#181818;stroke-width:1.0;"/><line style="stroke:#181818;stroke-width:1.0;" x1="405.5" x2="1066" y1="1353.0195" y2="1353.0195"/><text fill="#000000" font-family="sans-serif" font-size="13" lengthAdjust="spacing" textLength="169" x="412.5" y="1348.2773">Log successful verification</text><polygon fill="#181818" points="59.5,1378.3301,49.5,1382.3301,59.5,1386.3301,55.5,1382.3301" style="stroke:#181818;stroke-width:1.0;"/><line style="stroke:#181818;stroke-width:1.0;" x1="53.5" x2="404.5" y1="1382.3301" y2="1382.3301"/><text fill="#000000" font-family="sans-serif" font-size="13" lengthAdjust="spacing" textLength="171" x="65.5" y="1377.5879">200 Verification successful</text><rect fill="#EEEEEE" height="3" style="stroke:#EEEEEE;stroke-width:1.0;" width="1177.5" x="0" y="1424.9854"/><line style="stroke:#000000;stroke-width:1.0;" x1="0" x2="1177.5" y1="1424.9854" y2="1424.9854"/><line style="stroke:#000000;stroke-width:1.0;" x1="0" x2="1177.5" y1="1427.9854" y2="1427.9854"/><rect fill="#EEEEEE" height="23.3105" style="stroke:#000000;stroke-width:2.0;" width="125" x="526.25" y="1414.3301"/><text fill="#000000" font-family="sans-serif" font-size="13" font-weight="bold" lengthAdjust="spacing" textLength="107" x="532.25" y="1430.8984">Periodic Backup</text><polygon fill="#181818" points="745.5,1464.9512,755.5,1468.9512,745.5,1472.9512,749.5,1468.9512" style="stroke:#181818;stroke-width:1.0;"/><line style="stroke:#181818;stroke-width:1.0;" x1="405.5" x2="751.5" y1="1468.9512" y2="1468.9512"/><text fill="#000000" font-family="sans-serif" font-size="13" lengthAdjust="spacing" textLength="154" x="412.5" y="1464.209">Perform periodic backup</text><polygon fill="#181818" points="1060,1494.2617,1070,1498.2617,1060,1502.2617,1064,1498.2617" style="stroke:#181818;stroke-width:1.0;"/><line style="stroke:#181818;stroke-width:1.0;" x1="757.5" x2="1066" y1="1498.2617" y2="1498.2617"/><text fill="#000000" font-family="sans-serif" font-size="13" lengthAdjust="spacing" textLength="148" x="764.5" y="1493.5195">Log backup completion</text><!--SRC=[tLRHJjim57tFLron5tYOG6WlYzH9enjLfPPr3MERq8HSvxQrSEpCTYZv-zbEqZWXe8v7-jRud7FFlJwvBQ56AlYXKKNHIZx2qUV552R4u8wKCLnDfbU_Zk3TZ6ssve8N6EL46KPPJeG12xsheH6A52o_5abARJ2BuP8JVG_7Yz9ifJXfX2QIfoYMClsDdCjTHxDYzkIMjWZCMCOCghs8mhB3TA2x6jJZVo66m8oKg6AObydtMI22egFYe2kYiT_GF844rGEZ6CFrZd4c6usX9kR9NOtkwSpaPiF4fjNwQYTaUGaIHRUDvBWaNLSrxQdeQ0GBErg4go9ReOAaM6LCQoO5Z4QHkrPu_ocyg1WMtv9hECqTwrGxk8c2SmSF9nd3U8lq7fIx0kwUHOGRk5tklmC-KiGKqpyHs4z8TcBEGmmVpZ_2jPGm9wA49VujK1iT8TS8jp-PsJ8HLAY4UgRsaP9gHrGAgXBnqEeiHDqGpb8dwFi4uQVZiTxzL3muGEUqgjgLwyqzTW-03P07k7NZPsSmVOvGzN_pUYkwe1IrNXSSzFxc1yXDgcD8xEkEXra_jzON0R0gOGocbNcHkXpw38wbM3EL4UE2DvOf7Xv4Qj6dsWczlHHEKA0NfE5yNCVHo_VZ8B2pZcnRELDbNx_TBvRXbe5zqgRRBIjT7SEQC5ue31BLSf-DbHEeYGFfw5HVeb4bkFlpQyqIZxcK-KcGxygEtM9jMddv_uPgzejnzT5pjGOIQa-Mw8msDtz8C1M-iMYsIRj4GxTLqjPAPf0sltpx7FcPDTlE_almMMpQE60xkGXX2W-es9fH7_w3zcHRgdrNgabuHnxqcXLva14Nevi060Wy2TN2ucJAA5mGUb_aBb13axQmjLGPv0ryvU5HWtZMUuMpGyXoZjxrFm00]--></g></svg>