<?xml version="1.0" encoding="us-ascii" standalone="no"?><svg xmlns="http://www.w3.org/2000/svg" xmlns:xlink="http://www.w3.org/1999/xlink" contentStyleType="text/css" height="1416px" preserveAspectRatio="none" style="width:963px;height:1416px;background:#FFFFFF;" version="1.1" viewBox="0 0 963 1416" width="963px" zoomAndPan="magnify"><defs/><g><rect fill="#FFFFFF" height="95.9316" style="stroke:#181818;stroke-width:1.0;" width="10" x="382.5" y="112.7988"/><rect fill="#FFFFFF" height="82.9316" style="stroke:#181818;stroke-width:1.0;" width="10" x="382.5" y="1052.959"/><rect fill="#FFFFFF" height="29.3105" style="stroke:#181818;stroke-width:1.0;" width="10" x="669.5" y="494.125"/><rect fill="none" height="368.3262" style="stroke:#000000;stroke-width:1.5;" width="946.5" x="10" y="170.1094"/><rect fill="none" height="263.4395" style="stroke:#000000;stroke-width:1.5;" width="926.5" x="20" y="267.9961"/><rect fill="none" height="371.2813" style="stroke:#000000;stroke-width:1.5;" width="936.5" x="10" y="653.3672"/><rect fill="none" height="104.8867" style="stroke:#000000;stroke-width:1.5;" width="408.5" x="20" y="809.875"/><rect fill="none" height="221.1289" style="stroke:#000000;stroke-width:1.5;" width="926.5" x="20" y="1097.2695"/><line style="stroke:#181818;stroke-width:0.5;stroke-dasharray:5.0,5.0;" x1="48" x2="48" y1="81.4883" y2="1335.3984"/><line style="stroke:#181818;stroke-width:0.5;stroke-dasharray:5.0,5.0;" x1="387.5" x2="387.5" y1="81.4883" y2="1335.3984"/><line style="stroke:#181818;stroke-width:0.5;stroke-dasharray:5.0,5.0;" x1="674.5" x2="674.5" y1="81.4883" y2="1335.3984"/><line style="stroke:#181818;stroke-width:0.5;stroke-dasharray:5.0,5.0;" x1="769.5" x2="769.5" y1="81.4883" y2="1335.3984"/><line style="stroke:#181818;stroke-width:0.5;stroke-dasharray:5.0,5.0;" x1="877.5" x2="877.5" y1="81.4883" y2="1335.3984"/><text fill="#000000" font-family="sans-serif" font-size="14" lengthAdjust="spacing" textLength="31" x="30" y="78.5352">User</text><ellipse cx="48.5" cy="13.5" fill="#E2E2F0" rx="8" ry="8" style="stroke:#181818;stroke-width:0.5;"/><path d="M48.5,21.5 L48.5,48.5 M35.5,29.5 L61.5,29.5 M48.5,48.5 L35.5,63.5 M48.5,48.5 L61.5,63.5 " fill="none" style="stroke:#181818;stroke-width:0.5;"/><text fill="#000000" font-family="sans-serif" font-size="14" lengthAdjust="spacing" textLength="31" x="30" y="1347.9336">User</text><ellipse cx="48.5" cy="1359.3867" fill="#E2E2F0" rx="8" ry="8" style="stroke:#181818;stroke-width:0.5;"/><path d="M48.5,1367.3867 L48.5,1394.3867 M35.5,1375.3867 L61.5,1375.3867 M48.5,1394.3867 L35.5,1409.3867 M48.5,1394.3867 L61.5,1409.3867 " fill="none" style="stroke:#181818;stroke-width:0.5;"/><rect fill="#E2E2F0" height="30.4883" rx="2.5" ry="2.5" style="stroke:#181818;stroke-width:0.5;" width="62" x="356.5" y="50"/><text fill="#000000" font-family="sans-serif" font-size="14" lengthAdjust="spacing" textLength="48" x="363.5" y="70.5352">System</text><rect fill="#E2E2F0" height="30.4883" rx="2.5" ry="2.5" style="stroke:#181818;stroke-width:0.5;" width="62" x="356.5" y="1334.3984"/><text fill="#000000" font-family="sans-serif" font-size="14" lengthAdjust="spacing" textLength="48" x="363.5" y="1354.9336">System</text><rect fill="#E2E2F0" height="30.4883" rx="2.5" ry="2.5" style="stroke:#181818;stroke-width:0.5;" width="94" x="627.5" y="50"/><text fill="#000000" font-family="sans-serif" font-size="14" lengthAdjust="spacing" textLength="80" x="634.5" y="70.5352">SMS Service</text><rect fill="#E2E2F0" height="30.4883" rx="2.5" ry="2.5" style="stroke:#181818;stroke-width:0.5;" width="94" x="627.5" y="1334.3984"/><text fill="#000000" font-family="sans-serif" font-size="14" lengthAdjust="spacing" textLength="80" x="634.5" y="1354.9336">SMS Service</text><rect fill="#E2E2F0" height="30.4883" rx="2.5" ry="2.5" style="stroke:#181818;stroke-width:0.5;" width="77" x="731.5" y="50"/><text fill="#000000" font-family="sans-serif" font-size="14" lengthAdjust="spacing" textLength="63" x="738.5" y="70.5352">Database</text><rect fill="#E2E2F0" height="30.4883" rx="2.5" ry="2.5" style="stroke:#181818;stroke-width:0.5;" width="77" x="731.5" y="1334.3984"/><text fill="#000000" font-family="sans-serif" font-size="14" lengthAdjust="spacing" textLength="63" x="738.5" y="1354.9336">Database</text><rect fill="#E2E2F0" height="30.4883" rx="2.5" ry="2.5" style="stroke:#181818;stroke-width:0.5;" width="118" x="818.5" y="50"/><text fill="#000000" font-family="sans-serif" font-size="14" lengthAdjust="spacing" textLength="104" x="825.5" y="70.5352">LoggingService</text><rect fill="#E2E2F0" height="30.4883" rx="2.5" ry="2.5" style="stroke:#181818;stroke-width:0.5;" width="118" x="818.5" y="1334.3984"/><text fill="#000000" font-family="sans-serif" font-size="14" lengthAdjust="spacing" textLength="104" x="825.5" y="1354.9336">LoggingService</text><rect fill="#FFFFFF" height="95.9316" style="stroke:#181818;stroke-width:1.0;" width="10" x="382.5" y="112.7988"/><rect fill="#FFFFFF" height="82.9316" style="stroke:#181818;stroke-width:1.0;" width="10" x="382.5" y="1052.959"/><rect fill="#FFFFFF" height="29.3105" style="stroke:#181818;stroke-width:1.0;" width="10" x="669.5" y="494.125"/><polygon fill="#181818" points="370.5,108.7988,380.5,112.7988,370.5,116.7988,374.5,112.7988" style="stroke:#181818;stroke-width:1.0;"/><line style="stroke:#181818;stroke-width:1.0;" x1="48.5" x2="376.5" y1="112.7988" y2="112.7988"/><text fill="#000000" font-family="sans-serif" font-size="13" lengthAdjust="spacing" textLength="139" x="55.5" y="108.0566">Submit phone number</text><line style="stroke:#181818;stroke-width:1.0;" x1="392.5" x2="434.5" y1="142.1094" y2="142.1094"/><line style="stroke:#181818;stroke-width:1.0;" x1="434.5" x2="434.5" y1="142.1094" y2="155.1094"/><line style="stroke:#181818;stroke-width:1.0;" x1="393.5" x2="434.5" y1="155.1094" y2="155.1094"/><polygon fill="#181818" points="403.5,151.1094,393.5,155.1094,403.5,159.1094,399.5,155.1094" style="stroke:#181818;stroke-width:1.0;"/><text fill="#000000" font-family="sans-serif" font-size="13" lengthAdjust="spacing" textLength="191" x="399.5" y="137.3672">Validate phone number format</text><path d="M10,170.1094 L72,170.1094 L72,177.4199 L62,187.4199 L10,187.4199 L10,170.1094 " fill="#EEEEEE" style="stroke:#000000;stroke-width:1.5;"/><rect fill="none" height="368.3262" style="stroke:#000000;stroke-width:1.5;" width="946.5" x="10" y="170.1094"/><text fill="#000000" font-family="sans-serif" font-size="13" font-weight="bold" lengthAdjust="spacing" textLength="17" x="25" y="183.6777">alt</text><text fill="#000000" font-family="sans-serif" font-size="11" font-weight="bold" lengthAdjust="spacing" textLength="132" x="87" y="182.7441">[Invalid phone number]</text><polygon fill="#181818" points="59.5,204.7305,49.5,208.7305,59.5,212.7305,55.5,208.7305" style="stroke:#181818;stroke-width:1.0;"/><line style="stroke:#181818;stroke-width:1.0;" x1="53.5" x2="386.5" y1="208.7305" y2="208.7305"/><text fill="#000000" font-family="sans-serif" font-size="13" lengthAdjust="spacing" textLength="175" x="65.5" y="203.9883">Error: Invalid phone number</text><line style="stroke:#000000;stroke-width:1.0;stroke-dasharray:2.0,2.0;" x1="10" x2="956.5" y1="217.7305" y2="217.7305"/><text fill="#000000" font-family="sans-serif" font-size="11" font-weight="bold" lengthAdjust="spacing" textLength="122" x="15" y="228.3652">[Valid phone number]</text><polygon fill="#181818" points="758,248.9961,768,252.9961,758,256.9961,762,252.9961" style="stroke:#181818;stroke-width:1.0;"/><line style="stroke:#181818;stroke-width:1.0;" x1="387.5" x2="764" y1="252.9961" y2="252.9961"/><text fill="#000000" font-family="sans-serif" font-size="13" lengthAdjust="spacing" textLength="217" x="394.5" y="248.2539">Check rate limit for phone number</text><path d="M20,267.9961 L82,267.9961 L82,275.3066 L72,285.3066 L20,285.3066 L20,267.9961 " fill="#EEEEEE" style="stroke:#000000;stroke-width:1.5;"/><rect fill="none" height="263.4395" style="stroke:#000000;stroke-width:1.5;" width="926.5" x="20" y="267.9961"/><text fill="#000000" font-family="sans-serif" font-size="13" font-weight="bold" lengthAdjust="spacing" textLength="17" x="35" y="281.5645">alt</text><text fill="#000000" font-family="sans-serif" font-size="11" font-weight="bold" lengthAdjust="spacing" textLength="117" x="97" y="280.6309">[Rate limit exceeded]</text><polygon fill="#181818" points="59.5,302.6172,49.5,306.6172,59.5,310.6172,55.5,306.6172" style="stroke:#181818;stroke-width:1.0;"/><line style="stroke:#181818;stroke-width:1.0;" x1="53.5" x2="386.5" y1="306.6172" y2="306.6172"/><text fill="#000000" font-family="sans-serif" font-size="13" lengthAdjust="spacing" textLength="260" x="65.5" y="301.875">Error: Too many requests. Try again later.</text><line style="stroke:#000000;stroke-width:1.0;stroke-dasharray:2.0,2.0;" x1="20" x2="946.5" y1="315.6172" y2="315.6172"/><text fill="#000000" font-family="sans-serif" font-size="11" font-weight="bold" lengthAdjust="spacing" textLength="139" x="25" y="326.252">[Rate limit within limits]</text><line style="stroke:#181818;stroke-width:1.0;" x1="387.5" x2="429.5" y1="350.8828" y2="350.8828"/><line style="stroke:#181818;stroke-width:1.0;" x1="429.5" x2="429.5" y1="350.8828" y2="363.8828"/><line style="stroke:#181818;stroke-width:1.0;" x1="388.5" x2="429.5" y1="363.8828" y2="363.8828"/><polygon fill="#181818" points="398.5,359.8828,388.5,363.8828,398.5,367.8828,394.5,363.8828" style="stroke:#181818;stroke-width:1.0;"/><text fill="#000000" font-family="sans-serif" font-size="13" lengthAdjust="spacing" textLength="223" x="394.5" y="346.1406">Generate 6-digit confirmation code</text><line style="stroke:#181818;stroke-width:1.0;" x1="387.5" x2="429.5" y1="393.1934" y2="393.1934"/><line style="stroke:#181818;stroke-width:1.0;" x1="429.5" x2="429.5" y1="393.1934" y2="406.1934"/><line style="stroke:#181818;stroke-width:1.0;" x1="388.5" x2="429.5" y1="406.1934" y2="406.1934"/><polygon fill="#181818" points="398.5,402.1934,388.5,406.1934,398.5,410.1934,394.5,406.1934" style="stroke:#181818;stroke-width:1.0;"/><text fill="#000000" font-family="sans-serif" font-size="13" lengthAdjust="spacing" textLength="169" x="394.5" y="388.4512">Generate expiry timestamp</text><polygon fill="#181818" points="758,431.5039,768,435.5039,758,439.5039,762,435.5039" style="stroke:#181818;stroke-width:1.0;"/><line style="stroke:#181818;stroke-width:1.0;" x1="387.5" x2="764" y1="435.5039" y2="435.5039"/><text fill="#000000" font-family="sans-serif" font-size="13" lengthAdjust="spacing" textLength="305" x="394.5" y="430.7617">Store encrypted phone number, code, and expiry</text><polygon fill="#181818" points="865.5,460.8145,875.5,464.8145,865.5,468.8145,869.5,464.8145" style="stroke:#181818;stroke-width:1.0;"/><line style="stroke:#181818;stroke-width:1.0;" x1="387.5" x2="871.5" y1="464.8145" y2="464.8145"/><text fill="#000000" font-family="sans-serif" font-size="13" lengthAdjust="spacing" textLength="166" x="394.5" y="460.0723">Log code generation event</text><polygon fill="#181818" points="657.5,490.125,667.5,494.125,657.5,498.125,661.5,494.125" style="stroke:#181818;stroke-width:1.0;"/><line style="stroke:#181818;stroke-width:1.0;" x1="387.5" x2="663.5" y1="494.125" y2="494.125"/><text fill="#000000" font-family="sans-serif" font-size="13" lengthAdjust="spacing" textLength="200" x="394.5" y="489.3828">Send confirmation code via SMS</text><polygon fill="#181818" points="59.5,519.4355,49.5,523.4355,59.5,527.4355,55.5,523.4355" style="stroke:#181818;stroke-width:1.0;"/><line style="stroke:#181818;stroke-width:1.0;" x1="53.5" x2="673.5" y1="523.4355" y2="523.4355"/><text fill="#000000" font-family="sans-serif" font-size="13" lengthAdjust="spacing" textLength="163" x="65.5" y="518.6934">Deliver confirmation code</text><polygon fill="#181818" points="375.5,562.7461,385.5,566.7461,375.5,570.7461,379.5,566.7461" style="stroke:#181818;stroke-width:1.0;"/><line style="stroke:#181818;stroke-width:1.0;" x1="48.5" x2="381.5" y1="566.7461" y2="566.7461"/><text fill="#000000" font-family="sans-serif" font-size="13" lengthAdjust="spacing" textLength="151" x="55.5" y="562.0039">Enter confirmation code</text><polygon fill="#181818" points="758,592.0566,768,596.0566,758,600.0566,762,596.0566" style="stroke:#181818;stroke-width:1.0;"/><line style="stroke:#181818;stroke-width:1.0;" x1="387.5" x2="764" y1="596.0566" y2="596.0566"/><text fill="#000000" font-family="sans-serif" font-size="13" lengthAdjust="spacing" textLength="289" x="394.5" y="591.3145">Fetch stored code, expiry, and failed attempts</text><line style="stroke:#181818;stroke-width:1.0;" x1="387.5" x2="429.5" y1="625.3672" y2="625.3672"/><line style="stroke:#181818;stroke-width:1.0;" x1="429.5" x2="429.5" y1="625.3672" y2="638.3672"/><line style="stroke:#181818;stroke-width:1.0;" x1="388.5" x2="429.5" y1="638.3672" y2="638.3672"/><polygon fill="#181818" points="398.5,634.3672,388.5,638.3672,398.5,642.3672,394.5,638.3672" style="stroke:#181818;stroke-width:1.0;"/><text fill="#000000" font-family="sans-serif" font-size="13" lengthAdjust="spacing" textLength="123" x="394.5" y="620.625">Check code validity</text><path d="M10,653.3672 L72,653.3672 L72,660.6777 L62,670.6777 L10,670.6777 L10,653.3672 " fill="#EEEEEE" style="stroke:#000000;stroke-width:1.5;"/><rect fill="none" height="371.2813" style="stroke:#000000;stroke-width:1.5;" width="936.5" x="10" y="653.3672"/><text fill="#000000" font-family="sans-serif" font-size="13" font-weight="bold" lengthAdjust="spacing" textLength="17" x="25" y="666.9355">alt</text><text fill="#000000" font-family="sans-serif" font-size="11" font-weight="bold" lengthAdjust="spacing" textLength="81" x="87" y="666.002">[Code expired]</text><polygon fill="#181818" points="59.5,687.9883,49.5,691.9883,59.5,695.9883,55.5,691.9883" style="stroke:#181818;stroke-width:1.0;"/><line style="stroke:#181818;stroke-width:1.0;" x1="53.5" x2="386.5" y1="691.9883" y2="691.9883"/><text fill="#000000" font-family="sans-serif" font-size="13" lengthAdjust="spacing" textLength="257" x="65.5" y="687.2461">Error: Code expired. Request a new code.</text><polygon fill="#181818" points="865.5,717.2988,875.5,721.2988,865.5,725.2988,869.5,721.2988" style="stroke:#181818;stroke-width:1.0;"/><line style="stroke:#181818;stroke-width:1.0;" x1="387.5" x2="871.5" y1="721.2988" y2="721.2988"/><text fill="#000000" font-family="sans-serif" font-size="13" lengthAdjust="spacing" textLength="174" x="394.5" y="716.5566">Log failed attempt (expired)</text><line style="stroke:#000000;stroke-width:1.0;stroke-dasharray:2.0,2.0;" x1="10" x2="946.5" y1="730.2988" y2="730.2988"/><text fill="#000000" font-family="sans-serif" font-size="11" font-weight="bold" lengthAdjust="spacing" textLength="77" x="15" y="740.9336">[Invalid code]</text><polygon fill="#181818" points="758,761.5645,768,765.5645,758,769.5645,762,765.5645" style="stroke:#181818;stroke-width:1.0;"/><line style="stroke:#181818;stroke-width:1.0;" x1="387.5" x2="764" y1="765.5645" y2="765.5645"/><text fill="#000000" font-family="sans-serif" font-size="13" lengthAdjust="spacing" textLength="162" x="394.5" y="760.8223">Increment failed attempts</text><polygon fill="#181818" points="865.5,790.875,875.5,794.875,865.5,798.875,869.5,794.875" style="stroke:#181818;stroke-width:1.0;"/><line style="stroke:#181818;stroke-width:1.0;" x1="387.5" x2="871.5" y1="794.875" y2="794.875"/><text fill="#000000" font-family="sans-serif" font-size="13" lengthAdjust="spacing" textLength="115" x="394.5" y="790.1328">Log failed attempt</text><path d="M20,809.875 L82,809.875 L82,817.1855 L72,827.1855 L20,827.1855 L20,809.875 " fill="#EEEEEE" style="stroke:#000000;stroke-width:1.5;"/><rect fill="none" height="104.8867" style="stroke:#000000;stroke-width:1.5;" width="408.5" x="20" y="809.875"/><text fill="#000000" font-family="sans-serif" font-size="13" font-weight="bold" lengthAdjust="spacing" textLength="17" x="35" y="823.4434">alt</text><text fill="#000000" font-family="sans-serif" font-size="11" font-weight="bold" lengthAdjust="spacing" textLength="136" x="97" y="822.5098">[Max attempts exceeded]</text><polygon fill="#181818" points="59.5,844.4961,49.5,848.4961,59.5,852.4961,55.5,848.4961" style="stroke:#181818;stroke-width:1.0;"/><line style="stroke:#181818;stroke-width:1.0;" x1="53.5" x2="386.5" y1="848.4961" y2="848.4961"/><text fill="#000000" font-family="sans-serif" font-size="13" lengthAdjust="spacing" textLength="315" x="65.5" y="843.7539">Error: Maximum attempts reached. Try again later.</text><polygon fill="#181818" points="375.5,858.4961,385.5,862.4961,375.5,866.4961,379.5,862.4961" style="stroke:#181818;stroke-width:1.0;"/><line style="stroke:#181818;stroke-width:1.0;stroke-dasharray:2.0,2.0;" x1="48.5" x2="381.5" y1="862.4961" y2="862.4961"/><line style="stroke:#000000;stroke-width:1.0;stroke-dasharray:2.0,2.0;" x1="20" x2="428.5" y1="871.4961" y2="871.4961"/><text fill="#000000" font-family="sans-serif" font-size="11" font-weight="bold" lengthAdjust="spacing" textLength="128" x="25" y="882.1309">[Attempts within limit]</text><polygon fill="#181818" points="59.5,902.7617,49.5,906.7617,59.5,910.7617,55.5,906.7617" style="stroke:#181818;stroke-width:1.0;"/><line style="stroke:#181818;stroke-width:1.0;" x1="53.5" x2="386.5" y1="906.7617" y2="906.7617"/><text fill="#000000" font-family="sans-serif" font-size="13" lengthAdjust="spacing" textLength="184" x="65.5" y="902.0195">Error: Invalid code. Try again.</text><line style="stroke:#000000;stroke-width:1.0;stroke-dasharray:2.0,2.0;" x1="10" x2="946.5" y1="922.7617" y2="922.7617"/><text fill="#000000" font-family="sans-serif" font-size="11" font-weight="bold" lengthAdjust="spacing" textLength="67" x="15" y="933.3965">[Valid code]</text><polygon fill="#181818" points="758,954.0273,768,958.0273,758,962.0273,762,958.0273" style="stroke:#181818;stroke-width:1.0;"/><line style="stroke:#181818;stroke-width:1.0;" x1="387.5" x2="764" y1="958.0273" y2="958.0273"/><text fill="#000000" font-family="sans-serif" font-size="13" lengthAdjust="spacing" textLength="197" x="394.5" y="953.2852">Update user status to "Verified"</text><polygon fill="#181818" points="59.5,983.3379,49.5,987.3379,59.5,991.3379,55.5,987.3379" style="stroke:#181818;stroke-width:1.0;"/><line style="stroke:#181818;stroke-width:1.0;" x1="53.5" x2="386.5" y1="987.3379" y2="987.3379"/><text fill="#000000" font-family="sans-serif" font-size="13" lengthAdjust="spacing" textLength="143" x="65.5" y="982.5957">Verification successful</text><polygon fill="#181818" points="865.5,1012.6484,875.5,1016.6484,865.5,1020.6484,869.5,1016.6484" style="stroke:#181818;stroke-width:1.0;"/><line style="stroke:#181818;stroke-width:1.0;" x1="387.5" x2="871.5" y1="1016.6484" y2="1016.6484"/><text fill="#000000" font-family="sans-serif" font-size="13" lengthAdjust="spacing" textLength="169" x="394.5" y="1011.9063">Log successful verification</text><polygon fill="#181818" points="370.5,1048.959,380.5,1052.959,370.5,1056.959,374.5,1052.959" style="stroke:#181818;stroke-width:1.0;"/><line style="stroke:#181818;stroke-width:1.0;" x1="48.5" x2="376.5" y1="1052.959" y2="1052.959"/><text fill="#000000" font-family="sans-serif" font-size="13" lengthAdjust="spacing" textLength="130" x="55.5" y="1048.2168">Request code resend</text><polygon fill="#181818" points="758,1078.2695,768,1082.2695,758,1086.2695,762,1082.2695" style="stroke:#181818;stroke-width:1.0;"/><line style="stroke:#181818;stroke-width:1.0;" x1="392.5" x2="764" y1="1082.2695" y2="1082.2695"/><text fill="#000000" font-family="sans-serif" font-size="13" lengthAdjust="spacing" textLength="175" x="399.5" y="1077.5273">Check rate limit for resends</text><path d="M20,1097.2695 L82,1097.2695 L82,1104.5801 L72,1114.5801 L20,1114.5801 L20,1097.2695 " fill="#EEEEEE" style="stroke:#000000;stroke-width:1.5;"/><rect fill="none" height="221.1289" style="stroke:#000000;stroke-width:1.5;" width="926.5" x="20" y="1097.2695"/><text fill="#000000" font-family="sans-serif" font-size="13" font-weight="bold" lengthAdjust="spacing" textLength="17" x="35" y="1110.8379">alt</text><text fill="#000000" font-family="sans-serif" font-size="11" font-weight="bold" lengthAdjust="spacing" textLength="133" x="97" y="1109.9043">[Resend limit exceeded]</text><polygon fill="#181818" points="59.5,1131.8906,49.5,1135.8906,59.5,1139.8906,55.5,1135.8906" style="stroke:#181818;stroke-width:1.0;"/><line style="stroke:#181818;stroke-width:1.0;" x1="53.5" x2="386.5" y1="1135.8906" y2="1135.8906"/><text fill="#000000" font-family="sans-serif" font-size="13" lengthAdjust="spacing" textLength="255" x="65.5" y="1131.1484">Error: Too many resends. Try again later.</text><line style="stroke:#000000;stroke-width:1.0;stroke-dasharray:2.0,2.0;" x1="20" x2="946.5" y1="1144.8906" y2="1144.8906"/><text fill="#000000" font-family="sans-serif" font-size="11" font-weight="bold" lengthAdjust="spacing" textLength="155" x="25" y="1155.5254">[Resend limit within limits]</text><line style="stroke:#181818;stroke-width:1.0;" x1="387.5" x2="429.5" y1="1180.1563" y2="1180.1563"/><line style="stroke:#181818;stroke-width:1.0;" x1="429.5" x2="429.5" y1="1180.1563" y2="1193.1563"/><line style="stroke:#181818;stroke-width:1.0;" x1="388.5" x2="429.5" y1="1193.1563" y2="1193.1563"/><polygon fill="#181818" points="398.5,1189.1563,388.5,1193.1563,398.5,1197.1563,394.5,1193.1563" style="stroke:#181818;stroke-width:1.0;"/><text fill="#000000" font-family="sans-serif" font-size="13" lengthAdjust="spacing" textLength="273" x="394.5" y="1175.4141">Generate new confirmation code and expiry</text><polygon fill="#181818" points="758,1218.4668,768,1222.4668,758,1226.4668,762,1222.4668" style="stroke:#181818;stroke-width:1.0;"/><line style="stroke:#181818;stroke-width:1.0;" x1="387.5" x2="764" y1="1222.4668" y2="1222.4668"/><text fill="#000000" font-family="sans-serif" font-size="13" lengthAdjust="spacing" textLength="148" x="394.5" y="1217.7246">Update code and expiry</text><polygon fill="#181818" points="662.5,1247.7773,672.5,1251.7773,662.5,1255.7773,666.5,1251.7773" style="stroke:#181818;stroke-width:1.0;"/><line style="stroke:#181818;stroke-width:1.0;" x1="387.5" x2="668.5" y1="1251.7773" y2="1251.7773"/><text fill="#000000" font-family="sans-serif" font-size="13" lengthAdjust="spacing" textLength="178" x="394.5" y="1247.0352">Send new confirmation code</text><polygon fill="#181818" points="59.5,1277.0879,49.5,1281.0879,59.5,1285.0879,55.5,1281.0879" style="stroke:#181818;stroke-width:1.0;"/><line style="stroke:#181818;stroke-width:1.0;" x1="53.5" x2="673.5" y1="1281.0879" y2="1281.0879"/><text fill="#000000" font-family="sans-serif" font-size="13" lengthAdjust="spacing" textLength="192" x="65.5" y="1276.3457">Deliver new confirmation code</text><polygon fill="#181818" points="865.5,1306.3984,875.5,1310.3984,865.5,1314.3984,869.5,1310.3984" style="stroke:#181818;stroke-width:1.0;"/><line style="stroke:#181818;stroke-width:1.0;" x1="387.5" x2="871.5" y1="1310.3984" y2="1310.3984"/><text fill="#000000" font-family="sans-serif" font-size="13" lengthAdjust="spacing" textLength="141" x="394.5" y="1305.6563">Log code resend event</text><!--SRC=[bLLDRzim3BtxLn2vT0FQ77V8OK3HTaE1zTAqlIioun2pPK-ItUJVZvBY3_cZQGqOXYNoaIBVeuIqfOPNWpgfXBOagHBAmcfxCXQB5GW3jrKrsdlQmXPrGn9NySwzi68dp7ZvJvbbfBBE9xc2HqMMH0xLeLG8gYvsgC7KkuACeL8bBYEu-Uc2Rs3hrcracmXfgH4MVNhyTiPl8gVKRKJG-r8NmYOYjnowSIOn7F1pHd6XD_2WTScVHUCKemmmDnX2B-AsnTd0tG7bNz3EDoTtCivkwkPoVUvjy2WHKqpztbAwBsK9XL0dqFYlHcFD6bxq2KGcI47EO7hT-OzEu9RyAGOntyaUdAFxCUF0ljg_KQ4_o8-Rb39saQNQawirTv5_KlpO3OyLSOAM2ivM5DNOkY_QbedAzahgKsKnBlErZtGDGgLdn35EJC6D-_S-a8LCNBROeB99vtd596SyRzMG0ARz63MImgQr7nLWujoLFLPIknsjzXs-nvmQPl9oWGSDdI9pQebxMNjUMtnKr6O6BLBUWxEQCPfqvnTQUG3ZUfIUcn4Q4Pgo5vJpXh0yL2gcqf0BGGsXKav0P4zUftTknOESIJz7-A7H6fu3wq60mdSFkKuka23E3BwTiRu7HRVox-eyEVWZ4n8BhkRaZ5yAt2d-IHmxYCzfdZseg8lUIpCF3guSNv6-UpJQMgj-4josYCCvy64kmteDugzx2lPpShcchvKVuBLZ8ay5Mnkm9QpUKDEUC5rDsH2sP62egQL4O_PrVga7lIKq0mGlb56DM3VFQ9p0yp8Z6SkavPqdiVPcinVKXIiWU1hF_ZROTFPVcFiUOg7tSvTM56Wwy6UdTb3NUCwDfkzIMp-mdPkdix6IJmpAPSTBTq8eula-c7BXFm00]--></g></svg>