<?xml version="1.0" encoding="us-ascii" standalone="no"?><svg xmlns="http://www.w3.org/2000/svg" xmlns:xlink="http://www.w3.org/1999/xlink" contentStyleType="text/css" height="1831px" preserveAspectRatio="none" style="width:1198px;height:1831px;background:#FFFFFF;" version="1.1" viewBox="0 0 1198 1831" width="1198px" zoomAndPan="magnify"><defs/><g><rect fill="#FFFFFF" height="125.2422" style="stroke:#181818;stroke-width:1.0;" width="10" x="392.5" y="112.7988"/><rect fill="#FFFFFF" height="112.2422" style="stroke:#181818;stroke-width:1.0;" width="10" x="392.5" y="1275.0879"/><rect fill="#FFFFFF" height="82.9316" style="stroke:#181818;stroke-width:1.0;" width="10" x="679.5" y="552.7461"/><rect fill="#FFFFFF" height="82.9316" style="stroke:#181818;stroke-width:1.0;" width="10" x="679.5" y="1503.2168"/><rect fill="none" height="561.1445" style="stroke:#000000;stroke-width:1.5;" width="966.5" x="10" y="170.1094"/><rect fill="none" height="426.9473" style="stroke:#000000;stroke-width:1.5;" width="946.5" x="20" y="297.3066"/><rect fill="none" height="149.5078" style="stroke:#000000;stroke-width:1.5;" width="926.5" x="30" y="567.7461"/><rect fill="none" height="400.5918" style="stroke:#000000;stroke-width:1.5;" width="946.5" x="20" y="846.1855"/><rect fill="none" height="134.1973" style="stroke:#000000;stroke-width:1.5;" width="926.5" x="30" y="1002.6934"/><rect fill="none" height="355.3262" style="stroke:#000000;stroke-width:1.5;" width="946.5" x="20" y="1319.3984"/><rect fill="none" height="149.5078" style="stroke:#000000;stroke-width:1.5;" width="926.5" x="30" y="1518.2168"/><line style="stroke:#181818;stroke-width:0.5;stroke-dasharray:5.0,5.0;" x1="58" x2="58" y1="81.4883" y2="1750.3457"/><line style="stroke:#181818;stroke-width:0.5;stroke-dasharray:5.0,5.0;" x1="397.5" x2="397.5" y1="81.4883" y2="1750.3457"/><line style="stroke:#181818;stroke-width:0.5;stroke-dasharray:5.0,5.0;" x1="684.5" x2="684.5" y1="81.4883" y2="1750.3457"/><line style="stroke:#181818;stroke-width:0.5;stroke-dasharray:5.0,5.0;" x1="779.5" x2="779.5" y1="81.4883" y2="1750.3457"/><line style="stroke:#181818;stroke-width:0.5;stroke-dasharray:5.0,5.0;" x1="887.5" x2="887.5" y1="81.4883" y2="1750.3457"/><line style="stroke:#181818;stroke-width:0.5;stroke-dasharray:5.0,5.0;" x1="1013.5" x2="1013.5" y1="81.4883" y2="1750.3457"/><line style="stroke:#181818;stroke-width:0.5;stroke-dasharray:5.0,5.0;" x1="1136.5" x2="1136.5" y1="81.4883" y2="1750.3457"/><text fill="#000000" font-family="sans-serif" font-size="14" lengthAdjust="spacing" textLength="31" x="40" y="78.5352">User</text><ellipse cx="58.5" cy="13.5" fill="#E2E2F0" rx="8" ry="8" style="stroke:#181818;stroke-width:0.5;"/><path d="M58.5,21.5 L58.5,48.5 M45.5,29.5 L71.5,29.5 M58.5,48.5 L45.5,63.5 M58.5,48.5 L71.5,63.5 " fill="none" style="stroke:#181818;stroke-width:0.5;"/><text fill="#000000" font-family="sans-serif" font-size="14" lengthAdjust="spacing" textLength="31" x="40" y="1762.8809">User</text><ellipse cx="58.5" cy="1774.334" fill="#E2E2F0" rx="8" ry="8" style="stroke:#181818;stroke-width:0.5;"/><path d="M58.5,1782.334 L58.5,1809.334 M45.5,1790.334 L71.5,1790.334 M58.5,1809.334 L45.5,1824.334 M58.5,1809.334 L71.5,1824.334 " fill="none" style="stroke:#181818;stroke-width:0.5;"/><rect fill="#E2E2F0" height="30.4883" rx="2.5" ry="2.5" style="stroke:#181818;stroke-width:0.5;" width="62" x="366.5" y="50"/><text fill="#000000" font-family="sans-serif" font-size="14" lengthAdjust="spacing" textLength="48" x="373.5" y="70.5352">System</text><rect fill="#E2E2F0" height="30.4883" rx="2.5" ry="2.5" style="stroke:#181818;stroke-width:0.5;" width="62" x="366.5" y="1749.3457"/><text fill="#000000" font-family="sans-serif" font-size="14" lengthAdjust="spacing" textLength="48" x="373.5" y="1769.8809">System</text><rect fill="#E2E2F0" height="30.4883" rx="2.5" ry="2.5" style="stroke:#181818;stroke-width:0.5;" width="94" x="637.5" y="50"/><text fill="#000000" font-family="sans-serif" font-size="14" lengthAdjust="spacing" textLength="80" x="644.5" y="70.5352">SMS Service</text><rect fill="#E2E2F0" height="30.4883" rx="2.5" ry="2.5" style="stroke:#181818;stroke-width:0.5;" width="94" x="637.5" y="1749.3457"/><text fill="#000000" font-family="sans-serif" font-size="14" lengthAdjust="spacing" textLength="80" x="644.5" y="1769.8809">SMS Service</text><rect fill="#E2E2F0" height="30.4883" rx="2.5" ry="2.5" style="stroke:#181818;stroke-width:0.5;" width="77" x="741.5" y="50"/><text fill="#000000" font-family="sans-serif" font-size="14" lengthAdjust="spacing" textLength="63" x="748.5" y="70.5352">Database</text><rect fill="#E2E2F0" height="30.4883" rx="2.5" ry="2.5" style="stroke:#181818;stroke-width:0.5;" width="77" x="741.5" y="1749.3457"/><text fill="#000000" font-family="sans-serif" font-size="14" lengthAdjust="spacing" textLength="63" x="748.5" y="1769.8809">Database</text><rect fill="#E2E2F0" height="30.4883" rx="2.5" ry="2.5" style="stroke:#181818;stroke-width:0.5;" width="118" x="828.5" y="50"/><text fill="#000000" font-family="sans-serif" font-size="14" lengthAdjust="spacing" textLength="104" x="835.5" y="70.5352">LoggingService</text><rect fill="#E2E2F0" height="30.4883" rx="2.5" ry="2.5" style="stroke:#181818;stroke-width:0.5;" width="118" x="828.5" y="1749.3457"/><text fill="#000000" font-family="sans-serif" font-size="14" lengthAdjust="spacing" textLength="104" x="835.5" y="1769.8809">LoggingService</text><rect fill="#E2E2F0" height="30.4883" rx="2.5" ry="2.5" style="stroke:#181818;stroke-width:0.5;" width="115" x="956.5" y="50"/><text fill="#000000" font-family="sans-serif" font-size="14" lengthAdjust="spacing" textLength="101" x="963.5" y="70.5352">Backup Service</text><rect fill="#E2E2F0" height="30.4883" rx="2.5" ry="2.5" style="stroke:#181818;stroke-width:0.5;" width="115" x="956.5" y="1749.3457"/><text fill="#000000" font-family="sans-serif" font-size="14" lengthAdjust="spacing" textLength="101" x="963.5" y="1769.8809">Backup Service</text><rect fill="#E2E2F0" height="30.4883" rx="2.5" ry="2.5" style="stroke:#181818;stroke-width:0.5;" width="111" x="1081.5" y="50"/><text fill="#000000" font-family="sans-serif" font-size="14" lengthAdjust="spacing" textLength="97" x="1088.5" y="70.5352">BackupService</text><rect fill="#E2E2F0" height="30.4883" rx="2.5" ry="2.5" style="stroke:#181818;stroke-width:0.5;" width="111" x="1081.5" y="1749.3457"/><text fill="#000000" font-family="sans-serif" font-size="14" lengthAdjust="spacing" textLength="97" x="1088.5" y="1769.8809">BackupService</text><rect fill="#FFFFFF" height="125.2422" style="stroke:#181818;stroke-width:1.0;" width="10" x="392.5" y="112.7988"/><rect fill="#FFFFFF" height="112.2422" style="stroke:#181818;stroke-width:1.0;" width="10" x="392.5" y="1275.0879"/><rect fill="#FFFFFF" height="82.9316" style="stroke:#181818;stroke-width:1.0;" width="10" x="679.5" y="552.7461"/><rect fill="#FFFFFF" height="82.9316" style="stroke:#181818;stroke-width:1.0;" width="10" x="679.5" y="1503.2168"/><polygon fill="#181818" points="380.5,108.7988,390.5,112.7988,380.5,116.7988,384.5,112.7988" style="stroke:#181818;stroke-width:1.0;"/><line style="stroke:#181818;stroke-width:1.0;" x1="58.5" x2="386.5" y1="112.7988" y2="112.7988"/><text fill="#000000" font-family="sans-serif" font-size="13" lengthAdjust="spacing" textLength="139" x="65.5" y="108.0566">Submit phone number</text><line style="stroke:#181818;stroke-width:1.0;" x1="402.5" x2="444.5" y1="142.1094" y2="142.1094"/><line style="stroke:#181818;stroke-width:1.0;" x1="444.5" x2="444.5" y1="142.1094" y2="155.1094"/><line style="stroke:#181818;stroke-width:1.0;" x1="403.5" x2="444.5" y1="155.1094" y2="155.1094"/><polygon fill="#181818" points="413.5,151.1094,403.5,155.1094,413.5,159.1094,409.5,155.1094" style="stroke:#181818;stroke-width:1.0;"/><text fill="#000000" font-family="sans-serif" font-size="13" lengthAdjust="spacing" textLength="191" x="409.5" y="137.3672">Validate phone number format</text><path d="M10,170.1094 L72,170.1094 L72,177.4199 L62,187.4199 L10,187.4199 L10,170.1094 " fill="#EEEEEE" style="stroke:#000000;stroke-width:1.5;"/><rect fill="none" height="561.1445" style="stroke:#000000;stroke-width:1.5;" width="966.5" x="10" y="170.1094"/><text fill="#000000" font-family="sans-serif" font-size="13" font-weight="bold" lengthAdjust="spacing" textLength="17" x="25" y="183.6777">alt</text><text fill="#000000" font-family="sans-serif" font-size="11" font-weight="bold" lengthAdjust="spacing" textLength="132" x="87" y="182.7441">[Invalid phone number]</text><polygon fill="#181818" points="69.5,204.7305,59.5,208.7305,69.5,212.7305,65.5,208.7305" style="stroke:#181818;stroke-width:1.0;"/><line style="stroke:#181818;stroke-width:1.0;" x1="63.5" x2="391.5" y1="208.7305" y2="208.7305"/><text fill="#000000" font-family="sans-serif" font-size="13" lengthAdjust="spacing" textLength="175" x="75.5" y="203.9883">Error: Invalid phone number</text><polygon fill="#181818" points="875.5,234.041,885.5,238.041,875.5,242.041,879.5,238.041" style="stroke:#181818;stroke-width:1.0;"/><line style="stroke:#181818;stroke-width:1.0;" x1="397.5" x2="881.5" y1="238.041" y2="238.041"/><text fill="#000000" font-family="sans-serif" font-size="13" lengthAdjust="spacing" textLength="217" x="404.5" y="233.2988">Log invalid phone number attempt</text><line style="stroke:#000000;stroke-width:1.0;stroke-dasharray:2.0,2.0;" x1="10" x2="976.5" y1="247.041" y2="247.041"/><text fill="#000000" font-family="sans-serif" font-size="11" font-weight="bold" lengthAdjust="spacing" textLength="122" x="15" y="257.6758">[Valid phone number]</text><polygon fill="#181818" points="768,278.3066,778,282.3066,768,286.3066,772,282.3066" style="stroke:#181818;stroke-width:1.0;"/><line style="stroke:#181818;stroke-width:1.0;" x1="397.5" x2="774" y1="282.3066" y2="282.3066"/><text fill="#000000" font-family="sans-serif" font-size="13" lengthAdjust="spacing" textLength="199" x="404.5" y="277.5645">Check sliding window rate limit</text><path d="M20,297.3066 L82,297.3066 L82,304.6172 L72,314.6172 L20,314.6172 L20,297.3066 " fill="#EEEEEE" style="stroke:#000000;stroke-width:1.5;"/><rect fill="none" height="426.9473" style="stroke:#000000;stroke-width:1.5;" width="946.5" x="20" y="297.3066"/><text fill="#000000" font-family="sans-serif" font-size="13" font-weight="bold" lengthAdjust="spacing" textLength="17" x="35" y="310.875">alt</text><text fill="#000000" font-family="sans-serif" font-size="11" font-weight="bold" lengthAdjust="spacing" textLength="117" x="97" y="309.9414">[Rate limit exceeded]</text><polygon fill="#181818" points="69.5,331.9277,59.5,335.9277,69.5,339.9277,65.5,335.9277" style="stroke:#181818;stroke-width:1.0;"/><line style="stroke:#181818;stroke-width:1.0;" x1="63.5" x2="396.5" y1="335.9277" y2="335.9277"/><text fill="#000000" font-family="sans-serif" font-size="13" lengthAdjust="spacing" textLength="311" x="75.5" y="331.1855">Error: Too many requests. Try again in X minutes.</text><polygon fill="#181818" points="875.5,361.2383,885.5,365.2383,875.5,369.2383,879.5,365.2383" style="stroke:#181818;stroke-width:1.0;"/><line style="stroke:#181818;stroke-width:1.0;" x1="397.5" x2="881.5" y1="365.2383" y2="365.2383"/><text fill="#000000" font-family="sans-serif" font-size="13" lengthAdjust="spacing" textLength="147" x="404.5" y="360.4961">Log rate limit exceeded</text><line style="stroke:#000000;stroke-width:1.0;stroke-dasharray:2.0,2.0;" x1="20" x2="966.5" y1="374.2383" y2="374.2383"/><text fill="#000000" font-family="sans-serif" font-size="11" font-weight="bold" lengthAdjust="spacing" textLength="139" x="25" y="384.873">[Rate limit within limits]</text><line style="stroke:#181818;stroke-width:1.0;" x1="397.5" x2="439.5" y1="409.5039" y2="409.5039"/><line style="stroke:#181818;stroke-width:1.0;" x1="439.5" x2="439.5" y1="409.5039" y2="422.5039"/><line style="stroke:#181818;stroke-width:1.0;" x1="398.5" x2="439.5" y1="422.5039" y2="422.5039"/><polygon fill="#181818" points="408.5,418.5039,398.5,422.5039,408.5,426.5039,404.5,422.5039" style="stroke:#181818;stroke-width:1.0;"/><text fill="#000000" font-family="sans-serif" font-size="13" lengthAdjust="spacing" textLength="223" x="404.5" y="404.7617">Generate 6-digit confirmation code</text><line style="stroke:#181818;stroke-width:1.0;" x1="397.5" x2="439.5" y1="451.8145" y2="451.8145"/><line style="stroke:#181818;stroke-width:1.0;" x1="439.5" x2="439.5" y1="451.8145" y2="464.8145"/><line style="stroke:#181818;stroke-width:1.0;" x1="398.5" x2="439.5" y1="464.8145" y2="464.8145"/><polygon fill="#181818" points="408.5,460.8145,398.5,464.8145,408.5,468.8145,404.5,464.8145" style="stroke:#181818;stroke-width:1.0;"/><text fill="#000000" font-family="sans-serif" font-size="13" lengthAdjust="spacing" textLength="169" x="404.5" y="447.0723">Generate expiry timestamp</text><polygon fill="#181818" points="768,490.125,778,494.125,768,498.125,772,494.125" style="stroke:#181818;stroke-width:1.0;"/><line style="stroke:#181818;stroke-width:1.0;" x1="397.5" x2="774" y1="494.125" y2="494.125"/><text fill="#000000" font-family="sans-serif" font-size="13" lengthAdjust="spacing" textLength="305" x="404.5" y="489.3828">Store encrypted phone number, code, and expiry</text><polygon fill="#181818" points="875.5,519.4355,885.5,523.4355,875.5,527.4355,879.5,523.4355" style="stroke:#181818;stroke-width:1.0;"/><line style="stroke:#181818;stroke-width:1.0;" x1="397.5" x2="881.5" y1="523.4355" y2="523.4355"/><text fill="#000000" font-family="sans-serif" font-size="13" lengthAdjust="spacing" textLength="166" x="404.5" y="518.6934">Log code generation event</text><polygon fill="#181818" points="667.5,548.7461,677.5,552.7461,667.5,556.7461,671.5,552.7461" style="stroke:#181818;stroke-width:1.0;"/><line style="stroke:#181818;stroke-width:1.0;" x1="397.5" x2="673.5" y1="552.7461" y2="552.7461"/><text fill="#000000" font-family="sans-serif" font-size="13" lengthAdjust="spacing" textLength="200" x="404.5" y="548.0039">Send confirmation code via SMS</text><path d="M30,567.7461 L92,567.7461 L92,575.0566 L82,585.0566 L30,585.0566 L30,567.7461 " fill="#EEEEEE" style="stroke:#000000;stroke-width:1.5;"/><rect fill="none" height="149.5078" style="stroke:#000000;stroke-width:1.5;" width="926.5" x="30" y="567.7461"/><text fill="#000000" font-family="sans-serif" font-size="13" font-weight="bold" lengthAdjust="spacing" textLength="17" x="45" y="581.3145">alt</text><text fill="#000000" font-family="sans-serif" font-size="11" font-weight="bold" lengthAdjust="spacing" textLength="115" x="107" y="580.3809">[SMS Service failure]</text><polygon fill="#181818" points="69.5,602.3672,59.5,606.3672,69.5,610.3672,65.5,606.3672" style="stroke:#181818;stroke-width:1.0;"/><line style="stroke:#181818;stroke-width:1.0;" x1="63.5" x2="396.5" y1="606.3672" y2="606.3672"/><text fill="#000000" font-family="sans-serif" font-size="13" lengthAdjust="spacing" textLength="263" x="75.5" y="601.625">Error: Unable to send SMS. Try again later.</text><polygon fill="#181818" points="875.5,631.6777,885.5,635.6777,875.5,639.6777,879.5,635.6777" style="stroke:#181818;stroke-width:1.0;"/><line style="stroke:#181818;stroke-width:1.0;" x1="397.5" x2="881.5" y1="635.6777" y2="635.6777"/><text fill="#000000" font-family="sans-serif" font-size="13" lengthAdjust="spacing" textLength="144" x="404.5" y="630.9355">Log SMS service failure</text><line style="stroke:#000000;stroke-width:1.0;stroke-dasharray:2.0,2.0;" x1="30" x2="956.5" y1="644.6777" y2="644.6777"/><text fill="#000000" font-family="sans-serif" font-size="11" font-weight="bold" lengthAdjust="spacing" textLength="130" x="35" y="655.3125">[SMS sent successfully]</text><polygon fill="#181818" points="69.5,675.9434,59.5,679.9434,69.5,683.9434,65.5,679.9434" style="stroke:#181818;stroke-width:1.0;"/><line style="stroke:#181818;stroke-width:1.0;" x1="63.5" x2="683.5" y1="679.9434" y2="679.9434"/><text fill="#000000" font-family="sans-serif" font-size="13" lengthAdjust="spacing" textLength="163" x="75.5" y="675.2012">Deliver confirmation code</text><polygon fill="#181818" points="875.5,705.2539,885.5,709.2539,875.5,713.2539,879.5,709.2539" style="stroke:#181818;stroke-width:1.0;"/><line style="stroke:#181818;stroke-width:1.0;" x1="397.5" x2="881.5" y1="709.2539" y2="709.2539"/><text fill="#000000" font-family="sans-serif" font-size="13" lengthAdjust="spacing" textLength="165" x="404.5" y="704.5117">Log SMS sent successfully</text><polygon fill="#181818" points="385.5,755.5645,395.5,759.5645,385.5,763.5645,389.5,759.5645" style="stroke:#181818;stroke-width:1.0;"/><line style="stroke:#181818;stroke-width:1.0;" x1="58.5" x2="391.5" y1="759.5645" y2="759.5645"/><text fill="#000000" font-family="sans-serif" font-size="13" lengthAdjust="spacing" textLength="151" x="65.5" y="754.8223">Enter confirmation code</text><polygon fill="#181818" points="768,784.875,778,788.875,768,792.875,772,788.875" style="stroke:#181818;stroke-width:1.0;"/><line style="stroke:#181818;stroke-width:1.0;" x1="397.5" x2="774" y1="788.875" y2="788.875"/><text fill="#000000" font-family="sans-serif" font-size="13" lengthAdjust="spacing" textLength="289" x="404.5" y="784.1328">Fetch stored code, expiry, and failed attempts</text><line style="stroke:#181818;stroke-width:1.0;" x1="397.5" x2="439.5" y1="818.1855" y2="818.1855"/><line style="stroke:#181818;stroke-width:1.0;" x1="439.5" x2="439.5" y1="818.1855" y2="831.1855"/><line style="stroke:#181818;stroke-width:1.0;" x1="398.5" x2="439.5" y1="831.1855" y2="831.1855"/><polygon fill="#181818" points="408.5,827.1855,398.5,831.1855,408.5,835.1855,404.5,831.1855" style="stroke:#181818;stroke-width:1.0;"/><text fill="#000000" font-family="sans-serif" font-size="13" lengthAdjust="spacing" textLength="123" x="404.5" y="813.4434">Check code validity</text><path d="M20,846.1855 L82,846.1855 L82,853.4961 L72,863.4961 L20,863.4961 L20,846.1855 " fill="#EEEEEE" style="stroke:#000000;stroke-width:1.5;"/><rect fill="none" height="400.5918" style="stroke:#000000;stroke-width:1.5;" width="946.5" x="20" y="846.1855"/><text fill="#000000" font-family="sans-serif" font-size="13" font-weight="bold" lengthAdjust="spacing" textLength="17" x="35" y="859.7539">alt</text><text fill="#000000" font-family="sans-serif" font-size="11" font-weight="bold" lengthAdjust="spacing" textLength="81" x="97" y="858.8203">[Code expired]</text><polygon fill="#181818" points="69.5,880.8066,59.5,884.8066,69.5,888.8066,65.5,884.8066" style="stroke:#181818;stroke-width:1.0;"/><line style="stroke:#181818;stroke-width:1.0;" x1="63.5" x2="396.5" y1="884.8066" y2="884.8066"/><text fill="#000000" font-family="sans-serif" font-size="13" lengthAdjust="spacing" textLength="257" x="75.5" y="880.0645">Error: Code expired. Request a new code.</text><polygon fill="#181818" points="875.5,910.1172,885.5,914.1172,875.5,918.1172,879.5,914.1172" style="stroke:#181818;stroke-width:1.0;"/><line style="stroke:#181818;stroke-width:1.0;" x1="397.5" x2="881.5" y1="914.1172" y2="914.1172"/><text fill="#000000" font-family="sans-serif" font-size="13" lengthAdjust="spacing" textLength="174" x="404.5" y="909.375">Log failed attempt (expired)</text><line style="stroke:#000000;stroke-width:1.0;stroke-dasharray:2.0,2.0;" x1="20" x2="966.5" y1="923.1172" y2="923.1172"/><text fill="#000000" font-family="sans-serif" font-size="11" font-weight="bold" lengthAdjust="spacing" textLength="77" x="25" y="933.752">[Invalid code]</text><polygon fill="#181818" points="768,954.3828,778,958.3828,768,962.3828,772,958.3828" style="stroke:#181818;stroke-width:1.0;"/><line style="stroke:#181818;stroke-width:1.0;" x1="397.5" x2="774" y1="958.3828" y2="958.3828"/><text fill="#000000" font-family="sans-serif" font-size="13" lengthAdjust="spacing" textLength="162" x="404.5" y="953.6406">Increment failed attempts</text><polygon fill="#181818" points="875.5,983.6934,885.5,987.6934,875.5,991.6934,879.5,987.6934" style="stroke:#181818;stroke-width:1.0;"/><line style="stroke:#181818;stroke-width:1.0;" x1="397.5" x2="881.5" y1="987.6934" y2="987.6934"/><text fill="#000000" font-family="sans-serif" font-size="13" lengthAdjust="spacing" textLength="156" x="404.5" y="982.9512">Log invalid code attempt</text><path d="M30,1002.6934 L92,1002.6934 L92,1010.0039 L82,1020.0039 L30,1020.0039 L30,1002.6934 " fill="#EEEEEE" style="stroke:#000000;stroke-width:1.5;"/><rect fill="none" height="134.1973" style="stroke:#000000;stroke-width:1.5;" width="926.5" x="30" y="1002.6934"/><text fill="#000000" font-family="sans-serif" font-size="13" font-weight="bold" lengthAdjust="spacing" textLength="17" x="45" y="1016.2617">alt</text><text fill="#000000" font-family="sans-serif" font-size="11" font-weight="bold" lengthAdjust="spacing" textLength="136" x="107" y="1015.3281">[Max attempts exceeded]</text><polygon fill="#181818" points="69.5,1037.3145,59.5,1041.3145,69.5,1045.3145,65.5,1041.3145" style="stroke:#181818;stroke-width:1.0;"/><line style="stroke:#181818;stroke-width:1.0;" x1="63.5" x2="396.5" y1="1041.3145" y2="1041.3145"/><text fill="#000000" font-family="sans-serif" font-size="13" lengthAdjust="spacing" textLength="315" x="75.5" y="1036.5723">Error: Maximum attempts reached. Try again later.</text><polygon fill="#181818" points="875.5,1066.625,885.5,1070.625,875.5,1074.625,879.5,1070.625" style="stroke:#181818;stroke-width:1.0;"/><line style="stroke:#181818;stroke-width:1.0;" x1="397.5" x2="881.5" y1="1070.625" y2="1070.625"/><text fill="#000000" font-family="sans-serif" font-size="13" lengthAdjust="spacing" textLength="177" x="404.5" y="1065.8828">Log max attempts exceeded</text><polygon fill="#181818" points="408.5,1080.625,398.5,1084.625,408.5,1088.625,404.5,1084.625" style="stroke:#181818;stroke-width:1.0;"/><line style="stroke:#181818;stroke-width:1.0;stroke-dasharray:2.0,2.0;" x1="402.5" x2="886.5" y1="1084.625" y2="1084.625"/><line style="stroke:#000000;stroke-width:1.0;stroke-dasharray:2.0,2.0;" x1="30" x2="956.5" y1="1093.625" y2="1093.625"/><text fill="#000000" font-family="sans-serif" font-size="11" font-weight="bold" lengthAdjust="spacing" textLength="128" x="35" y="1104.2598">[Attempts within limit]</text><polygon fill="#181818" points="69.5,1124.8906,59.5,1128.8906,69.5,1132.8906,65.5,1128.8906" style="stroke:#181818;stroke-width:1.0;"/><line style="stroke:#181818;stroke-width:1.0;" x1="63.5" x2="396.5" y1="1128.8906" y2="1128.8906"/><text fill="#000000" font-family="sans-serif" font-size="13" lengthAdjust="spacing" textLength="184" x="75.5" y="1124.1484">Error: Invalid code. Try again.</text><line style="stroke:#000000;stroke-width:1.0;stroke-dasharray:2.0,2.0;" x1="20" x2="966.5" y1="1144.8906" y2="1144.8906"/><text fill="#000000" font-family="sans-serif" font-size="11" font-weight="bold" lengthAdjust="spacing" textLength="67" x="25" y="1155.5254">[Valid code]</text><polygon fill="#181818" points="768,1176.1563,778,1180.1563,768,1184.1563,772,1180.1563" style="stroke:#181818;stroke-width:1.0;"/><line style="stroke:#181818;stroke-width:1.0;" x1="397.5" x2="774" y1="1180.1563" y2="1180.1563"/><text fill="#000000" font-family="sans-serif" font-size="13" lengthAdjust="spacing" textLength="197" x="404.5" y="1175.4141">Update user status to "Verified"</text><polygon fill="#181818" points="875.5,1205.4668,885.5,1209.4668,875.5,1213.4668,879.5,1209.4668" style="stroke:#181818;stroke-width:1.0;"/><line style="stroke:#181818;stroke-width:1.0;" x1="397.5" x2="881.5" y1="1209.4668" y2="1209.4668"/><text fill="#000000" font-family="sans-serif" font-size="13" lengthAdjust="spacing" textLength="169" x="404.5" y="1204.7246">Log successful verification</text><polygon fill="#181818" points="69.5,1234.7773,59.5,1238.7773,69.5,1242.7773,65.5,1238.7773" style="stroke:#181818;stroke-width:1.0;"/><line style="stroke:#181818;stroke-width:1.0;" x1="63.5" x2="396.5" y1="1238.7773" y2="1238.7773"/><text fill="#000000" font-family="sans-serif" font-size="13" lengthAdjust="spacing" textLength="143" x="75.5" y="1234.0352">Verification successful</text><polygon fill="#181818" points="380.5,1271.0879,390.5,1275.0879,380.5,1279.0879,384.5,1275.0879" style="stroke:#181818;stroke-width:1.0;"/><line style="stroke:#181818;stroke-width:1.0;" x1="58.5" x2="386.5" y1="1275.0879" y2="1275.0879"/><text fill="#000000" font-family="sans-serif" font-size="13" lengthAdjust="spacing" textLength="130" x="65.5" y="1270.3457">Request code resend</text><polygon fill="#181818" points="768,1300.3984,778,1304.3984,768,1308.3984,772,1304.3984" style="stroke:#181818;stroke-width:1.0;"/><line style="stroke:#181818;stroke-width:1.0;" x1="402.5" x2="774" y1="1304.3984" y2="1304.3984"/><text fill="#000000" font-family="sans-serif" font-size="13" lengthAdjust="spacing" textLength="274" x="409.5" y="1299.6563">Check sliding window rate limit for resends</text><path d="M20,1319.3984 L82,1319.3984 L82,1326.709 L72,1336.709 L20,1336.709 L20,1319.3984 " fill="#EEEEEE" style="stroke:#000000;stroke-width:1.5;"/><rect fill="none" height="355.3262" style="stroke:#000000;stroke-width:1.5;" width="946.5" x="20" y="1319.3984"/><text fill="#000000" font-family="sans-serif" font-size="13" font-weight="bold" lengthAdjust="spacing" textLength="17" x="35" y="1332.9668">alt</text><text fill="#000000" font-family="sans-serif" font-size="11" font-weight="bold" lengthAdjust="spacing" textLength="133" x="97" y="1332.0332">[Resend limit exceeded]</text><polygon fill="#181818" points="69.5,1354.0195,59.5,1358.0195,69.5,1362.0195,65.5,1358.0195" style="stroke:#181818;stroke-width:1.0;"/><line style="stroke:#181818;stroke-width:1.0;" x1="63.5" x2="391.5" y1="1358.0195" y2="1358.0195"/><text fill="#000000" font-family="sans-serif" font-size="13" lengthAdjust="spacing" textLength="255" x="75.5" y="1353.2773">Error: Too many resends. Try again later.</text><polygon fill="#181818" points="875.5,1383.3301,885.5,1387.3301,875.5,1391.3301,879.5,1387.3301" style="stroke:#181818;stroke-width:1.0;"/><line style="stroke:#181818;stroke-width:1.0;" x1="397.5" x2="881.5" y1="1387.3301" y2="1387.3301"/><text fill="#000000" font-family="sans-serif" font-size="13" lengthAdjust="spacing" textLength="165" x="404.5" y="1382.5879">Log resend limit exceeded</text><line style="stroke:#000000;stroke-width:1.0;stroke-dasharray:2.0,2.0;" x1="20" x2="966.5" y1="1396.3301" y2="1396.3301"/><text fill="#000000" font-family="sans-serif" font-size="11" font-weight="bold" lengthAdjust="spacing" textLength="155" x="25" y="1406.9648">[Resend limit within limits]</text><line style="stroke:#181818;stroke-width:1.0;" x1="397.5" x2="439.5" y1="1431.5957" y2="1431.5957"/><line style="stroke:#181818;stroke-width:1.0;" x1="439.5" x2="439.5" y1="1431.5957" y2="1444.5957"/><line style="stroke:#181818;stroke-width:1.0;" x1="398.5" x2="439.5" y1="1444.5957" y2="1444.5957"/><polygon fill="#181818" points="408.5,1440.5957,398.5,1444.5957,408.5,1448.5957,404.5,1444.5957" style="stroke:#181818;stroke-width:1.0;"/><text fill="#000000" font-family="sans-serif" font-size="13" lengthAdjust="spacing" textLength="273" x="404.5" y="1426.8535">Generate new confirmation code and expiry</text><polygon fill="#181818" points="768,1469.9063,778,1473.9063,768,1477.9063,772,1473.9063" style="stroke:#181818;stroke-width:1.0;"/><line style="stroke:#181818;stroke-width:1.0;" x1="397.5" x2="774" y1="1473.9063" y2="1473.9063"/><text fill="#000000" font-family="sans-serif" font-size="13" lengthAdjust="spacing" textLength="148" x="404.5" y="1469.1641">Update code and expiry</text><polygon fill="#181818" points="667.5,1499.2168,677.5,1503.2168,667.5,1507.2168,671.5,1503.2168" style="stroke:#181818;stroke-width:1.0;"/><line style="stroke:#181818;stroke-width:1.0;" x1="397.5" x2="673.5" y1="1503.2168" y2="1503.2168"/><text fill="#000000" font-family="sans-serif" font-size="13" lengthAdjust="spacing" textLength="178" x="404.5" y="1498.4746">Send new confirmation code</text><path d="M30,1518.2168 L92,1518.2168 L92,1525.5273 L82,1535.5273 L30,1535.5273 L30,1518.2168 " fill="#EEEEEE" style="stroke:#000000;stroke-width:1.5;"/><rect fill="none" height="149.5078" style="stroke:#000000;stroke-width:1.5;" width="926.5" x="30" y="1518.2168"/><text fill="#000000" font-family="sans-serif" font-size="13" font-weight="bold" lengthAdjust="spacing" textLength="17" x="45" y="1531.7852">alt</text><text fill="#000000" font-family="sans-serif" font-size="11" font-weight="bold" lengthAdjust="spacing" textLength="115" x="107" y="1530.8516">[SMS Service failure]</text><polygon fill="#181818" points="69.5,1552.8379,59.5,1556.8379,69.5,1560.8379,65.5,1556.8379" style="stroke:#181818;stroke-width:1.0;"/><line style="stroke:#181818;stroke-width:1.0;" x1="63.5" x2="396.5" y1="1556.8379" y2="1556.8379"/><text fill="#000000" font-family="sans-serif" font-size="13" lengthAdjust="spacing" textLength="275" x="75.5" y="1552.0957">Error: Unable to resend SMS. Try again later.</text><polygon fill="#181818" points="875.5,1582.1484,885.5,1586.1484,875.5,1590.1484,879.5,1586.1484" style="stroke:#181818;stroke-width:1.0;"/><line style="stroke:#181818;stroke-width:1.0;" x1="397.5" x2="881.5" y1="1586.1484" y2="1586.1484"/><text fill="#000000" font-family="sans-serif" font-size="13" lengthAdjust="spacing" textLength="142" x="404.5" y="1581.4063">Log SMS resend failure</text><line style="stroke:#000000;stroke-width:1.0;stroke-dasharray:2.0,2.0;" x1="30" x2="956.5" y1="1595.1484" y2="1595.1484"/><text fill="#000000" font-family="sans-serif" font-size="11" font-weight="bold" lengthAdjust="spacing" textLength="141" x="35" y="1605.7832">[SMS resent successfully]</text><polygon fill="#181818" points="69.5,1626.4141,59.5,1630.4141,69.5,1634.4141,65.5,1630.4141" style="stroke:#181818;stroke-width:1.0;"/><line style="stroke:#181818;stroke-width:1.0;" x1="63.5" x2="683.5" y1="1630.4141" y2="1630.4141"/><text fill="#000000" font-family="sans-serif" font-size="13" lengthAdjust="spacing" textLength="192" x="75.5" y="1625.6719">Deliver new confirmation code</text><polygon fill="#181818" points="875.5,1655.7246,885.5,1659.7246,875.5,1663.7246,879.5,1659.7246" style="stroke:#181818;stroke-width:1.0;"/><line style="stroke:#181818;stroke-width:1.0;" x1="397.5" x2="881.5" y1="1659.7246" y2="1659.7246"/><text fill="#000000" font-family="sans-serif" font-size="13" lengthAdjust="spacing" textLength="169" x="404.5" y="1654.9824">Log SMS resend successful</text><polygon fill="#181818" points="1125,1699.0352,1135,1703.0352,1125,1707.0352,1129,1703.0352" style="stroke:#181818;stroke-width:1.0;"/><line style="stroke:#181818;stroke-width:1.0;" x1="397.5" x2="1131" y1="1703.0352" y2="1703.0352"/><text fill="#000000" font-family="sans-serif" font-size="13" lengthAdjust="spacing" textLength="228" x="404.5" y="1698.293">Backup verification data periodically</text><polygon fill="#181818" points="408.5,1728.3457,398.5,1732.3457,408.5,1736.3457,404.5,1732.3457" style="stroke:#181818;stroke-width:1.0;"/><line style="stroke:#181818;stroke-width:1.0;" x1="402.5" x2="1136" y1="1732.3457" y2="1732.3457"/><text fill="#000000" font-family="sans-serif" font-size="13" lengthAdjust="spacing" textLength="188" x="414.5" y="1727.6035">Acknowledge backup success</text><!--SRC=[ZLTBR-8m4BxdLuouT5TgEUw1mqhTFbQLjXTegxqQPmXM4oThEr3-_Suu8Ob37Y0XH3pppSFVV0D2kjp0kqKJ5S8u9LKXj8F5vcGTPWiG5kwBedVske4DceEIk0XF7eKJMs7xZ__aIQ9qCkppIyZFicW1enjuqSefaKAnppM2BhCj6h3bDbFMgbn7d2xS_UJCLh3XvowmZOHqwY0S-jpftHX_Y5J5V110xtAJ2HU9r57e0vk4S42l6eL3h-39c9m-vep3kbVy7TI03mX7pIwSzuqno1vJYrNQes7ENL_1mnxb9rWofh1mL3hEZs0OAbNK9E_4LQwRHu1V4Z76s9-D5VgMvv09VGA3_qgqpYxXpPn0949fgWZ-GgPqwT0k-p13BJ0JqNlLyoFVWKx6H-Ns5DD_iVru_fP_eqOVvCTTh19oaRdUARvZOWzzYN7Q3RyAHUKvbL6j8Ylwrct3DpGzPA-bEHKEmokwzP5kGUYuHhocEUm3IPK9Pui7r2vgF6zeK0ZFMnsK09h5FcemdwkpVQy15yvDsyFnRew9DPq3s0cLbgRjunXpthNOfWWk1yjv44INEYa5DCiXaA7MS7mx4R_3dU4YF9Cg558UMqg9rkxAD3q5E85pMz4Zfkf0mpfEfglodueyNu6kHeK_-KrYwSMGKD7OWTG2gNnYgm6Z2re_evDxi4pkk6PnnU2ApTnyEgXLomOAMqbGHJ5MBULENbWV-8a7gQTzY2rTeoMiAx410HgF7d8vfwvXPl2jnlfUoUXPhvjBkoZyXIOPCxwZVerNohell2ldNFkh-6g0hXDSyb1PcRLUXfYnvwQC3iz4Sjba_079vPT1LnhTAl3z6Q2hlvD5TDlTINpPChZTRUDNybxuXLqoaKcDNMbPJHOVQDHEORoOkvbssE3WVQHd_YK7Fpgd7Iy_PxqUqTYjqGjQcYTAXbDsfgsdWl5cWpz8hbxR_Fka1h9-biwnBrVepFBs42CScbhOe_66Vgm4sLqkwy6DMmruVqVrDkSODIPiXtRXOAnePWVExR_ftLStS7hxpMoE6gCVU79bD0lFEuyidfbrDzwkwvFkJDDrUTVhxNBiwdyBVDjhb3abU3hFKtNKf51RTcSUY2u22dgIn_I8cn0uDRoybvywFvB-9mZR2gSk8VeF]--></g></svg>