<?xml version="1.0" encoding="us-ascii" standalone="no"?><svg xmlns="http://www.w3.org/2000/svg" xmlns:xlink="http://www.w3.org/1999/xlink" contentStyleType="text/css" height="384px" preserveAspectRatio="none" style="width:1017px;height:384px;background:#FFFFFF;" version="1.1" viewBox="0 0 1017 384" width="1017px" zoomAndPan="magnify"><defs/><g><!--class Users--><g id="elem_Users"><rect codeLine="1" fill="#F1F1F1" height="130.4414" id="Users" rx="2.5" ry="2.5" style="stroke:#181818;stroke-width:0.5;" width="310" x="219.5" y="7"/><ellipse cx="351.25" cy="23" fill="#ADD1B2" rx="11" ry="11" style="stroke:#181818;stroke-width:1.0;"/><path d="M354.8643,29.5 L347.1445,29.5 L347.1445,17.1069 L354.8643,17.1069 L354.8643,19.2651 L349.5933,19.2651 L349.5933,21.938 L354.3662,21.938 L354.3662,24.0962 L349.5933,24.0962 L349.5933,27.3418 L354.8643,27.3418 Z " fill="#000000"/><text fill="#000000" font-family="sans-serif" font-size="14" lengthAdjust="spacing" textLength="38" x="371.75" y="28.291">Users</text><line style="stroke:#181818;stroke-width:0.5;" x1="220.5" x2="528.5" y1="39" y2="39"/><ellipse cx="230.5" cy="52.7441" fill="#000000" rx="3" ry="3" style="stroke:#000000;stroke-width:1.0;"/><text fill="#000000" font-family="sans-serif" font-size="14" lengthAdjust="spacing" textLength="96" x="239.5" y="56.5352">user_id : UUID</text><ellipse cx="230.5" cy="69.2324" fill="#000000" rx="3" ry="3" style="stroke:#000000;stroke-width:1.0;"/><text fill="#000000" font-family="sans-serif" font-size="14" lengthAdjust="spacing" textLength="158" x="239.5" y="73.0234">phone_number : String</text><ellipse cx="230.5" cy="85.7207" fill="#000000" rx="3" ry="3" style="stroke:#000000;stroke-width:1.0;"/><text fill="#000000" font-family="sans-serif" font-size="14" lengthAdjust="spacing" textLength="284" x="239.5" y="89.5117">status : Enum [Pending, Verified, Blocked]</text><ellipse cx="230.5" cy="102.209" fill="#000000" rx="3" ry="3" style="stroke:#000000;stroke-width:1.0;"/><text fill="#000000" font-family="sans-serif" font-size="14" lengthAdjust="spacing" textLength="148" x="239.5" y="106">created_at : DateTime</text><ellipse cx="230.5" cy="118.6973" fill="#000000" rx="3" ry="3" style="stroke:#000000;stroke-width:1.0;"/><text fill="#000000" font-family="sans-serif" font-size="14" lengthAdjust="spacing" textLength="154" x="239.5" y="122.4883">updated_at : DateTime</text><line style="stroke:#181818;stroke-width:0.5;" x1="220.5" x2="528.5" y1="129.4414" y2="129.4414"/></g><!--class VerificationCodes--><g id="elem_VerificationCodes"><rect codeLine="9" fill="#F1F1F1" height="163.418" id="VerificationCodes" rx="2.5" ry="2.5" style="stroke:#181818;stroke-width:0.5;" width="195" x="7" y="214.44"/><ellipse cx="40.9" cy="230.44" fill="#ADD1B2" rx="11" ry="11" style="stroke:#181818;stroke-width:1.0;"/><path d="M44.5143,236.94 L36.7945,236.94 L36.7945,224.5469 L44.5143,224.5469 L44.5143,226.7051 L39.2433,226.7051 L39.2433,229.378 L44.0162,229.378 L44.0162,231.5362 L39.2433,231.5362 L39.2433,234.7818 L44.5143,234.7818 Z " fill="#000000"/><text fill="#000000" font-family="sans-serif" font-size="14" lengthAdjust="spacing" textLength="121" x="59.1" y="235.731">VerificationCodes</text><line style="stroke:#181818;stroke-width:0.5;" x1="8" x2="201" y1="246.44" y2="246.44"/><ellipse cx="18" cy="260.1841" fill="#000000" rx="3" ry="3" style="stroke:#000000;stroke-width:1.0;"/><text fill="#000000" font-family="sans-serif" font-size="14" lengthAdjust="spacing" textLength="99" x="27" y="263.9752">code_id : UUID</text><ellipse cx="18" cy="276.6724" fill="#000000" rx="3" ry="3" style="stroke:#000000;stroke-width:1.0;"/><text fill="#000000" font-family="sans-serif" font-size="14" lengthAdjust="spacing" textLength="96" x="27" y="280.4634">user_id : UUID</text><ellipse cx="18" cy="293.1607" fill="#000000" rx="3" ry="3" style="stroke:#000000;stroke-width:1.0;"/><text fill="#000000" font-family="sans-serif" font-size="14" lengthAdjust="spacing" textLength="169" x="27" y="296.9517">verification_code : String</text><ellipse cx="18" cy="309.649" fill="#000000" rx="3" ry="3" style="stroke:#000000;stroke-width:1.0;"/><text fill="#000000" font-family="sans-serif" font-size="14" lengthAdjust="spacing" textLength="148" x="27" y="313.44">expires_at : DateTime</text><ellipse cx="18" cy="326.1373" fill="#000000" rx="3" ry="3" style="stroke:#000000;stroke-width:1.0;"/><text fill="#000000" font-family="sans-serif" font-size="14" lengthAdjust="spacing" textLength="121" x="27" y="329.9283">attempts : Integer</text><ellipse cx="18" cy="342.6255" fill="#000000" rx="3" ry="3" style="stroke:#000000;stroke-width:1.0;"/><text fill="#000000" font-family="sans-serif" font-size="14" lengthAdjust="spacing" textLength="124" x="27" y="346.4166">is_active : Boolean</text><ellipse cx="18" cy="359.1138" fill="#000000" rx="3" ry="3" style="stroke:#000000;stroke-width:1.0;"/><text fill="#000000" font-family="sans-serif" font-size="14" lengthAdjust="spacing" textLength="148" x="27" y="362.9048">created_at : DateTime</text><line style="stroke:#181818;stroke-width:0.5;" x1="8" x2="201" y1="369.858" y2="369.858"/></g><!--class RateLimits--><g id="elem_RateLimits"><rect codeLine="19" fill="#F1F1F1" height="130.4414" id="RateLimits" rx="2.5" ry="2.5" style="stroke:#181818;stroke-width:0.5;" width="275" x="237" y="230.93"/><ellipse cx="335.25" cy="246.93" fill="#ADD1B2" rx="11" ry="11" style="stroke:#181818;stroke-width:1.0;"/><path d="M338.8643,253.43 L331.1445,253.43 L331.1445,241.0369 L338.8643,241.0369 L338.8643,243.1951 L333.5933,243.1951 L333.5933,245.868 L338.3662,245.868 L338.3662,248.0262 L333.5933,248.0262 L333.5933,251.2718 L338.8643,251.2718 Z " fill="#000000"/><text fill="#000000" font-family="sans-serif" font-size="14" lengthAdjust="spacing" textLength="70" x="355.75" y="252.221">RateLimits</text><line style="stroke:#181818;stroke-width:0.5;" x1="238" x2="511" y1="262.93" y2="262.93"/><ellipse cx="248" cy="276.6741" fill="#000000" rx="3" ry="3" style="stroke:#000000;stroke-width:1.0;"/><text fill="#000000" font-family="sans-serif" font-size="14" lengthAdjust="spacing" textLength="130" x="257" y="280.4652">rate_limit_id : UUID</text><ellipse cx="248" cy="293.1624" fill="#000000" rx="3" ry="3" style="stroke:#000000;stroke-width:1.0;"/><text fill="#000000" font-family="sans-serif" font-size="14" lengthAdjust="spacing" textLength="96" x="257" y="296.9534">user_id : UUID</text><ellipse cx="248" cy="309.6507" fill="#000000" rx="3" ry="3" style="stroke:#000000;stroke-width:1.0;"/><text fill="#000000" font-family="sans-serif" font-size="14" lengthAdjust="spacing" textLength="249" x="257" y="313.4417">action_type : Enum [Submit, Resend]</text><ellipse cx="248" cy="326.139" fill="#000000" rx="3" ry="3" style="stroke:#000000;stroke-width:1.0;"/><text fill="#000000" font-family="sans-serif" font-size="14" lengthAdjust="spacing" textLength="168" x="257" y="329.93">window_start : DateTime</text><ellipse cx="248" cy="342.6273" fill="#000000" rx="3" ry="3" style="stroke:#000000;stroke-width:1.0;"/><text fill="#000000" font-family="sans-serif" font-size="14" lengthAdjust="spacing" textLength="159" x="257" y="346.4183">request_count : Integer</text><line style="stroke:#181818;stroke-width:0.5;" x1="238" x2="511" y1="353.3714" y2="353.3714"/></g><!--class Logs--><g id="elem_Logs"><rect codeLine="27" fill="#F1F1F1" height="130.4414" id="Logs" rx="2.5" ry="2.5" style="stroke:#181818;stroke-width:0.5;" width="464" x="546.5" y="230.93"/><ellipse cx="758.25" cy="246.93" fill="#ADD1B2" rx="11" ry="11" style="stroke:#181818;stroke-width:1.0;"/><path d="M761.8643,253.43 L754.1445,253.43 L754.1445,241.0369 L761.8643,241.0369 L761.8643,243.1951 L756.5933,243.1951 L756.5933,245.868 L761.3662,245.868 L761.3662,248.0262 L756.5933,248.0262 L756.5933,251.2718 L761.8643,251.2718 Z " fill="#000000"/><text fill="#000000" font-family="sans-serif" font-size="14" lengthAdjust="spacing" textLength="32" x="778.75" y="252.221">Logs</text><line style="stroke:#181818;stroke-width:0.5;" x1="547.5" x2="1009.5" y1="262.93" y2="262.93"/><ellipse cx="557.5" cy="276.6741" fill="#000000" rx="3" ry="3" style="stroke:#000000;stroke-width:1.0;"/><text fill="#000000" font-family="sans-serif" font-size="14" lengthAdjust="spacing" textLength="88" x="566.5" y="280.4652">log_id : UUID</text><ellipse cx="557.5" cy="293.1624" fill="#000000" rx="3" ry="3" style="stroke:#000000;stroke-width:1.0;"/><text fill="#000000" font-family="sans-serif" font-size="14" lengthAdjust="spacing" textLength="96" x="566.5" y="296.9534">user_id : UUID</text><ellipse cx="557.5" cy="309.6507" fill="#000000" rx="3" ry="3" style="stroke:#000000;stroke-width:1.0;"/><text fill="#000000" font-family="sans-serif" font-size="14" lengthAdjust="spacing" textLength="438" x="566.5" y="313.4417">event_type : Enum [CodeSent, CodeVerified, RateLimitExceeded]</text><ellipse cx="557.5" cy="326.139" fill="#000000" rx="3" ry="3" style="stroke:#000000;stroke-width:1.0;"/><text fill="#000000" font-family="sans-serif" font-size="14" lengthAdjust="spacing" textLength="113" x="566.5" y="329.93">message : String</text><ellipse cx="557.5" cy="342.6273" fill="#000000" rx="3" ry="3" style="stroke:#000000;stroke-width:1.0;"/><text fill="#000000" font-family="sans-serif" font-size="14" lengthAdjust="spacing" textLength="148" x="566.5" y="346.4183">created_at : DateTime</text><line style="stroke:#181818;stroke-width:0.5;" x1="547.5" x2="1009.5" y1="353.3714" y2="353.3714"/></g><!--class Backup--><g id="elem_Backup"><rect codeLine="35" fill="#F1F1F1" height="113.9531" id="Backup" rx="2.5" ry="2.5" style="stroke:#181818;stroke-width:0.5;" width="252" x="564.5" y="15.24"/><ellipse cx="661.75" cy="31.24" fill="#ADD1B2" rx="11" ry="11" style="stroke:#181818;stroke-width:1.0;"/><path d="M665.3643,37.74 L657.6445,37.74 L657.6445,25.3469 L665.3643,25.3469 L665.3643,27.5051 L660.0933,27.5051 L660.0933,30.178 L664.8662,30.178 L664.8662,32.3362 L660.0933,32.3362 L660.0933,35.5818 L665.3643,35.5818 Z " fill="#000000"/><text fill="#000000" font-family="sans-serif" font-size="14" lengthAdjust="spacing" textLength="49" x="682.25" y="36.531">Backup</text><line style="stroke:#181818;stroke-width:0.5;" x1="565.5" x2="815.5" y1="47.24" y2="47.24"/><ellipse cx="575.5" cy="60.9841" fill="#000000" rx="3" ry="3" style="stroke:#000000;stroke-width:1.0;"/><text fill="#000000" font-family="sans-serif" font-size="14" lengthAdjust="spacing" textLength="116" x="584.5" y="64.7752">backup_id : UUID</text><ellipse cx="575.5" cy="77.4724" fill="#000000" rx="3" ry="3" style="stroke:#000000;stroke-width:1.0;"/><text fill="#000000" font-family="sans-serif" font-size="14" lengthAdjust="spacing" textLength="73" x="584.5" y="81.2634">data : Text</text><ellipse cx="575.5" cy="93.9607" fill="#000000" rx="3" ry="3" style="stroke:#000000;stroke-width:1.0;"/><text fill="#000000" font-family="sans-serif" font-size="14" lengthAdjust="spacing" textLength="148" x="584.5" y="97.7517">created_at : DateTime</text><ellipse cx="575.5" cy="110.449" fill="#000000" rx="3" ry="3" style="stroke:#000000;stroke-width:1.0;"/><text fill="#000000" font-family="sans-serif" font-size="14" lengthAdjust="spacing" textLength="226" x="584.5" y="114.24">status : Enum [Successful, Failed]</text><line style="stroke:#181818;stroke-width:0.5;" x1="565.5" x2="815.5" y1="121.1931" y2="121.1931"/></g><!--link Users to VerificationCodes--><g id="link_Users_VerificationCodes"><path codeLine="42" d="M289.8599,142.79 C260.5899,166.85 247.0746,177.9593 216.2746,203.2793 " fill="none" id="Users-VerificationCodes" style="stroke:#181818;stroke-width:1.0;"/><line style="stroke:#181818;stroke-width:1.0;" x1="290.4099" x2="295.49" y1="137.16" y2="143.3401"/><line style="stroke:#181818;stroke-width:1.0;" x1="288.0924" x2="293.1725" y1="139.065" y2="145.2451"/><line style="stroke:#181818;stroke-width:1.0;" x1="289.8599" x2="296.04" y1="142.79" y2="137.71"/><line style="stroke:#181818;stroke-width:1.0;" x1="208.5498" x2="206.1802" y1="209.6297" y2="219.3449"/><line style="stroke:#181818;stroke-width:1.0;" x1="208.5498" x2="198.5598" y1="209.6297" y2="210.0751"/><line style="stroke:#181818;stroke-width:1.0;" x1="208.5498" x2="202.37" y1="209.6297" y2="214.71"/><ellipse cx="213.1847" cy="205.8195" fill="none" rx="4" ry="4" style="stroke:#181818;stroke-width:1.0;"/><text fill="#000000" font-family="sans-serif" font-size="13" lengthAdjust="spacing" textLength="22" x="257.5" y="181.0084">has</text></g><!--link Users to RateLimits--><g id="link_Users_RateLimits"><path codeLine="43" d="M374.5,145.71 C374.5,174.89 374.5,183.3 374.5,212.5 " fill="none" id="Users-RateLimits" style="stroke:#181818;stroke-width:1.0;"/><line style="stroke:#181818;stroke-width:1.0;" x1="370.5" x2="378.5" y1="141.71" y2="141.71"/><line style="stroke:#181818;stroke-width:1.0;" x1="370.5" x2="378.5" y1="144.71" y2="144.71"/><line style="stroke:#181818;stroke-width:1.0;" x1="374.5" x2="374.5" y1="145.71" y2="137.71"/><line style="stroke:#181818;stroke-width:1.0;" x1="374.5" x2="380.5" y1="222.5" y2="230.5"/><line style="stroke:#181818;stroke-width:1.0;" x1="374.5" x2="368.5" y1="222.5" y2="230.5"/><line style="stroke:#181818;stroke-width:1.0;" x1="374.5" x2="374.5" y1="222.5" y2="230.5"/><ellipse cx="374.5" cy="216.5" fill="none" rx="4" ry="4" style="stroke:#181818;stroke-width:1.0;"/><text fill="#000000" font-family="sans-serif" font-size="13" lengthAdjust="spacing" textLength="22" x="375.5" y="181.0084">has</text></g><!--link Users to Logs--><g id="link_Users_Logs"><path codeLine="44" d="M499.182,141.7112 C552.292,170.8812 592.0932,192.7545 645.1832,221.9145 " fill="none" id="Users-Logs" style="stroke:#181818;stroke-width:1.0;"/><line style="stroke:#181818;stroke-width:1.0;" x1="493.7504" x2="497.6016" y1="143.2916" y2="136.2796"/><line style="stroke:#181818;stroke-width:1.0;" x1="496.3799" x2="500.2311" y1="144.7358" y2="137.7238"/><line style="stroke:#181818;stroke-width:1.0;" x1="499.182" x2="492.17" y1="141.7112" y2="137.86"/><line style="stroke:#181818;stroke-width:1.0;" x1="653.9481" x2="663.8485" y1="226.7287" y2="225.3211"/><line style="stroke:#181818;stroke-width:1.0;" x1="653.9481" x2="658.0715" y1="226.7287" y2="235.8389"/><line style="stroke:#181818;stroke-width:1.0;" x1="653.9481" x2="660.96" y1="226.7287" y2="230.58"/><ellipse cx="648.6891" cy="223.8401" fill="none" rx="4" ry="4" style="stroke:#181818;stroke-width:1.0;"/><text fill="#000000" font-family="sans-serif" font-size="13" lengthAdjust="spacing" textLength="61" x="577.5" y="181.0084">generates</text></g><!--SRC=[ZLFBRi8m4Bpp5HR7Alm0nnGg8N6e2FHILP6nbs2HsAczvY7eltSD0VE8MdAoPxpspEu4D2hSiPa3wzY-m-XxOPvskPAipsQpqQ01wwNHa6jVpS4Iaw5LkcWuXnoz8tH8FFjy1os9JDW7MBLG81EMbaQiG7ur1S82Hv0vHoeQq7AgAZY_NiiMxgVJWPFMqwM2epBwrKY8kWNj7dItcbbVtP67idj7iAsL1TSga2D2LMFmEz881TY6K7HUe5g7sr9ZIk3wJx_HquIWiQeKHZEMeBmCs7EMmija1dSrN0QH-JdL9sm2ZaPoRlv6QMasEGtDjhYpyEt18NN5Qxoo6CMEJH5bbgPuJX-igVnMNfXUHcZ2mYg6vTADuLO0o1YR2fpZnSEm_kjkoiNArnV9y-FsGI2bZXCoXIq-aTAxo6TU21Aty6N2thWgWsOISFgl3eTUp-nRWjjdtILttTjZLrbevO_j9wO03I4ahliB]--></g></svg>