<?xml version="1.0" encoding="us-ascii" standalone="no"?><svg xmlns="http://www.w3.org/2000/svg" xmlns:xlink="http://www.w3.org/1999/xlink" contentStyleType="text/css" height="1117px" preserveAspectRatio="none" style="width:818px;height:1117px;background:#FFFFFF;" version="1.1" viewBox="0 0 818 1117" width="818px" zoomAndPan="magnify"><defs/><g><rect fill="#FFFFFF" height="95.9316" style="stroke:#181818;stroke-width:1.0;" width="10" x="237.5" y="112.7988"/><rect fill="#FFFFFF" height="159.5527" style="stroke:#181818;stroke-width:1.0;" width="10" x="237.5" y="858.4961"/><rect fill="#FFFFFF" height="29.3105" style="stroke:#181818;stroke-width:1.0;" width="10" x="534.5" y="396.2383"/><rect fill="none" height="263.4395" style="stroke:#000000;stroke-width:1.5;" width="801.5" x="10" y="170.1094"/><rect fill="none" height="281.7051" style="stroke:#000000;stroke-width:1.5;" width="801.5" x="10" y="548.4805"/><line style="stroke:#181818;stroke-width:0.5;stroke-dasharray:5.0,5.0;" x1="38" x2="38" y1="81.4883" y2="1036.0488"/><line style="stroke:#181818;stroke-width:0.5;stroke-dasharray:5.0,5.0;" x1="242.5" x2="242.5" y1="81.4883" y2="1036.0488"/><line style="stroke:#181818;stroke-width:0.5;stroke-dasharray:5.0,5.0;" x1="539.5" x2="539.5" y1="81.4883" y2="1036.0488"/><line style="stroke:#181818;stroke-width:0.5;stroke-dasharray:5.0,5.0;" x1="634.5" x2="634.5" y1="81.4883" y2="1036.0488"/><line style="stroke:#181818;stroke-width:0.5;stroke-dasharray:5.0,5.0;" x1="742.5" x2="742.5" y1="81.4883" y2="1036.0488"/><text fill="#000000" font-family="sans-serif" font-size="14" lengthAdjust="spacing" textLength="31" x="20" y="78.5352">User</text><ellipse cx="38.5" cy="13.5" fill="#E2E2F0" rx="8" ry="8" style="stroke:#181818;stroke-width:0.5;"/><path d="M38.5,21.5 L38.5,48.5 M25.5,29.5 L51.5,29.5 M38.5,48.5 L25.5,63.5 M38.5,48.5 L51.5,63.5 " fill="none" style="stroke:#181818;stroke-width:0.5;"/><text fill="#000000" font-family="sans-serif" font-size="14" lengthAdjust="spacing" textLength="31" x="20" y="1048.584">User</text><ellipse cx="38.5" cy="1060.0371" fill="#E2E2F0" rx="8" ry="8" style="stroke:#181818;stroke-width:0.5;"/><path d="M38.5,1068.0371 L38.5,1095.0371 M25.5,1076.0371 L51.5,1076.0371 M38.5,1095.0371 L25.5,1110.0371 M38.5,1095.0371 L51.5,1110.0371 " fill="none" style="stroke:#181818;stroke-width:0.5;"/><rect fill="#E2E2F0" height="30.4883" rx="2.5" ry="2.5" style="stroke:#181818;stroke-width:0.5;" width="62" x="211.5" y="50"/><text fill="#000000" font-family="sans-serif" font-size="14" lengthAdjust="spacing" textLength="48" x="218.5" y="70.5352">System</text><rect fill="#E2E2F0" height="30.4883" rx="2.5" ry="2.5" style="stroke:#181818;stroke-width:0.5;" width="62" x="211.5" y="1035.0488"/><text fill="#000000" font-family="sans-serif" font-size="14" lengthAdjust="spacing" textLength="48" x="218.5" y="1055.584">System</text><rect fill="#E2E2F0" height="30.4883" rx="2.5" ry="2.5" style="stroke:#181818;stroke-width:0.5;" width="94" x="492.5" y="50"/><text fill="#000000" font-family="sans-serif" font-size="14" lengthAdjust="spacing" textLength="80" x="499.5" y="70.5352">SMS Service</text><rect fill="#E2E2F0" height="30.4883" rx="2.5" ry="2.5" style="stroke:#181818;stroke-width:0.5;" width="94" x="492.5" y="1035.0488"/><text fill="#000000" font-family="sans-serif" font-size="14" lengthAdjust="spacing" textLength="80" x="499.5" y="1055.584">SMS Service</text><rect fill="#E2E2F0" height="30.4883" rx="2.5" ry="2.5" style="stroke:#181818;stroke-width:0.5;" width="77" x="596.5" y="50"/><text fill="#000000" font-family="sans-serif" font-size="14" lengthAdjust="spacing" textLength="63" x="603.5" y="70.5352">Database</text><rect fill="#E2E2F0" height="30.4883" rx="2.5" ry="2.5" style="stroke:#181818;stroke-width:0.5;" width="77" x="596.5" y="1035.0488"/><text fill="#000000" font-family="sans-serif" font-size="14" lengthAdjust="spacing" textLength="63" x="603.5" y="1055.584">Database</text><rect fill="#E2E2F0" height="30.4883" rx="2.5" ry="2.5" style="stroke:#181818;stroke-width:0.5;" width="118" x="683.5" y="50"/><text fill="#000000" font-family="sans-serif" font-size="14" lengthAdjust="spacing" textLength="104" x="690.5" y="70.5352">LoggingService</text><rect fill="#E2E2F0" height="30.4883" rx="2.5" ry="2.5" style="stroke:#181818;stroke-width:0.5;" width="118" x="683.5" y="1035.0488"/><text fill="#000000" font-family="sans-serif" font-size="14" lengthAdjust="spacing" textLength="104" x="690.5" y="1055.584">LoggingService</text><rect fill="#FFFFFF" height="95.9316" style="stroke:#181818;stroke-width:1.0;" width="10" x="237.5" y="112.7988"/><rect fill="#FFFFFF" height="159.5527" style="stroke:#181818;stroke-width:1.0;" width="10" x="237.5" y="858.4961"/><rect fill="#FFFFFF" height="29.3105" style="stroke:#181818;stroke-width:1.0;" width="10" x="534.5" y="396.2383"/><polygon fill="#181818" points="225.5,108.7988,235.5,112.7988,225.5,116.7988,229.5,112.7988" style="stroke:#181818;stroke-width:1.0;"/><line style="stroke:#181818;stroke-width:1.0;" x1="38.5" x2="231.5" y1="112.7988" y2="112.7988"/><text fill="#000000" font-family="sans-serif" font-size="13" lengthAdjust="spacing" textLength="139" x="45.5" y="108.0566">Submit phone number</text><line style="stroke:#181818;stroke-width:1.0;" x1="247.5" x2="289.5" y1="142.1094" y2="142.1094"/><line style="stroke:#181818;stroke-width:1.0;" x1="289.5" x2="289.5" y1="142.1094" y2="155.1094"/><line style="stroke:#181818;stroke-width:1.0;" x1="248.5" x2="289.5" y1="155.1094" y2="155.1094"/><polygon fill="#181818" points="258.5,151.1094,248.5,155.1094,258.5,159.1094,254.5,155.1094" style="stroke:#181818;stroke-width:1.0;"/><text fill="#000000" font-family="sans-serif" font-size="13" lengthAdjust="spacing" textLength="191" x="254.5" y="137.3672">Validate phone number format</text><path d="M10,170.1094 L72,170.1094 L72,177.4199 L62,187.4199 L10,187.4199 L10,170.1094 " fill="#EEEEEE" style="stroke:#000000;stroke-width:1.5;"/><rect fill="none" height="263.4395" style="stroke:#000000;stroke-width:1.5;" width="801.5" x="10" y="170.1094"/><text fill="#000000" font-family="sans-serif" font-size="13" font-weight="bold" lengthAdjust="spacing" textLength="17" x="25" y="183.6777">alt</text><text fill="#000000" font-family="sans-serif" font-size="11" font-weight="bold" lengthAdjust="spacing" textLength="132" x="87" y="182.7441">[Invalid phone number]</text><polygon fill="#181818" points="49.5,204.7305,39.5,208.7305,49.5,212.7305,45.5,208.7305" style="stroke:#181818;stroke-width:1.0;"/><line style="stroke:#181818;stroke-width:1.0;" x1="43.5" x2="241.5" y1="208.7305" y2="208.7305"/><text fill="#000000" font-family="sans-serif" font-size="13" lengthAdjust="spacing" textLength="175" x="55.5" y="203.9883">Error: Invalid phone number</text><line style="stroke:#000000;stroke-width:1.0;stroke-dasharray:2.0,2.0;" x1="10" x2="811.5" y1="217.7305" y2="217.7305"/><text fill="#000000" font-family="sans-serif" font-size="11" font-weight="bold" lengthAdjust="spacing" textLength="122" x="15" y="228.3652">[Valid phone number]</text><line style="stroke:#181818;stroke-width:1.0;" x1="242.5" x2="284.5" y1="252.9961" y2="252.9961"/><line style="stroke:#181818;stroke-width:1.0;" x1="284.5" x2="284.5" y1="252.9961" y2="265.9961"/><line style="stroke:#181818;stroke-width:1.0;" x1="243.5" x2="284.5" y1="265.9961" y2="265.9961"/><polygon fill="#181818" points="253.5,261.9961,243.5,265.9961,253.5,269.9961,249.5,265.9961" style="stroke:#181818;stroke-width:1.0;"/><text fill="#000000" font-family="sans-serif" font-size="13" lengthAdjust="spacing" textLength="223" x="249.5" y="248.2539">Generate 6-digit confirmation code</text><line style="stroke:#181818;stroke-width:1.0;" x1="242.5" x2="284.5" y1="295.3066" y2="295.3066"/><line style="stroke:#181818;stroke-width:1.0;" x1="284.5" x2="284.5" y1="295.3066" y2="308.3066"/><line style="stroke:#181818;stroke-width:1.0;" x1="243.5" x2="284.5" y1="308.3066" y2="308.3066"/><polygon fill="#181818" points="253.5,304.3066,243.5,308.3066,253.5,312.3066,249.5,308.3066" style="stroke:#181818;stroke-width:1.0;"/><text fill="#000000" font-family="sans-serif" font-size="13" lengthAdjust="spacing" textLength="169" x="249.5" y="290.5645">Generate expiry timestamp</text><polygon fill="#181818" points="623,333.6172,633,337.6172,623,341.6172,627,337.6172" style="stroke:#181818;stroke-width:1.0;"/><line style="stroke:#181818;stroke-width:1.0;" x1="242.5" x2="629" y1="337.6172" y2="337.6172"/><text fill="#000000" font-family="sans-serif" font-size="13" lengthAdjust="spacing" textLength="239" x="249.5" y="332.875">Store phone number, code, and expiry</text><polygon fill="#181818" points="730.5,362.9277,740.5,366.9277,730.5,370.9277,734.5,366.9277" style="stroke:#181818;stroke-width:1.0;"/><line style="stroke:#181818;stroke-width:1.0;" x1="242.5" x2="736.5" y1="366.9277" y2="366.9277"/><text fill="#000000" font-family="sans-serif" font-size="13" lengthAdjust="spacing" textLength="166" x="249.5" y="362.1855">Log code generation event</text><polygon fill="#181818" points="522.5,392.2383,532.5,396.2383,522.5,400.2383,526.5,396.2383" style="stroke:#181818;stroke-width:1.0;"/><line style="stroke:#181818;stroke-width:1.0;" x1="242.5" x2="528.5" y1="396.2383" y2="396.2383"/><text fill="#000000" font-family="sans-serif" font-size="13" lengthAdjust="spacing" textLength="200" x="249.5" y="391.4961">Send confirmation code via SMS</text><polygon fill="#181818" points="49.5,421.5488,39.5,425.5488,49.5,429.5488,45.5,425.5488" style="stroke:#181818;stroke-width:1.0;"/><line style="stroke:#181818;stroke-width:1.0;" x1="43.5" x2="538.5" y1="425.5488" y2="425.5488"/><text fill="#000000" font-family="sans-serif" font-size="13" lengthAdjust="spacing" textLength="163" x="55.5" y="420.8066">Deliver confirmation code</text><polygon fill="#181818" points="230.5,457.8594,240.5,461.8594,230.5,465.8594,234.5,461.8594" style="stroke:#181818;stroke-width:1.0;"/><line style="stroke:#181818;stroke-width:1.0;" x1="38.5" x2="236.5" y1="461.8594" y2="461.8594"/><text fill="#000000" font-family="sans-serif" font-size="13" lengthAdjust="spacing" textLength="151" x="45.5" y="457.1172">Enter confirmation code</text><polygon fill="#181818" points="623,487.1699,633,491.1699,623,495.1699,627,491.1699" style="stroke:#181818;stroke-width:1.0;"/><line style="stroke:#181818;stroke-width:1.0;" x1="242.5" x2="629" y1="491.1699" y2="491.1699"/><text fill="#000000" font-family="sans-serif" font-size="13" lengthAdjust="spacing" textLength="182" x="249.5" y="486.4277">Fetch stored code and expiry</text><line style="stroke:#181818;stroke-width:1.0;" x1="242.5" x2="284.5" y1="520.4805" y2="520.4805"/><line style="stroke:#181818;stroke-width:1.0;" x1="284.5" x2="284.5" y1="520.4805" y2="533.4805"/><line style="stroke:#181818;stroke-width:1.0;" x1="243.5" x2="284.5" y1="533.4805" y2="533.4805"/><polygon fill="#181818" points="253.5,529.4805,243.5,533.4805,253.5,537.4805,249.5,533.4805" style="stroke:#181818;stroke-width:1.0;"/><text fill="#000000" font-family="sans-serif" font-size="13" lengthAdjust="spacing" textLength="123" x="249.5" y="515.7383">Check code validity</text><path d="M10,548.4805 L72,548.4805 L72,555.791 L62,565.791 L10,565.791 L10,548.4805 " fill="#EEEEEE" style="stroke:#000000;stroke-width:1.5;"/><rect fill="none" height="281.7051" style="stroke:#000000;stroke-width:1.5;" width="801.5" x="10" y="548.4805"/><text fill="#000000" font-family="sans-serif" font-size="13" font-weight="bold" lengthAdjust="spacing" textLength="17" x="25" y="562.0488">alt</text><text fill="#000000" font-family="sans-serif" font-size="11" font-weight="bold" lengthAdjust="spacing" textLength="81" x="87" y="561.1152">[Code expired]</text><polygon fill="#181818" points="49.5,583.1016,39.5,587.1016,49.5,591.1016,45.5,587.1016" style="stroke:#181818;stroke-width:1.0;"/><line style="stroke:#181818;stroke-width:1.0;" x1="43.5" x2="241.5" y1="587.1016" y2="587.1016"/><text fill="#000000" font-family="sans-serif" font-size="13" lengthAdjust="spacing" textLength="121" x="55.5" y="582.3594">Error: Code expired</text><polygon fill="#181818" points="730.5,612.4121,740.5,616.4121,730.5,620.4121,734.5,616.4121" style="stroke:#181818;stroke-width:1.0;"/><line style="stroke:#181818;stroke-width:1.0;" x1="242.5" x2="736.5" y1="616.4121" y2="616.4121"/><text fill="#000000" font-family="sans-serif" font-size="13" lengthAdjust="spacing" textLength="174" x="249.5" y="611.6699">Log failed attempt (expired)</text><line style="stroke:#000000;stroke-width:1.0;stroke-dasharray:2.0,2.0;" x1="10" x2="811.5" y1="625.4121" y2="625.4121"/><text fill="#000000" font-family="sans-serif" font-size="11" font-weight="bold" lengthAdjust="spacing" textLength="77" x="15" y="636.0469">[Invalid code]</text><polygon fill="#181818" points="49.5,656.6777,39.5,660.6777,49.5,664.6777,45.5,660.6777" style="stroke:#181818;stroke-width:1.0;"/><line style="stroke:#181818;stroke-width:1.0;" x1="43.5" x2="241.5" y1="660.6777" y2="660.6777"/><text fill="#000000" font-family="sans-serif" font-size="13" lengthAdjust="spacing" textLength="114" x="55.5" y="655.9355">Error: Invalid code</text><polygon fill="#181818" points="623,685.9883,633,689.9883,623,693.9883,627,689.9883" style="stroke:#181818;stroke-width:1.0;"/><line style="stroke:#181818;stroke-width:1.0;" x1="242.5" x2="629" y1="689.9883" y2="689.9883"/><text fill="#000000" font-family="sans-serif" font-size="13" lengthAdjust="spacing" textLength="162" x="249.5" y="685.2461">Increment failed attempts</text><polygon fill="#181818" points="730.5,715.2988,740.5,719.2988,730.5,723.2988,734.5,719.2988" style="stroke:#181818;stroke-width:1.0;"/><line style="stroke:#181818;stroke-width:1.0;" x1="242.5" x2="736.5" y1="719.2988" y2="719.2988"/><text fill="#000000" font-family="sans-serif" font-size="13" lengthAdjust="spacing" textLength="115" x="249.5" y="714.5566">Log failed attempt</text><line style="stroke:#000000;stroke-width:1.0;stroke-dasharray:2.0,2.0;" x1="10" x2="811.5" y1="728.2988" y2="728.2988"/><text fill="#000000" font-family="sans-serif" font-size="11" font-weight="bold" lengthAdjust="spacing" textLength="67" x="15" y="738.9336">[Valid code]</text><polygon fill="#181818" points="623,759.5645,633,763.5645,623,767.5645,627,763.5645" style="stroke:#181818;stroke-width:1.0;"/><line style="stroke:#181818;stroke-width:1.0;" x1="242.5" x2="629" y1="763.5645" y2="763.5645"/><text fill="#000000" font-family="sans-serif" font-size="13" lengthAdjust="spacing" textLength="197" x="249.5" y="758.8223">Update user status to "Verified"</text><polygon fill="#181818" points="49.5,788.875,39.5,792.875,49.5,796.875,45.5,792.875" style="stroke:#181818;stroke-width:1.0;"/><line style="stroke:#181818;stroke-width:1.0;" x1="43.5" x2="241.5" y1="792.875" y2="792.875"/><text fill="#000000" font-family="sans-serif" font-size="13" lengthAdjust="spacing" textLength="143" x="55.5" y="788.1328">Verification successful</text><polygon fill="#181818" points="730.5,818.1855,740.5,822.1855,730.5,826.1855,734.5,822.1855" style="stroke:#181818;stroke-width:1.0;"/><line style="stroke:#181818;stroke-width:1.0;" x1="242.5" x2="736.5" y1="822.1855" y2="822.1855"/><text fill="#000000" font-family="sans-serif" font-size="13" lengthAdjust="spacing" textLength="169" x="249.5" y="817.4434">Log successful verification</text><polygon fill="#181818" points="225.5,854.4961,235.5,858.4961,225.5,862.4961,229.5,858.4961" style="stroke:#181818;stroke-width:1.0;"/><line style="stroke:#181818;stroke-width:1.0;" x1="38.5" x2="231.5" y1="858.4961" y2="858.4961"/><text fill="#000000" font-family="sans-serif" font-size="13" lengthAdjust="spacing" textLength="130" x="45.5" y="853.7539">Request code resend</text><line style="stroke:#181818;stroke-width:1.0;" x1="247.5" x2="289.5" y1="887.8066" y2="887.8066"/><line style="stroke:#181818;stroke-width:1.0;" x1="289.5" x2="289.5" y1="887.8066" y2="900.8066"/><line style="stroke:#181818;stroke-width:1.0;" x1="248.5" x2="289.5" y1="900.8066" y2="900.8066"/><polygon fill="#181818" points="258.5,896.8066,248.5,900.8066,258.5,904.8066,254.5,900.8066" style="stroke:#181818;stroke-width:1.0;"/><text fill="#000000" font-family="sans-serif" font-size="13" lengthAdjust="spacing" textLength="273" x="254.5" y="883.0645">Generate new confirmation code and expiry</text><polygon fill="#181818" points="623,926.1172,633,930.1172,623,934.1172,627,930.1172" style="stroke:#181818;stroke-width:1.0;"/><line style="stroke:#181818;stroke-width:1.0;" x1="247.5" x2="629" y1="930.1172" y2="930.1172"/><text fill="#000000" font-family="sans-serif" font-size="13" lengthAdjust="spacing" textLength="148" x="254.5" y="925.375">Update code and expiry</text><polygon fill="#181818" points="527.5,955.4277,537.5,959.4277,527.5,963.4277,531.5,959.4277" style="stroke:#181818;stroke-width:1.0;"/><line style="stroke:#181818;stroke-width:1.0;" x1="247.5" x2="533.5" y1="959.4277" y2="959.4277"/><text fill="#000000" font-family="sans-serif" font-size="13" lengthAdjust="spacing" textLength="178" x="254.5" y="954.6855">Send new confirmation code</text><polygon fill="#181818" points="49.5,984.7383,39.5,988.7383,49.5,992.7383,45.5,988.7383" style="stroke:#181818;stroke-width:1.0;"/><line style="stroke:#181818;stroke-width:1.0;" x1="43.5" x2="538.5" y1="988.7383" y2="988.7383"/><text fill="#000000" font-family="sans-serif" font-size="13" lengthAdjust="spacing" textLength="192" x="55.5" y="983.9961">Deliver new confirmation code</text><polygon fill="#181818" points="730.5,1014.0488,740.5,1018.0488,730.5,1022.0488,734.5,1018.0488" style="stroke:#181818;stroke-width:1.0;"/><line style="stroke:#181818;stroke-width:1.0;" x1="242.5" x2="736.5" y1="1018.0488" y2="1018.0488"/><text fill="#000000" font-family="sans-serif" font-size="13" lengthAdjust="spacing" textLength="141" x="249.5" y="1013.3066">Log code resend event</text><!--SRC=[bLHDRzim3BtxLn2-j0FQwmuv31ZwCHJOBWtQkoBJ3b5RrYJQM_vzATb9BCT6q016OEdnaNnyjDBSEdZpw3Ah79Ccgmn3lZrunYO7vU6djRExFrlOekj9OvxUF2fME-Ndnx_RgY9JdMAo6tWnnAHgiFlM89YksQ43t-qQyfvQauMAuFv7IBw1RJZd19ifpTGhnbYUF2Vmkwgf21S9TTcwHd6cQfRKVO2aT22_aIMati2JSwtyhO8BJ2h0skEGUfKtLlSB3ReGzFs-e4gQqgqfATGcNSjBWUiX-D-IEm1JWvvLOwV8e_8YbWmqRVukyjw1CiN8COrCXxC9xn4FrP0tr8Kz6ev1Dp9veOc0dXI85wPaYJSsH-oimoJmf69ggt2Ld9mdyuWrzJBIPUKcSqaPfPHWl6WiwGQTNs18RFSKK0kW2ycVaVKUV11-b6OYzNIK3tlK7wC6mIl4XsZ9Xt0IyLYiMd4Dj3J0Kb4jjIYM9ROCjsFOjy6dHrFFxRRe_3detFQBqGuRqNAMpd-jkkdkh2Txit6fkp0WSJzt7hY5_1qTbOH5Vjd7SAM7mVbEQ_I-xEfhnPsHq4yOedzcIozsUaKVF5wt5UdKFQ_ujvCz7QRj8cpzetNQSOF_5XRcqauNmgpWbXPoCKTsPTkMWwvzGuQ-n-z7gjud]--></g></svg>