<?xml version="1.0" encoding="us-ascii" standalone="no"?><svg xmlns="http://www.w3.org/2000/svg" xmlns:xlink="http://www.w3.org/1999/xlink" contentStyleType="text/css" height="451px" preserveAspectRatio="none" style="width:537px;height:451px;background:#FFFFFF;" version="1.1" viewBox="0 0 537 451" width="537px" zoomAndPan="magnify"><defs/><g><text fill="#000000" font-family="sans-serif" font-size="14" font-weight="bold" lengthAdjust="spacing" textLength="282" x="126.75" y="28.5352">Phone Number Confirmation in Django</text><rect fill="#FFFFFF" height="201.8633" style="stroke:#181818;stroke-width:1.0;" width="10" x="232.5" y="150.2871"/><rect fill="#FFFFFF" height="29.3105" style="stroke:#181818;stroke-width:1.0;" width="10" x="479.5" y="221.9082"/><line style="stroke:#181818;stroke-width:0.5;stroke-dasharray:5.0,5.0;" x1="23" x2="23" y1="118.9766" y2="370.1504"/><line style="stroke:#181818;stroke-width:0.5;stroke-dasharray:5.0,5.0;" x1="237.5" x2="237.5" y1="118.9766" y2="370.1504"/><line style="stroke:#181818;stroke-width:0.5;stroke-dasharray:5.0,5.0;" x1="484.5" x2="484.5" y1="118.9766" y2="370.1504"/><text fill="#000000" font-family="sans-serif" font-size="14" lengthAdjust="spacing" textLength="31" x="5" y="116.0234">User</text><ellipse cx="23.5" cy="50.9883" fill="#E2E2F0" rx="8" ry="8" style="stroke:#181818;stroke-width:0.5;"/><path d="M23.5,58.9883 L23.5,85.9883 M10.5,66.9883 L36.5,66.9883 M23.5,85.9883 L10.5,100.9883 M23.5,85.9883 L36.5,100.9883 " fill="none" style="stroke:#181818;stroke-width:0.5;"/><text fill="#000000" font-family="sans-serif" font-size="14" lengthAdjust="spacing" textLength="31" x="5" y="382.6855">User</text><ellipse cx="23.5" cy="394.1387" fill="#E2E2F0" rx="8" ry="8" style="stroke:#181818;stroke-width:0.5;"/><path d="M23.5,402.1387 L23.5,429.1387 M10.5,410.1387 L36.5,410.1387 M23.5,429.1387 L10.5,444.1387 M23.5,429.1387 L36.5,444.1387 " fill="none" style="stroke:#181818;stroke-width:0.5;"/><rect fill="#E2E2F0" height="30.4883" rx="2.5" ry="2.5" style="stroke:#181818;stroke-width:0.5;" width="62" x="206.5" y="87.4883"/><text fill="#000000" font-family="sans-serif" font-size="14" lengthAdjust="spacing" textLength="48" x="213.5" y="108.0234">System</text><rect fill="#E2E2F0" height="30.4883" rx="2.5" ry="2.5" style="stroke:#181818;stroke-width:0.5;" width="62" x="206.5" y="369.1504"/><text fill="#000000" font-family="sans-serif" font-size="14" lengthAdjust="spacing" textLength="48" x="213.5" y="389.6855">System</text><rect fill="#E2E2F0" height="30.4883" rx="2.5" ry="2.5" style="stroke:#181818;stroke-width:0.5;" width="94" x="437.5" y="87.4883"/><text fill="#000000" font-family="sans-serif" font-size="14" lengthAdjust="spacing" textLength="80" x="444.5" y="108.0234">SMS Service</text><rect fill="#E2E2F0" height="30.4883" rx="2.5" ry="2.5" style="stroke:#181818;stroke-width:0.5;" width="94" x="437.5" y="369.1504"/><text fill="#000000" font-family="sans-serif" font-size="14" lengthAdjust="spacing" textLength="80" x="444.5" y="389.6855">SMS Service</text><rect fill="#FFFFFF" height="201.8633" style="stroke:#181818;stroke-width:1.0;" width="10" x="232.5" y="150.2871"/><rect fill="#FFFFFF" height="29.3105" style="stroke:#181818;stroke-width:1.0;" width="10" x="479.5" y="221.9082"/><polygon fill="#181818" points="220.5,146.2871,230.5,150.2871,220.5,154.2871,224.5,150.2871" style="stroke:#181818;stroke-width:1.0;"/><line style="stroke:#181818;stroke-width:1.0;" x1="23.5" x2="226.5" y1="150.2871" y2="150.2871"/><text fill="#000000" font-family="sans-serif" font-size="13" lengthAdjust="spacing" textLength="139" x="30.5" y="145.5449">Submit phone number</text><line style="stroke:#181818;stroke-width:1.0;" x1="242.5" x2="284.5" y1="179.5977" y2="179.5977"/><line style="stroke:#181818;stroke-width:1.0;" x1="284.5" x2="284.5" y1="179.5977" y2="192.5977"/><line style="stroke:#181818;stroke-width:1.0;" x1="243.5" x2="284.5" y1="192.5977" y2="192.5977"/><polygon fill="#181818" points="253.5,188.5977,243.5,192.5977,253.5,196.5977,249.5,192.5977" style="stroke:#181818;stroke-width:1.0;"/><text fill="#000000" font-family="sans-serif" font-size="13" lengthAdjust="spacing" textLength="223" x="249.5" y="174.8555">Generate 6-digit confirmation code</text><polygon fill="#181818" points="467.5,217.9082,477.5,221.9082,467.5,225.9082,471.5,221.9082" style="stroke:#181818;stroke-width:1.0;"/><line style="stroke:#181818;stroke-width:1.0;" x1="242.5" x2="473.5" y1="221.9082" y2="221.9082"/><text fill="#000000" font-family="sans-serif" font-size="13" lengthAdjust="spacing" textLength="200" x="249.5" y="217.166">Send confirmation code via SMS</text><polygon fill="#181818" points="34.5,247.2188,24.5,251.2188,34.5,255.2188,30.5,251.2188" style="stroke:#181818;stroke-width:1.0;"/><line style="stroke:#181818;stroke-width:1.0;" x1="28.5" x2="483.5" y1="251.2188" y2="251.2188"/><text fill="#000000" font-family="sans-serif" font-size="13" lengthAdjust="spacing" textLength="163" x="40.5" y="246.4766">Deliver confirmation code</text><polygon fill="#181818" points="220.5,276.5293,230.5,280.5293,220.5,284.5293,224.5,280.5293" style="stroke:#181818;stroke-width:1.0;"/><line style="stroke:#181818;stroke-width:1.0;" x1="23.5" x2="226.5" y1="280.5293" y2="280.5293"/><text fill="#000000" font-family="sans-serif" font-size="13" lengthAdjust="spacing" textLength="151" x="30.5" y="275.7871">Enter confirmation code</text><line style="stroke:#181818;stroke-width:1.0;" x1="242.5" x2="284.5" y1="309.8398" y2="309.8398"/><line style="stroke:#181818;stroke-width:1.0;" x1="284.5" x2="284.5" y1="309.8398" y2="322.8398"/><line style="stroke:#181818;stroke-width:1.0;" x1="243.5" x2="284.5" y1="322.8398" y2="322.8398"/><polygon fill="#181818" points="253.5,318.8398,243.5,322.8398,253.5,326.8398,249.5,322.8398" style="stroke:#181818;stroke-width:1.0;"/><text fill="#000000" font-family="sans-serif" font-size="13" lengthAdjust="spacing" textLength="169" x="249.5" y="305.0977">Validate confirmation code</text><polygon fill="#181818" points="34.5,348.1504,24.5,352.1504,34.5,356.1504,30.5,352.1504" style="stroke:#181818;stroke-width:1.0;"/><line style="stroke:#181818;stroke-width:1.0;" x1="28.5" x2="236.5" y1="352.1504" y2="352.1504"/><text fill="#000000" font-family="sans-serif" font-size="13" lengthAdjust="spacing" textLength="185" x="40.5" y="347.4082">Verification successful/failed</text><!--SRC=[TOynQyCm48Lt_Oh3U-ZM8KEX9ALJIy4q-qKwfrVaav3EXlpxI0vfxAGPD8XxxttlAQid-Fe9Gl0vz7jAi0dISUfHEGYmmFONvH2CGQiXmNUcP28cPSiHHQ5fZrcfRm0plCPuS_jeeQKqigN6cEg5rKkLhQ4TzZqhn0aj4xeYU4IbAQYyF_4x2QLwU5uvFXIRdPUqmT55la0M2ecx5yF824Lu1IwRBdurjJPVmvOyZsN2FTpHWwJ5v3VHVztpfJlqx6hEGzcvouuITspFvpnOIpbtWt_ga3svUQ5YEm40]--></g></svg>