<?xml version="1.0" encoding="us-ascii" standalone="no"?><svg xmlns="http://www.w3.org/2000/svg" xmlns:xlink="http://www.w3.org/1999/xlink" contentStyleType="text/css" height="959px" preserveAspectRatio="none" style="width:623px;height:959px;background:#FFFFFF;" version="1.1" viewBox="0 0 623 959" width="623px" zoomAndPan="magnify"><defs/><g><text fill="#000000" font-family="sans-serif" font-size="14" font-weight="bold" lengthAdjust="spacing" textLength="426" x="99.75" y="28.5352">Simplified Sequence Diagram for Non-Technical Audiences</text><rect fill="none" height="195.7734" style="stroke:#000000;stroke-width:1.5;" width="606.5" x="10" y="207.5977"/><rect fill="none" height="90.8867" style="stroke:#000000;stroke-width:1.5;" width="378.5" x="20" y="305.4844"/><rect fill="none" height="90.8867" style="stroke:#000000;stroke-width:1.5;" width="378.5" x="20" y="488.9922"/><rect fill="none" height="195.7734" style="stroke:#000000;stroke-width:1.5;" width="606.5" x="10" y="665.5"/><rect fill="none" height="90.8867" style="stroke:#000000;stroke-width:1.5;" width="378.5" x="20" y="763.3867"/><line style="stroke:#181818;stroke-width:0.5;stroke-dasharray:5.0,5.0;" x1="48" x2="48" y1="118.9766" y2="878.2734"/><line style="stroke:#181818;stroke-width:0.5;stroke-dasharray:5.0,5.0;" x1="357.5" x2="357.5" y1="118.9766" y2="878.2734"/><line style="stroke:#181818;stroke-width:0.5;stroke-dasharray:5.0,5.0;" x1="559.5" x2="559.5" y1="118.9766" y2="878.2734"/><text fill="#000000" font-family="sans-serif" font-size="14" lengthAdjust="spacing" textLength="31" x="30" y="116.0234">User</text><ellipse cx="48.5" cy="50.9883" fill="#E2E2F0" rx="8" ry="8" style="stroke:#181818;stroke-width:0.5;"/><path d="M48.5,58.9883 L48.5,85.9883 M35.5,66.9883 L61.5,66.9883 M48.5,85.9883 L35.5,100.9883 M48.5,85.9883 L61.5,100.9883 " fill="none" style="stroke:#181818;stroke-width:0.5;"/><text fill="#000000" font-family="sans-serif" font-size="14" lengthAdjust="spacing" textLength="31" x="30" y="890.8086">User</text><ellipse cx="48.5" cy="902.2617" fill="#E2E2F0" rx="8" ry="8" style="stroke:#181818;stroke-width:0.5;"/><path d="M48.5,910.2617 L48.5,937.2617 M35.5,918.2617 L61.5,918.2617 M48.5,937.2617 L35.5,952.2617 M48.5,937.2617 L61.5,952.2617 " fill="none" style="stroke:#181818;stroke-width:0.5;"/><rect fill="#E2E2F0" height="30.4883" rx="2.5" ry="2.5" style="stroke:#181818;stroke-width:0.5;" width="62" x="326.5" y="87.4883"/><text fill="#000000" font-family="sans-serif" font-size="14" lengthAdjust="spacing" textLength="48" x="333.5" y="108.0234">System</text><rect fill="#E2E2F0" height="30.4883" rx="2.5" ry="2.5" style="stroke:#181818;stroke-width:0.5;" width="62" x="326.5" y="877.2734"/><text fill="#000000" font-family="sans-serif" font-size="14" lengthAdjust="spacing" textLength="48" x="333.5" y="897.8086">System</text><rect fill="#E2E2F0" height="30.4883" rx="2.5" ry="2.5" style="stroke:#181818;stroke-width:0.5;" width="94" x="512.5" y="87.4883"/><text fill="#000000" font-family="sans-serif" font-size="14" lengthAdjust="spacing" textLength="80" x="519.5" y="108.0234">SMS Service</text><rect fill="#E2E2F0" height="30.4883" rx="2.5" ry="2.5" style="stroke:#181818;stroke-width:0.5;" width="94" x="512.5" y="877.2734"/><text fill="#000000" font-family="sans-serif" font-size="14" lengthAdjust="spacing" textLength="80" x="519.5" y="897.8086">SMS Service</text><polygon fill="#181818" points="345.5,146.2871,355.5,150.2871,345.5,154.2871,349.5,150.2871" style="stroke:#181818;stroke-width:1.0;"/><line style="stroke:#181818;stroke-width:1.0;" x1="48.5" x2="351.5" y1="150.2871" y2="150.2871"/><text fill="#000000" font-family="sans-serif" font-size="13" lengthAdjust="spacing" textLength="140" x="55.5" y="145.5449">Submit Phone Number</text><line style="stroke:#181818;stroke-width:1.0;" x1="357.5" x2="399.5" y1="179.5977" y2="179.5977"/><line style="stroke:#181818;stroke-width:1.0;" x1="399.5" x2="399.5" y1="179.5977" y2="192.5977"/><line style="stroke:#181818;stroke-width:1.0;" x1="358.5" x2="399.5" y1="192.5977" y2="192.5977"/><polygon fill="#181818" points="368.5,188.5977,358.5,192.5977,368.5,196.5977,364.5,192.5977" style="stroke:#181818;stroke-width:1.0;"/><text fill="#000000" font-family="sans-serif" font-size="13" lengthAdjust="spacing" textLength="145" x="364.5" y="174.8555">Validate phone number</text><path d="M10,207.5977 L72,207.5977 L72,214.9082 L62,224.9082 L10,224.9082 L10,207.5977 " fill="#EEEEEE" style="stroke:#000000;stroke-width:1.5;"/><rect fill="none" height="195.7734" style="stroke:#000000;stroke-width:1.5;" width="606.5" x="10" y="207.5977"/><text fill="#000000" font-family="sans-serif" font-size="13" font-weight="bold" lengthAdjust="spacing" textLength="17" x="25" y="221.166">alt</text><text fill="#000000" font-family="sans-serif" font-size="11" font-weight="bold" lengthAdjust="spacing" textLength="132" x="87" y="220.2324">[Invalid phone number]</text><polygon fill="#181818" points="59.5,242.2188,49.5,246.2188,59.5,250.2188,55.5,246.2188" style="stroke:#181818;stroke-width:1.0;"/><line style="stroke:#181818;stroke-width:1.0;" x1="53.5" x2="356.5" y1="246.2188" y2="246.2188"/><text fill="#000000" font-family="sans-serif" font-size="13" lengthAdjust="spacing" textLength="218" x="65.5" y="241.4766">Show "Invalid phone number" error</text><line style="stroke:#000000;stroke-width:1.0;stroke-dasharray:2.0,2.0;" x1="10" x2="616.5" y1="255.2188" y2="255.2188"/><text fill="#000000" font-family="sans-serif" font-size="11" font-weight="bold" lengthAdjust="spacing" textLength="122" x="15" y="265.8535">[Valid phone number]</text><polygon fill="#181818" points="547.5,286.4844,557.5,290.4844,547.5,294.4844,551.5,290.4844" style="stroke:#181818;stroke-width:1.0;"/><line style="stroke:#181818;stroke-width:1.0;" x1="357.5" x2="553.5" y1="290.4844" y2="290.4844"/><text fill="#000000" font-family="sans-serif" font-size="13" lengthAdjust="spacing" textLength="149" x="364.5" y="285.7422">Send confirmation code</text><path d="M20,305.4844 L82,305.4844 L82,312.7949 L72,322.7949 L20,322.7949 L20,305.4844 " fill="#EEEEEE" style="stroke:#000000;stroke-width:1.5;"/><rect fill="none" height="90.8867" style="stroke:#000000;stroke-width:1.5;" width="378.5" x="20" y="305.4844"/><text fill="#000000" font-family="sans-serif" font-size="13" font-weight="bold" lengthAdjust="spacing" textLength="17" x="35" y="319.0527">alt</text><text fill="#000000" font-family="sans-serif" font-size="11" font-weight="bold" lengthAdjust="spacing" textLength="115" x="97" y="318.1191">[SMS service failure]</text><polygon fill="#181818" points="59.5,340.1055,49.5,344.1055,59.5,348.1055,55.5,344.1055" style="stroke:#181818;stroke-width:1.0;"/><line style="stroke:#181818;stroke-width:1.0;" x1="53.5" x2="356.5" y1="344.1055" y2="344.1055"/><text fill="#000000" font-family="sans-serif" font-size="13" lengthAdjust="spacing" textLength="268" x="65.5" y="339.3633">Show "Unable to send SMS. Try later." error</text><line style="stroke:#000000;stroke-width:1.0;stroke-dasharray:2.0,2.0;" x1="20" x2="398.5" y1="353.1055" y2="353.1055"/><text fill="#000000" font-family="sans-serif" font-size="11" font-weight="bold" lengthAdjust="spacing" textLength="130" x="25" y="363.7402">[SMS sent successfully]</text><polygon fill="#181818" points="59.5,384.3711,49.5,388.3711,59.5,392.3711,55.5,388.3711" style="stroke:#181818;stroke-width:1.0;"/><line style="stroke:#181818;stroke-width:1.0;" x1="53.5" x2="356.5" y1="388.3711" y2="388.3711"/><text fill="#000000" font-family="sans-serif" font-size="13" lengthAdjust="spacing" textLength="169" x="65.5" y="383.6289">Show "Code sent" message</text><polygon fill="#181818" points="345.5,427.6816,355.5,431.6816,345.5,435.6816,349.5,431.6816" style="stroke:#181818;stroke-width:1.0;"/><line style="stroke:#181818;stroke-width:1.0;" x1="48.5" x2="351.5" y1="431.6816" y2="431.6816"/><text fill="#000000" font-family="sans-serif" font-size="13" lengthAdjust="spacing" textLength="155" x="55.5" y="426.9395">Enter Confirmation Code</text><line style="stroke:#181818;stroke-width:1.0;" x1="357.5" x2="399.5" y1="460.9922" y2="460.9922"/><line style="stroke:#181818;stroke-width:1.0;" x1="399.5" x2="399.5" y1="460.9922" y2="473.9922"/><line style="stroke:#181818;stroke-width:1.0;" x1="358.5" x2="399.5" y1="473.9922" y2="473.9922"/><polygon fill="#181818" points="368.5,469.9922,358.5,473.9922,368.5,477.9922,364.5,473.9922" style="stroke:#181818;stroke-width:1.0;"/><text fill="#000000" font-family="sans-serif" font-size="13" lengthAdjust="spacing" textLength="169" x="364.5" y="456.25">Validate confirmation code</text><path d="M20,488.9922 L82,488.9922 L82,496.3027 L72,506.3027 L20,506.3027 L20,488.9922 " fill="#EEEEEE" style="stroke:#000000;stroke-width:1.5;"/><rect fill="none" height="90.8867" style="stroke:#000000;stroke-width:1.5;" width="378.5" x="20" y="488.9922"/><text fill="#000000" font-family="sans-serif" font-size="13" font-weight="bold" lengthAdjust="spacing" textLength="17" x="35" y="502.5605">alt</text><text fill="#000000" font-family="sans-serif" font-size="11" font-weight="bold" lengthAdjust="spacing" textLength="126" x="97" y="501.627">[Code invalid/expired]</text><polygon fill="#181818" points="59.5,523.6133,49.5,527.6133,59.5,531.6133,55.5,527.6133" style="stroke:#181818;stroke-width:1.0;"/><line style="stroke:#181818;stroke-width:1.0;" x1="53.5" x2="356.5" y1="527.6133" y2="527.6133"/><text fill="#000000" font-family="sans-serif" font-size="13" lengthAdjust="spacing" textLength="225" x="65.5" y="522.8711">Show "Invalid or expired code" error</text><line style="stroke:#000000;stroke-width:1.0;stroke-dasharray:2.0,2.0;" x1="20" x2="398.5" y1="536.6133" y2="536.6133"/><text fill="#000000" font-family="sans-serif" font-size="11" font-weight="bold" lengthAdjust="spacing" textLength="68" x="25" y="547.248">[Code valid]</text><polygon fill="#181818" points="59.5,567.8789,49.5,571.8789,59.5,575.8789,55.5,571.8789" style="stroke:#181818;stroke-width:1.0;"/><line style="stroke:#181818;stroke-width:1.0;" x1="53.5" x2="356.5" y1="571.8789" y2="571.8789"/><text fill="#000000" font-family="sans-serif" font-size="13" lengthAdjust="spacing" textLength="249" x="65.5" y="567.1367">Show "Verification successful" message</text><polygon fill="#181818" points="345.5,604.1895,355.5,608.1895,345.5,612.1895,349.5,608.1895" style="stroke:#181818;stroke-width:1.0;"/><line style="stroke:#181818;stroke-width:1.0;" x1="48.5" x2="351.5" y1="608.1895" y2="608.1895"/><text fill="#000000" font-family="sans-serif" font-size="13" lengthAdjust="spacing" textLength="135" x="55.5" y="603.4473">Request Resend Code</text><line style="stroke:#181818;stroke-width:1.0;" x1="357.5" x2="399.5" y1="637.5" y2="637.5"/><line style="stroke:#181818;stroke-width:1.0;" x1="399.5" x2="399.5" y1="637.5" y2="650.5"/><line style="stroke:#181818;stroke-width:1.0;" x1="358.5" x2="399.5" y1="650.5" y2="650.5"/><polygon fill="#181818" points="368.5,646.5,358.5,650.5,368.5,654.5,364.5,650.5" style="stroke:#181818;stroke-width:1.0;"/><text fill="#000000" font-family="sans-serif" font-size="13" lengthAdjust="spacing" textLength="118" x="364.5" y="632.7578">Check resend limit</text><path d="M10,665.5 L72,665.5 L72,672.8105 L62,682.8105 L10,682.8105 L10,665.5 " fill="#EEEEEE" style="stroke:#000000;stroke-width:1.5;"/><rect fill="none" height="195.7734" style="stroke:#000000;stroke-width:1.5;" width="606.5" x="10" y="665.5"/><text fill="#000000" font-family="sans-serif" font-size="13" font-weight="bold" lengthAdjust="spacing" textLength="17" x="25" y="679.0684">alt</text><text fill="#000000" font-family="sans-serif" font-size="11" font-weight="bold" lengthAdjust="spacing" textLength="133" x="87" y="678.1348">[Resend limit exceeded]</text><polygon fill="#181818" points="59.5,700.1211,49.5,704.1211,59.5,708.1211,55.5,704.1211" style="stroke:#181818;stroke-width:1.0;"/><line style="stroke:#181818;stroke-width:1.0;" x1="53.5" x2="356.5" y1="704.1211" y2="704.1211"/><text fill="#000000" font-family="sans-serif" font-size="13" lengthAdjust="spacing" textLength="260" x="65.5" y="699.3789">Show "Too many resends. Try later." error</text><line style="stroke:#000000;stroke-width:1.0;stroke-dasharray:2.0,2.0;" x1="10" x2="616.5" y1="713.1211" y2="713.1211"/><text fill="#000000" font-family="sans-serif" font-size="11" font-weight="bold" lengthAdjust="spacing" textLength="95" x="15" y="723.7559">[Resend allowed]</text><polygon fill="#181818" points="547.5,744.3867,557.5,748.3867,547.5,752.3867,551.5,748.3867" style="stroke:#181818;stroke-width:1.0;"/><line style="stroke:#181818;stroke-width:1.0;" x1="357.5" x2="553.5" y1="748.3867" y2="748.3867"/><text fill="#000000" font-family="sans-serif" font-size="13" lengthAdjust="spacing" textLength="178" x="364.5" y="743.6445">Send new confirmation code</text><path d="M20,763.3867 L82,763.3867 L82,770.6973 L72,780.6973 L20,780.6973 L20,763.3867 " fill="#EEEEEE" style="stroke:#000000;stroke-width:1.5;"/><rect fill="none" height="90.8867" style="stroke:#000000;stroke-width:1.5;" width="378.5" x="20" y="763.3867"/><text fill="#000000" font-family="sans-serif" font-size="13" font-weight="bold" lengthAdjust="spacing" textLength="17" x="35" y="776.9551">alt</text><text fill="#000000" font-family="sans-serif" font-size="11" font-weight="bold" lengthAdjust="spacing" textLength="115" x="97" y="776.0215">[SMS service failure]</text><polygon fill="#181818" points="59.5,798.0078,49.5,802.0078,59.5,806.0078,55.5,802.0078" style="stroke:#181818;stroke-width:1.0;"/><line style="stroke:#181818;stroke-width:1.0;" x1="53.5" x2="356.5" y1="802.0078" y2="802.0078"/><text fill="#000000" font-family="sans-serif" font-size="13" lengthAdjust="spacing" textLength="285" x="65.5" y="797.2656">Show "Unable to resend code. Try later." error</text><line style="stroke:#000000;stroke-width:1.0;stroke-dasharray:2.0,2.0;" x1="20" x2="398.5" y1="811.0078" y2="811.0078"/><text fill="#000000" font-family="sans-serif" font-size="11" font-weight="bold" lengthAdjust="spacing" textLength="130" x="25" y="821.6426">[SMS sent successfully]</text><polygon fill="#181818" points="59.5,842.2734,49.5,846.2734,59.5,850.2734,55.5,846.2734" style="stroke:#181818;stroke-width:1.0;"/><line style="stroke:#181818;stroke-width:1.0;" x1="53.5" x2="356.5" y1="846.2734" y2="846.2734"/><text fill="#000000" font-family="sans-serif" font-size="13" lengthAdjust="spacing" textLength="198" x="65.5" y="841.5313">Show "New code sent" message</text><!--SRC=[jLDDRy8m3BttLrYzm-uxJ9hO3Zk09WhSG-fIQsdI9IcCVpydwLGOqEsm8I4eVduVjl7a5K91JQke8YoXmFSEjKHu8h6pee7AM5WOFLcXh3L9eU2nAob0N9O9wRcyTcYpLbXFabgXFUJ5qNbiSX0EqjTlvNd1GdPF4XDcNlIFMHR8OFBGzzr3qMqRyl1Q6usmw9ejQwNQAMeZ59N28xGHfnDEA0ylUXzgvmNWrq0I95ceDWV8hy5pG6kDpL0vJ4fZR4COvaHTWZIw8ji8JqRpGucn8NWBSt092vKWrTbKksrlhSMM5-ODzp4r4qnXPO-WEBkTVXaD_T5i4k2HkqxombpLANNyGMB63cDJ3WstY5ton79PU5yiw5cpDCnEGmQAiILTJYHC8mfJclyTVhHaiVp5flW0Ut2aEbjMf8om4Q8DMhvzcTmCWnhYNusz37yKv_apRk96v5cDyWrimYZYIuvHboS_i7k9M8vcNHa3ZT37dibTMteCt1CBfSpXWl7YCZKU_kaw-yI1xyyFT15TZnxf9m00]--></g></svg>