<?xml version="1.0" encoding="us-ascii" standalone="no"?><svg xmlns="http://www.w3.org/2000/svg" xmlns:xlink="http://www.w3.org/1999/xlink" contentStyleType="text/css" height="2350px" preserveAspectRatio="none" style="width:993px;height:2350px;background:#FFFFFF;" version="1.1" viewBox="0 0 993 2350" width="993px" zoomAndPan="magnify"><defs/><g><text fill="#000000" font-family="sans-serif" font-size="14" font-weight="bold" lengthAdjust="spacing" textLength="387" x="299.25" y="28.5352">API Interaction Diagram with Retry and Rate Limiting</text><rect fill="none" height="371.6367" style="stroke:#000000;stroke-width:1.5;" width="966.5" x="10" y="237.9082"/><rect fill="none" height="208.1289" style="stroke:#000000;stroke-width:1.5;" width="946.5" x="20" y="394.416"/><rect fill="none" height="461.5684" style="stroke:#000000;stroke-width:1.5;" width="966.5" x="10" y="725.4766"/><rect fill="none" height="239.4395" style="stroke:#000000;stroke-width:1.5;" width="946.5" x="20" y="940.6055"/><rect fill="none" height="46.6211" style="stroke:#000000;stroke-width:1.5;" width="622.5" x="200" y="1052.8477"/><rect fill="none" height="371.6367" style="stroke:#000000;stroke-width:1.5;" width="966.5" x="10" y="1302.9766"/><rect fill="none" height="208.1289" style="stroke:#000000;stroke-width:1.5;" width="946.5" x="20" y="1459.4844"/><rect fill="none" height="461.5684" style="stroke:#000000;stroke-width:1.5;" width="966.5" x="10" y="1790.5449"/><rect fill="none" height="239.4395" style="stroke:#000000;stroke-width:1.5;" width="946.5" x="20" y="2005.6738"/><rect fill="none" height="46.6211" style="stroke:#000000;stroke-width:1.5;" width="622.5" x="200" y="2117.916"/><line style="stroke:#181818;stroke-width:0.5;stroke-dasharray:5.0,5.0;" x1="48" x2="48" y1="118.9766" y2="2269.1133"/><line style="stroke:#181818;stroke-width:0.5;stroke-dasharray:5.0,5.0;" x1="258" x2="258" y1="118.9766" y2="2269.1133"/><line style="stroke:#181818;stroke-width:0.5;stroke-dasharray:5.0,5.0;" x1="485.5" x2="485.5" y1="118.9766" y2="2269.1133"/><line style="stroke:#181818;stroke-width:0.5;stroke-dasharray:5.0,5.0;" x1="573.5" x2="573.5" y1="118.9766" y2="2269.1133"/><line style="stroke:#181818;stroke-width:0.5;stroke-dasharray:5.0,5.0;" x1="669.5" x2="669.5" y1="118.9766" y2="2269.1133"/><line style="stroke:#181818;stroke-width:0.5;stroke-dasharray:5.0,5.0;" x1="765.5" x2="765.5" y1="118.9766" y2="2269.1133"/><line style="stroke:#181818;stroke-width:0.5;stroke-dasharray:5.0,5.0;" x1="895.5" x2="895.5" y1="118.9766" y2="2269.1133"/><text fill="#000000" font-family="sans-serif" font-size="14" lengthAdjust="spacing" textLength="31" x="30" y="116.0234">User</text><ellipse cx="48.5" cy="50.9883" fill="#E2E2F0" rx="8" ry="8" style="stroke:#181818;stroke-width:0.5;"/><path d="M48.5,58.9883 L48.5,85.9883 M35.5,66.9883 L61.5,66.9883 M48.5,85.9883 L35.5,100.9883 M48.5,85.9883 L61.5,100.9883 " fill="none" style="stroke:#181818;stroke-width:0.5;"/><text fill="#000000" font-family="sans-serif" font-size="14" lengthAdjust="spacing" textLength="31" x="30" y="2281.6484">User</text><ellipse cx="48.5" cy="2293.1016" fill="#E2E2F0" rx="8" ry="8" style="stroke:#181818;stroke-width:0.5;"/><path d="M48.5,2301.1016 L48.5,2328.1016 M35.5,2309.1016 L61.5,2309.1016 M48.5,2328.1016 L35.5,2343.1016 M48.5,2328.1016 L61.5,2343.1016 " fill="none" style="stroke:#181818;stroke-width:0.5;"/><rect fill="#E2E2F0" height="30.4883" rx="2.5" ry="2.5" style="stroke:#181818;stroke-width:0.5;" width="97" x="210" y="87.4883"/><text fill="#000000" font-family="sans-serif" font-size="14" lengthAdjust="spacing" textLength="83" x="217" y="108.0234">API Gateway</text><rect fill="#E2E2F0" height="30.4883" rx="2.5" ry="2.5" style="stroke:#181818;stroke-width:0.5;" width="97" x="210" y="2268.1133"/><text fill="#000000" font-family="sans-serif" font-size="14" lengthAdjust="spacing" textLength="83" x="217" y="2288.6484">API Gateway</text><rect fill="#E2E2F0" height="30.4883" rx="2.5" ry="2.5" style="stroke:#181818;stroke-width:0.5;" width="62" x="454.5" y="87.4883"/><text fill="#000000" font-family="sans-serif" font-size="14" lengthAdjust="spacing" textLength="48" x="461.5" y="108.0234">System</text><rect fill="#E2E2F0" height="30.4883" rx="2.5" ry="2.5" style="stroke:#181818;stroke-width:0.5;" width="62" x="454.5" y="2268.1133"/><text fill="#000000" font-family="sans-serif" font-size="14" lengthAdjust="spacing" textLength="48" x="461.5" y="2288.6484">System</text><rect fill="#E2E2F0" height="30.4883" rx="2.5" ry="2.5" style="stroke:#181818;stroke-width:0.5;" width="95" x="526.5" y="87.4883"/><text fill="#000000" font-family="sans-serif" font-size="14" lengthAdjust="spacing" textLength="81" x="533.5" y="108.0234">Rate Limiter</text><rect fill="#E2E2F0" height="30.4883" rx="2.5" ry="2.5" style="stroke:#181818;stroke-width:0.5;" width="95" x="526.5" y="2268.1133"/><text fill="#000000" font-family="sans-serif" font-size="14" lengthAdjust="spacing" textLength="81" x="533.5" y="2288.6484">Rate Limiter</text><rect fill="#E2E2F0" height="30.4883" rx="2.5" ry="2.5" style="stroke:#181818;stroke-width:0.5;" width="77" x="631.5" y="87.4883"/><text fill="#000000" font-family="sans-serif" font-size="14" lengthAdjust="spacing" textLength="63" x="638.5" y="108.0234">Database</text><rect fill="#E2E2F0" height="30.4883" rx="2.5" ry="2.5" style="stroke:#181818;stroke-width:0.5;" width="77" x="631.5" y="2268.1133"/><text fill="#000000" font-family="sans-serif" font-size="14" lengthAdjust="spacing" textLength="63" x="638.5" y="2288.6484">Database</text><rect fill="#E2E2F0" height="30.4883" rx="2.5" ry="2.5" style="stroke:#181818;stroke-width:0.5;" width="94" x="718.5" y="87.4883"/><text fill="#000000" font-family="sans-serif" font-size="14" lengthAdjust="spacing" textLength="80" x="725.5" y="108.0234">SMS Service</text><rect fill="#E2E2F0" height="30.4883" rx="2.5" ry="2.5" style="stroke:#181818;stroke-width:0.5;" width="94" x="718.5" y="2268.1133"/><text fill="#000000" font-family="sans-serif" font-size="14" lengthAdjust="spacing" textLength="80" x="725.5" y="2288.6484">SMS Service</text><rect fill="#E2E2F0" height="30.4883" rx="2.5" ry="2.5" style="stroke:#181818;stroke-width:0.5;" width="122" x="834.5" y="87.4883"/><text fill="#000000" font-family="sans-serif" font-size="14" lengthAdjust="spacing" textLength="108" x="841.5" y="108.0234">Logging Service</text><rect fill="#E2E2F0" height="30.4883" rx="2.5" ry="2.5" style="stroke:#181818;stroke-width:0.5;" width="122" x="834.5" y="2268.1133"/><text fill="#000000" font-family="sans-serif" font-size="14" lengthAdjust="spacing" textLength="108" x="841.5" y="2288.6484">Logging Service</text><rect fill="#EEEEEE" height="3" style="stroke:#EEEEEE;stroke-width:1.0;" width="986.5" x="0" y="149.6318"/><line style="stroke:#000000;stroke-width:1.0;" x1="0" x2="986.5" y1="149.6318" y2="149.6318"/><line style="stroke:#000000;stroke-width:1.0;" x1="0" x2="986.5" y1="152.6318" y2="152.6318"/><rect fill="#EEEEEE" height="23.3105" style="stroke:#000000;stroke-width:2.0;" width="200" x="393.25" y="138.9766"/><text fill="#000000" font-family="sans-serif" font-size="13" font-weight="bold" lengthAdjust="spacing" textLength="182" x="399.25" y="155.5449">Phone Number Submission</text><polygon fill="#181818" points="246.5,189.5977,256.5,193.5977,246.5,197.5977,250.5,193.5977" style="stroke:#181818;stroke-width:1.0;"/><line style="stroke:#181818;stroke-width:1.0;" x1="48.5" x2="252.5" y1="193.5977" y2="193.5977"/><text fill="#000000" font-family="sans-serif" font-size="13" lengthAdjust="spacing" textLength="133" x="55.5" y="188.8555">POST /phone/submit</text><polygon fill="#181818" points="562,218.9082,572,222.9082,562,226.9082,566,222.9082" style="stroke:#181818;stroke-width:1.0;"/><line style="stroke:#181818;stroke-width:1.0;" x1="258.5" x2="568" y1="222.9082" y2="222.9082"/><text fill="#000000" font-family="sans-serif" font-size="13" lengthAdjust="spacing" textLength="100" x="265.5" y="218.166">Check rate limit</text><path d="M10,237.9082 L72,237.9082 L72,245.2188 L62,255.2188 L10,255.2188 L10,237.9082 " fill="#EEEEEE" style="stroke:#000000;stroke-width:1.5;"/><rect fill="none" height="371.6367" style="stroke:#000000;stroke-width:1.5;" width="966.5" x="10" y="237.9082"/><text fill="#000000" font-family="sans-serif" font-size="13" font-weight="bold" lengthAdjust="spacing" textLength="17" x="25" y="251.4766">alt</text><text fill="#000000" font-family="sans-serif" font-size="11" font-weight="bold" lengthAdjust="spacing" textLength="117" x="87" y="250.543">[Rate limit exceeded]</text><polygon fill="#181818" points="269.5,272.5293,259.5,276.5293,269.5,280.5293,265.5,276.5293" style="stroke:#181818;stroke-width:1.0;"/><line style="stroke:#181818;stroke-width:1.0;" x1="263.5" x2="573" y1="276.5293" y2="276.5293"/><text fill="#000000" font-family="sans-serif" font-size="13" lengthAdjust="spacing" textLength="94" x="275.5" y="271.7871">Rate limit error</text><polygon fill="#181818" points="59.5,301.8398,49.5,305.8398,59.5,309.8398,55.5,305.8398" style="stroke:#181818;stroke-width:1.0;"/><line style="stroke:#181818;stroke-width:1.0;" x1="53.5" x2="257.5" y1="305.8398" y2="305.8398"/><text fill="#000000" font-family="sans-serif" font-size="13" lengthAdjust="spacing" textLength="150" x="65.5" y="301.0977">429 Too Many Requests</text><line style="stroke:#000000;stroke-width:1.0;stroke-dasharray:2.0,2.0;" x1="10" x2="976.5" y1="314.8398" y2="314.8398"/><text fill="#000000" font-family="sans-serif" font-size="11" font-weight="bold" lengthAdjust="spacing" textLength="100" x="15" y="325.4746">[Within rate limit]</text><polygon fill="#181818" points="269.5,346.1055,259.5,350.1055,269.5,354.1055,265.5,350.1055" style="stroke:#181818;stroke-width:1.0;"/><line style="stroke:#181818;stroke-width:1.0;" x1="263.5" x2="573" y1="350.1055" y2="350.1055"/><text fill="#000000" font-family="sans-serif" font-size="13" lengthAdjust="spacing" textLength="50" x="275.5" y="345.3633">Allowed</text><polygon fill="#181818" points="473.5,375.416,483.5,379.416,473.5,383.416,477.5,379.416" style="stroke:#181818;stroke-width:1.0;"/><line style="stroke:#181818;stroke-width:1.0;" x1="258.5" x2="479.5" y1="379.416" y2="379.416"/><text fill="#000000" font-family="sans-serif" font-size="13" lengthAdjust="spacing" textLength="145" x="265.5" y="374.6738">Validate phone number</text><path d="M20,394.416 L82,394.416 L82,401.7266 L72,411.7266 L20,411.7266 L20,394.416 " fill="#EEEEEE" style="stroke:#000000;stroke-width:1.5;"/><rect fill="none" height="208.1289" style="stroke:#000000;stroke-width:1.5;" width="946.5" x="20" y="394.416"/><text fill="#000000" font-family="sans-serif" font-size="13" font-weight="bold" lengthAdjust="spacing" textLength="17" x="35" y="407.9844">alt</text><text fill="#000000" font-family="sans-serif" font-size="11" font-weight="bold" lengthAdjust="spacing" textLength="132" x="97" y="407.0508">[Invalid phone number]</text><polygon fill="#181818" points="883.5,429.0371,893.5,433.0371,883.5,437.0371,887.5,433.0371" style="stroke:#181818;stroke-width:1.0;"/><line style="stroke:#181818;stroke-width:1.0;" x1="485.5" x2="889.5" y1="433.0371" y2="433.0371"/><text fill="#000000" font-family="sans-serif" font-size="13" lengthAdjust="spacing" textLength="164" x="492.5" y="428.2949">Log invalid phone number</text><polygon fill="#181818" points="269.5,458.3477,259.5,462.3477,269.5,466.3477,265.5,462.3477" style="stroke:#181818;stroke-width:1.0;"/><line style="stroke:#181818;stroke-width:1.0;" x1="263.5" x2="484.5" y1="462.3477" y2="462.3477"/><text fill="#000000" font-family="sans-serif" font-size="13" lengthAdjust="spacing" textLength="91" x="275.5" y="457.6055">Error response</text><polygon fill="#181818" points="59.5,487.6582,49.5,491.6582,59.5,495.6582,55.5,491.6582" style="stroke:#181818;stroke-width:1.0;"/><line style="stroke:#181818;stroke-width:1.0;" x1="53.5" x2="257.5" y1="491.6582" y2="491.6582"/><text fill="#000000" font-family="sans-serif" font-size="13" lengthAdjust="spacing" textLength="165" x="65.5" y="486.916">400 Invalid phone number</text><line style="stroke:#000000;stroke-width:1.0;stroke-dasharray:2.0,2.0;" x1="20" x2="966.5" y1="500.6582" y2="500.6582"/><text fill="#000000" font-family="sans-serif" font-size="11" font-weight="bold" lengthAdjust="spacing" textLength="122" x="25" y="511.293">[Valid phone number]</text><polygon fill="#181818" points="883.5,531.9238,893.5,535.9238,883.5,539.9238,887.5,535.9238" style="stroke:#181818;stroke-width:1.0;"/><line style="stroke:#181818;stroke-width:1.0;" x1="485.5" x2="889.5" y1="535.9238" y2="535.9238"/><text fill="#000000" font-family="sans-serif" font-size="13" lengthAdjust="spacing" textLength="171" x="492.5" y="531.1816">Log successful submission</text><polygon fill="#181818" points="658,561.2344,668,565.2344,658,569.2344,662,565.2344" style="stroke:#181818;stroke-width:1.0;"/><line style="stroke:#181818;stroke-width:1.0;" x1="485.5" x2="664" y1="565.2344" y2="565.2344"/><text fill="#000000" font-family="sans-serif" font-size="13" lengthAdjust="spacing" textLength="127" x="492.5" y="560.4922">Store phone number</text><polygon fill="#181818" points="59.5,590.5449,49.5,594.5449,59.5,598.5449,55.5,594.5449" style="stroke:#181818;stroke-width:1.0;"/><line style="stroke:#181818;stroke-width:1.0;" x1="53.5" x2="257.5" y1="594.5449" y2="594.5449"/><text fill="#000000" font-family="sans-serif" font-size="13" lengthAdjust="spacing" textLength="186" x="65.5" y="589.8027">200 Phone number submitted</text><rect fill="#EEEEEE" height="3" style="stroke:#EEEEEE;stroke-width:1.0;" width="986.5" x="0" y="637.2002"/><line style="stroke:#000000;stroke-width:1.0;" x1="0" x2="986.5" y1="637.2002" y2="637.2002"/><line style="stroke:#000000;stroke-width:1.0;" x1="0" x2="986.5" y1="640.2002" y2="640.2002"/><rect fill="#EEEEEE" height="23.3105" style="stroke:#000000;stroke-width:2.0;" width="225" x="380.75" y="626.5449"/><text fill="#000000" font-family="sans-serif" font-size="13" font-weight="bold" lengthAdjust="spacing" textLength="207" x="386.75" y="643.1133">Confirmation Code Submission</text><polygon fill="#181818" points="246.5,677.166,256.5,681.166,246.5,685.166,250.5,681.166" style="stroke:#181818;stroke-width:1.0;"/><line style="stroke:#181818;stroke-width:1.0;" x1="48.5" x2="252.5" y1="681.166" y2="681.166"/><text fill="#000000" font-family="sans-serif" font-size="13" lengthAdjust="spacing" textLength="110" x="55.5" y="676.4238">POST /code/send</text><polygon fill="#181818" points="562,706.4766,572,710.4766,562,714.4766,566,710.4766" style="stroke:#181818;stroke-width:1.0;"/><line style="stroke:#181818;stroke-width:1.0;" x1="258.5" x2="568" y1="710.4766" y2="710.4766"/><text fill="#000000" font-family="sans-serif" font-size="13" lengthAdjust="spacing" textLength="100" x="265.5" y="705.7344">Check rate limit</text><path d="M10,725.4766 L72,725.4766 L72,732.7871 L62,742.7871 L10,742.7871 L10,725.4766 " fill="#EEEEEE" style="stroke:#000000;stroke-width:1.5;"/><rect fill="none" height="461.5684" style="stroke:#000000;stroke-width:1.5;" width="966.5" x="10" y="725.4766"/><text fill="#000000" font-family="sans-serif" font-size="13" font-weight="bold" lengthAdjust="spacing" textLength="17" x="25" y="739.0449">alt</text><text fill="#000000" font-family="sans-serif" font-size="11" font-weight="bold" lengthAdjust="spacing" textLength="117" x="87" y="738.1113">[Rate limit exceeded]</text><polygon fill="#181818" points="269.5,760.0977,259.5,764.0977,269.5,768.0977,265.5,764.0977" style="stroke:#181818;stroke-width:1.0;"/><line style="stroke:#181818;stroke-width:1.0;" x1="263.5" x2="573" y1="764.0977" y2="764.0977"/><text fill="#000000" font-family="sans-serif" font-size="13" lengthAdjust="spacing" textLength="94" x="275.5" y="759.3555">Rate limit error</text><polygon fill="#181818" points="59.5,789.4082,49.5,793.4082,59.5,797.4082,55.5,793.4082" style="stroke:#181818;stroke-width:1.0;"/><line style="stroke:#181818;stroke-width:1.0;" x1="53.5" x2="257.5" y1="793.4082" y2="793.4082"/><text fill="#000000" font-family="sans-serif" font-size="13" lengthAdjust="spacing" textLength="150" x="65.5" y="788.666">429 Too Many Requests</text><line style="stroke:#000000;stroke-width:1.0;stroke-dasharray:2.0,2.0;" x1="10" x2="976.5" y1="802.4082" y2="802.4082"/><text fill="#000000" font-family="sans-serif" font-size="11" font-weight="bold" lengthAdjust="spacing" textLength="100" x="15" y="813.043">[Within rate limit]</text><polygon fill="#181818" points="269.5,833.6738,259.5,837.6738,269.5,841.6738,265.5,837.6738" style="stroke:#181818;stroke-width:1.0;"/><line style="stroke:#181818;stroke-width:1.0;" x1="263.5" x2="573" y1="837.6738" y2="837.6738"/><text fill="#000000" font-family="sans-serif" font-size="13" lengthAdjust="spacing" textLength="50" x="275.5" y="832.9316">Allowed</text><polygon fill="#181818" points="473.5,862.9844,483.5,866.9844,473.5,870.9844,477.5,866.9844" style="stroke:#181818;stroke-width:1.0;"/><line style="stroke:#181818;stroke-width:1.0;" x1="258.5" x2="479.5" y1="866.9844" y2="866.9844"/><text fill="#000000" font-family="sans-serif" font-size="13" lengthAdjust="spacing" textLength="174" x="265.5" y="862.2422">Generate confirmation code</text><polygon fill="#181818" points="658,892.2949,668,896.2949,658,900.2949,662,896.2949" style="stroke:#181818;stroke-width:1.0;"/><line style="stroke:#181818;stroke-width:1.0;" x1="485.5" x2="664" y1="896.2949" y2="896.2949"/><text fill="#000000" font-family="sans-serif" font-size="13" lengthAdjust="spacing" textLength="140" x="492.5" y="891.5527">Store code with expiry</text><polygon fill="#181818" points="753.5,921.6055,763.5,925.6055,753.5,929.6055,757.5,925.6055" style="stroke:#181818;stroke-width:1.0;"/><line style="stroke:#181818;stroke-width:1.0;" x1="485.5" x2="759.5" y1="925.6055" y2="925.6055"/><text fill="#000000" font-family="sans-serif" font-size="13" lengthAdjust="spacing" textLength="59" x="492.5" y="920.8633">Send SMS</text><path d="M20,940.6055 L82,940.6055 L82,947.916 L72,957.916 L20,957.916 L20,940.6055 " fill="#EEEEEE" style="stroke:#000000;stroke-width:1.5;"/><rect fill="none" height="239.4395" style="stroke:#000000;stroke-width:1.5;" width="946.5" x="20" y="940.6055"/><text fill="#000000" font-family="sans-serif" font-size="13" font-weight="bold" lengthAdjust="spacing" textLength="17" x="35" y="954.1738">alt</text><text fill="#000000" font-family="sans-serif" font-size="11" font-weight="bold" lengthAdjust="spacing" textLength="115" x="97" y="953.2402">[SMS service failure]</text><polygon fill="#181818" points="883.5,975.2266,893.5,979.2266,883.5,983.2266,887.5,979.2266" style="stroke:#181818;stroke-width:1.0;"/><line style="stroke:#181818;stroke-width:1.0;" x1="765.5" x2="889.5" y1="979.2266" y2="979.2266"/><text fill="#000000" font-family="sans-serif" font-size="13" lengthAdjust="spacing" textLength="96" x="772.5" y="974.4844">Log SMS failure</text><polygon fill="#181818" points="269.5,1004.5371,259.5,1008.5371,269.5,1012.5371,265.5,1008.5371" style="stroke:#181818;stroke-width:1.0;"/><line style="stroke:#181818;stroke-width:1.0;" x1="263.5" x2="764.5" y1="1008.5371" y2="1008.5371"/><text fill="#000000" font-family="sans-serif" font-size="13" lengthAdjust="spacing" textLength="91" x="275.5" y="1003.7949">Error response</text><polygon fill="#181818" points="59.5,1033.8477,49.5,1037.8477,59.5,1041.8477,55.5,1037.8477" style="stroke:#181818;stroke-width:1.0;"/><line style="stroke:#181818;stroke-width:1.0;" x1="53.5" x2="257.5" y1="1037.8477" y2="1037.8477"/><text fill="#000000" font-family="sans-serif" font-size="13" lengthAdjust="spacing" textLength="151" x="65.5" y="1033.1055">500 Unable to send SMS</text><path d="M200,1052.8477 L274,1052.8477 L274,1060.1582 L264,1070.1582 L200,1070.1582 L200,1052.8477 " fill="#EEEEEE" style="stroke:#000000;stroke-width:1.5;"/><rect fill="none" height="46.6211" style="stroke:#000000;stroke-width:1.5;" width="622.5" x="200" y="1052.8477"/><text fill="#000000" font-family="sans-serif" font-size="13" font-weight="bold" lengthAdjust="spacing" textLength="29" x="215" y="1066.416">loop</text><text fill="#000000" font-family="sans-serif" font-size="11" font-weight="bold" lengthAdjust="spacing" textLength="105" x="289" y="1065.4824">[Retry mechanism]</text><polygon fill="#181818" points="753.5,1087.4688,763.5,1091.4688,753.5,1095.4688,757.5,1091.4688" style="stroke:#181818;stroke-width:1.0;"/><line style="stroke:#181818;stroke-width:1.0;" x1="258.5" x2="759.5" y1="1091.4688" y2="1091.4688"/><text fill="#000000" font-family="sans-serif" font-size="13" lengthAdjust="spacing" textLength="115" x="265.5" y="1086.7266">Retry sending SMS</text><line style="stroke:#000000;stroke-width:1.0;stroke-dasharray:2.0,2.0;" x1="20" x2="966.5" y1="1107.4688" y2="1107.4688"/><text fill="#000000" font-family="sans-serif" font-size="11" font-weight="bold" lengthAdjust="spacing" textLength="130" x="25" y="1118.1035">[SMS sent successfully]</text><polygon fill="#181818" points="883.5,1138.7344,893.5,1142.7344,883.5,1146.7344,887.5,1142.7344" style="stroke:#181818;stroke-width:1.0;"/><line style="stroke:#181818;stroke-width:1.0;" x1="765.5" x2="889.5" y1="1142.7344" y2="1142.7344"/><text fill="#000000" font-family="sans-serif" font-size="13" lengthAdjust="spacing" textLength="106" x="772.5" y="1137.9922">Log SMS success</text><polygon fill="#181818" points="59.5,1168.0449,49.5,1172.0449,59.5,1176.0449,55.5,1172.0449" style="stroke:#181818;stroke-width:1.0;"/><line style="stroke:#181818;stroke-width:1.0;" x1="53.5" x2="257.5" y1="1172.0449" y2="1172.0449"/><text fill="#000000" font-family="sans-serif" font-size="13" lengthAdjust="spacing" textLength="91" x="65.5" y="1167.3027">200 Code sent</text><rect fill="#EEEEEE" height="3" style="stroke:#EEEEEE;stroke-width:1.0;" width="986.5" x="0" y="1214.7002"/><line style="stroke:#000000;stroke-width:1.0;" x1="0" x2="986.5" y1="1214.7002" y2="1214.7002"/><line style="stroke:#000000;stroke-width:1.0;" x1="0" x2="986.5" y1="1217.7002" y2="1217.7002"/><rect fill="#EEEEEE" height="23.3105" style="stroke:#000000;stroke-width:2.0;" width="165" x="410.75" y="1204.0449"/><text fill="#000000" font-family="sans-serif" font-size="13" font-weight="bold" lengthAdjust="spacing" textLength="147" x="416.75" y="1220.6133">Code Resend Request</text><polygon fill="#181818" points="246.5,1254.666,256.5,1258.666,246.5,1262.666,250.5,1258.666" style="stroke:#181818;stroke-width:1.0;"/><line style="stroke:#181818;stroke-width:1.0;" x1="48.5" x2="252.5" y1="1258.666" y2="1258.666"/><text fill="#000000" font-family="sans-serif" font-size="13" lengthAdjust="spacing" textLength="115" x="55.5" y="1253.9238">POST /code/verify</text><polygon fill="#181818" points="562,1283.9766,572,1287.9766,562,1291.9766,566,1287.9766" style="stroke:#181818;stroke-width:1.0;"/><line style="stroke:#181818;stroke-width:1.0;" x1="258.5" x2="568" y1="1287.9766" y2="1287.9766"/><text fill="#000000" font-family="sans-serif" font-size="13" lengthAdjust="spacing" textLength="100" x="265.5" y="1283.2344">Check rate limit</text><path d="M10,1302.9766 L72,1302.9766 L72,1310.2871 L62,1320.2871 L10,1320.2871 L10,1302.9766 " fill="#EEEEEE" style="stroke:#000000;stroke-width:1.5;"/><rect fill="none" height="371.6367" style="stroke:#000000;stroke-width:1.5;" width="966.5" x="10" y="1302.9766"/><text fill="#000000" font-family="sans-serif" font-size="13" font-weight="bold" lengthAdjust="spacing" textLength="17" x="25" y="1316.5449">alt</text><text fill="#000000" font-family="sans-serif" font-size="11" font-weight="bold" lengthAdjust="spacing" textLength="117" x="87" y="1315.6113">[Rate limit exceeded]</text><polygon fill="#181818" points="269.5,1337.5977,259.5,1341.5977,269.5,1345.5977,265.5,1341.5977" style="stroke:#181818;stroke-width:1.0;"/><line style="stroke:#181818;stroke-width:1.0;" x1="263.5" x2="573" y1="1341.5977" y2="1341.5977"/><text fill="#000000" font-family="sans-serif" font-size="13" lengthAdjust="spacing" textLength="94" x="275.5" y="1336.8555">Rate limit error</text><polygon fill="#181818" points="59.5,1366.9082,49.5,1370.9082,59.5,1374.9082,55.5,1370.9082" style="stroke:#181818;stroke-width:1.0;"/><line style="stroke:#181818;stroke-width:1.0;" x1="53.5" x2="257.5" y1="1370.9082" y2="1370.9082"/><text fill="#000000" font-family="sans-serif" font-size="13" lengthAdjust="spacing" textLength="150" x="65.5" y="1366.166">429 Too Many Requests</text><line style="stroke:#000000;stroke-width:1.0;stroke-dasharray:2.0,2.0;" x1="10" x2="976.5" y1="1379.9082" y2="1379.9082"/><text fill="#000000" font-family="sans-serif" font-size="11" font-weight="bold" lengthAdjust="spacing" textLength="100" x="15" y="1390.543">[Within rate limit]</text><polygon fill="#181818" points="269.5,1411.1738,259.5,1415.1738,269.5,1419.1738,265.5,1415.1738" style="stroke:#181818;stroke-width:1.0;"/><line style="stroke:#181818;stroke-width:1.0;" x1="263.5" x2="573" y1="1415.1738" y2="1415.1738"/><text fill="#000000" font-family="sans-serif" font-size="13" lengthAdjust="spacing" textLength="50" x="275.5" y="1410.4316">Allowed</text><polygon fill="#181818" points="473.5,1440.4844,483.5,1444.4844,473.5,1448.4844,477.5,1444.4844" style="stroke:#181818;stroke-width:1.0;"/><line style="stroke:#181818;stroke-width:1.0;" x1="258.5" x2="479.5" y1="1444.4844" y2="1444.4844"/><text fill="#000000" font-family="sans-serif" font-size="13" lengthAdjust="spacing" textLength="162" x="265.5" y="1439.7422">Fetch code from database</text><path d="M20,1459.4844 L82,1459.4844 L82,1466.7949 L72,1476.7949 L20,1476.7949 L20,1459.4844 " fill="#EEEEEE" style="stroke:#000000;stroke-width:1.5;"/><rect fill="none" height="208.1289" style="stroke:#000000;stroke-width:1.5;" width="946.5" x="20" y="1459.4844"/><text fill="#000000" font-family="sans-serif" font-size="13" font-weight="bold" lengthAdjust="spacing" textLength="17" x="35" y="1473.0527">alt</text><text fill="#000000" font-family="sans-serif" font-size="11" font-weight="bold" lengthAdjust="spacing" textLength="140" x="97" y="1472.1191">[Code invalid or expired]</text><polygon fill="#181818" points="883.5,1494.1055,893.5,1498.1055,883.5,1502.1055,887.5,1498.1055" style="stroke:#181818;stroke-width:1.0;"/><line style="stroke:#181818;stroke-width:1.0;" x1="485.5" x2="889.5" y1="1498.1055" y2="1498.1055"/><text fill="#000000" font-family="sans-serif" font-size="13" lengthAdjust="spacing" textLength="137" x="492.5" y="1493.3633">Log failed verification</text><polygon fill="#181818" points="269.5,1523.416,259.5,1527.416,269.5,1531.416,265.5,1527.416" style="stroke:#181818;stroke-width:1.0;"/><line style="stroke:#181818;stroke-width:1.0;" x1="263.5" x2="484.5" y1="1527.416" y2="1527.416"/><text fill="#000000" font-family="sans-serif" font-size="13" lengthAdjust="spacing" textLength="91" x="275.5" y="1522.6738">Error response</text><polygon fill="#181818" points="59.5,1552.7266,49.5,1556.7266,59.5,1560.7266,55.5,1556.7266" style="stroke:#181818;stroke-width:1.0;"/><line style="stroke:#181818;stroke-width:1.0;" x1="53.5" x2="257.5" y1="1556.7266" y2="1556.7266"/><text fill="#000000" font-family="sans-serif" font-size="13" lengthAdjust="spacing" textLength="172" x="65.5" y="1551.9844">400 Invalid or expired code</text><line style="stroke:#000000;stroke-width:1.0;stroke-dasharray:2.0,2.0;" x1="20" x2="966.5" y1="1565.7266" y2="1565.7266"/><text fill="#000000" font-family="sans-serif" font-size="11" font-weight="bold" lengthAdjust="spacing" textLength="68" x="25" y="1576.3613">[Code valid]</text><polygon fill="#181818" points="883.5,1596.9922,893.5,1600.9922,883.5,1604.9922,887.5,1600.9922" style="stroke:#181818;stroke-width:1.0;"/><line style="stroke:#181818;stroke-width:1.0;" x1="485.5" x2="889.5" y1="1600.9922" y2="1600.9922"/><text fill="#000000" font-family="sans-serif" font-size="13" lengthAdjust="spacing" textLength="169" x="492.5" y="1596.25">Log successful verification</text><polygon fill="#181818" points="658,1626.3027,668,1630.3027,658,1634.3027,662,1630.3027" style="stroke:#181818;stroke-width:1.0;"/><line style="stroke:#181818;stroke-width:1.0;" x1="485.5" x2="664" y1="1630.3027" y2="1630.3027"/><text fill="#000000" font-family="sans-serif" font-size="13" lengthAdjust="spacing" textLength="144" x="492.5" y="1625.5605">Update user as verified</text><polygon fill="#181818" points="59.5,1655.6133,49.5,1659.6133,59.5,1663.6133,55.5,1659.6133" style="stroke:#181818;stroke-width:1.0;"/><line style="stroke:#181818;stroke-width:1.0;" x1="53.5" x2="257.5" y1="1659.6133" y2="1659.6133"/><text fill="#000000" font-family="sans-serif" font-size="13" lengthAdjust="spacing" textLength="171" x="65.5" y="1654.8711">200 Verification successful</text><rect fill="#EEEEEE" height="3" style="stroke:#EEEEEE;stroke-width:1.0;" width="986.5" x="0" y="1702.2686"/><line style="stroke:#000000;stroke-width:1.0;" x1="0" x2="986.5" y1="1702.2686" y2="1702.2686"/><line style="stroke:#000000;stroke-width:1.0;" x1="0" x2="986.5" y1="1705.2686" y2="1705.2686"/><rect fill="#EEEEEE" height="23.3105" style="stroke:#000000;stroke-width:2.0;" width="125" x="430.75" y="1691.6133"/><text fill="#000000" font-family="sans-serif" font-size="13" font-weight="bold" lengthAdjust="spacing" textLength="107" x="436.75" y="1708.1816">Periodic Backup</text><polygon fill="#181818" points="246.5,1742.2344,256.5,1746.2344,246.5,1750.2344,250.5,1746.2344" style="stroke:#181818;stroke-width:1.0;"/><line style="stroke:#181818;stroke-width:1.0;" x1="48.5" x2="252.5" y1="1746.2344" y2="1746.2344"/><text fill="#000000" font-family="sans-serif" font-size="13" lengthAdjust="spacing" textLength="122" x="55.5" y="1741.4922">POST /code/resend</text><polygon fill="#181818" points="562,1771.5449,572,1775.5449,562,1779.5449,566,1775.5449" style="stroke:#181818;stroke-width:1.0;"/><line style="stroke:#181818;stroke-width:1.0;" x1="258.5" x2="568" y1="1775.5449" y2="1775.5449"/><text fill="#000000" font-family="sans-serif" font-size="13" lengthAdjust="spacing" textLength="100" x="265.5" y="1770.8027">Check rate limit</text><path d="M10,1790.5449 L72,1790.5449 L72,1797.8555 L62,1807.8555 L10,1807.8555 L10,1790.5449 " fill="#EEEEEE" style="stroke:#000000;stroke-width:1.5;"/><rect fill="none" height="461.5684" style="stroke:#000000;stroke-width:1.5;" width="966.5" x="10" y="1790.5449"/><text fill="#000000" font-family="sans-serif" font-size="13" font-weight="bold" lengthAdjust="spacing" textLength="17" x="25" y="1804.1133">alt</text><text fill="#000000" font-family="sans-serif" font-size="11" font-weight="bold" lengthAdjust="spacing" textLength="117" x="87" y="1803.1797">[Rate limit exceeded]</text><polygon fill="#181818" points="269.5,1825.166,259.5,1829.166,269.5,1833.166,265.5,1829.166" style="stroke:#181818;stroke-width:1.0;"/><line style="stroke:#181818;stroke-width:1.0;" x1="263.5" x2="573" y1="1829.166" y2="1829.166"/><text fill="#000000" font-family="sans-serif" font-size="13" lengthAdjust="spacing" textLength="94" x="275.5" y="1824.4238">Rate limit error</text><polygon fill="#181818" points="59.5,1854.4766,49.5,1858.4766,59.5,1862.4766,55.5,1858.4766" style="stroke:#181818;stroke-width:1.0;"/><line style="stroke:#181818;stroke-width:1.0;" x1="53.5" x2="257.5" y1="1858.4766" y2="1858.4766"/><text fill="#000000" font-family="sans-serif" font-size="13" lengthAdjust="spacing" textLength="150" x="65.5" y="1853.7344">429 Too Many Requests</text><line style="stroke:#000000;stroke-width:1.0;stroke-dasharray:2.0,2.0;" x1="10" x2="976.5" y1="1867.4766" y2="1867.4766"/><text fill="#000000" font-family="sans-serif" font-size="11" font-weight="bold" lengthAdjust="spacing" textLength="100" x="15" y="1878.1113">[Within rate limit]</text><polygon fill="#181818" points="269.5,1898.7422,259.5,1902.7422,269.5,1906.7422,265.5,1902.7422" style="stroke:#181818;stroke-width:1.0;"/><line style="stroke:#181818;stroke-width:1.0;" x1="263.5" x2="573" y1="1902.7422" y2="1902.7422"/><text fill="#000000" font-family="sans-serif" font-size="13" lengthAdjust="spacing" textLength="50" x="275.5" y="1898">Allowed</text><polygon fill="#181818" points="473.5,1928.0527,483.5,1932.0527,473.5,1936.0527,477.5,1932.0527" style="stroke:#181818;stroke-width:1.0;"/><line style="stroke:#181818;stroke-width:1.0;" x1="258.5" x2="479.5" y1="1932.0527" y2="1932.0527"/><text fill="#000000" font-family="sans-serif" font-size="13" lengthAdjust="spacing" textLength="203" x="265.5" y="1927.3105">Generate new confirmation code</text><polygon fill="#181818" points="658,1957.3633,668,1961.3633,658,1965.3633,662,1961.3633" style="stroke:#181818;stroke-width:1.0;"/><line style="stroke:#181818;stroke-width:1.0;" x1="485.5" x2="664" y1="1961.3633" y2="1961.3633"/><text fill="#000000" font-family="sans-serif" font-size="13" lengthAdjust="spacing" textLength="148" x="492.5" y="1956.6211">Update code and expiry</text><polygon fill="#181818" points="753.5,1986.6738,763.5,1990.6738,753.5,1994.6738,757.5,1990.6738" style="stroke:#181818;stroke-width:1.0;"/><line style="stroke:#181818;stroke-width:1.0;" x1="485.5" x2="759.5" y1="1990.6738" y2="1990.6738"/><text fill="#000000" font-family="sans-serif" font-size="13" lengthAdjust="spacing" textLength="59" x="492.5" y="1985.9316">Send SMS</text><path d="M20,2005.6738 L82,2005.6738 L82,2012.9844 L72,2022.9844 L20,2022.9844 L20,2005.6738 " fill="#EEEEEE" style="stroke:#000000;stroke-width:1.5;"/><rect fill="none" height="239.4395" style="stroke:#000000;stroke-width:1.5;" width="946.5" x="20" y="2005.6738"/><text fill="#000000" font-family="sans-serif" font-size="13" font-weight="bold" lengthAdjust="spacing" textLength="17" x="35" y="2019.2422">alt</text><text fill="#000000" font-family="sans-serif" font-size="11" font-weight="bold" lengthAdjust="spacing" textLength="115" x="97" y="2018.3086">[SMS service failure]</text><polygon fill="#181818" points="883.5,2040.2949,893.5,2044.2949,883.5,2048.2949,887.5,2044.2949" style="stroke:#181818;stroke-width:1.0;"/><line style="stroke:#181818;stroke-width:1.0;" x1="765.5" x2="889.5" y1="2044.2949" y2="2044.2949"/><text fill="#000000" font-family="sans-serif" font-size="13" lengthAdjust="spacing" textLength="96" x="772.5" y="2039.5527">Log SMS failure</text><polygon fill="#181818" points="269.5,2069.6055,259.5,2073.6055,269.5,2077.6055,265.5,2073.6055" style="stroke:#181818;stroke-width:1.0;"/><line style="stroke:#181818;stroke-width:1.0;" x1="263.5" x2="764.5" y1="2073.6055" y2="2073.6055"/><text fill="#000000" font-family="sans-serif" font-size="13" lengthAdjust="spacing" textLength="91" x="275.5" y="2068.8633">Error response</text><polygon fill="#181818" points="59.5,2098.916,49.5,2102.916,59.5,2106.916,55.5,2102.916" style="stroke:#181818;stroke-width:1.0;"/><line style="stroke:#181818;stroke-width:1.0;" x1="53.5" x2="257.5" y1="2102.916" y2="2102.916"/><text fill="#000000" font-family="sans-serif" font-size="13" lengthAdjust="spacing" textLength="163" x="65.5" y="2098.1738">500 Unable to resend SMS</text><path d="M200,2117.916 L274,2117.916 L274,2125.2266 L264,2135.2266 L200,2135.2266 L200,2117.916 " fill="#EEEEEE" style="stroke:#000000;stroke-width:1.5;"/><rect fill="none" height="46.6211" style="stroke:#000000;stroke-width:1.5;" width="622.5" x="200" y="2117.916"/><text fill="#000000" font-family="sans-serif" font-size="13" font-weight="bold" lengthAdjust="spacing" textLength="29" x="215" y="2131.4844">loop</text><text fill="#000000" font-family="sans-serif" font-size="11" font-weight="bold" lengthAdjust="spacing" textLength="105" x="289" y="2130.5508">[Retry mechanism]</text><polygon fill="#181818" points="753.5,2152.5371,763.5,2156.5371,753.5,2160.5371,757.5,2156.5371" style="stroke:#181818;stroke-width:1.0;"/><line style="stroke:#181818;stroke-width:1.0;" x1="258.5" x2="759.5" y1="2156.5371" y2="2156.5371"/><text fill="#000000" font-family="sans-serif" font-size="13" lengthAdjust="spacing" textLength="115" x="265.5" y="2151.7949">Retry sending SMS</text><line style="stroke:#000000;stroke-width:1.0;stroke-dasharray:2.0,2.0;" x1="20" x2="966.5" y1="2172.5371" y2="2172.5371"/><text fill="#000000" font-family="sans-serif" font-size="11" font-weight="bold" lengthAdjust="spacing" textLength="130" x="25" y="2183.1719">[SMS sent successfully]</text><polygon fill="#181818" points="883.5,2203.8027,893.5,2207.8027,883.5,2211.8027,887.5,2207.8027" style="stroke:#181818;stroke-width:1.0;"/><line style="stroke:#181818;stroke-width:1.0;" x1="765.5" x2="889.5" y1="2207.8027" y2="2207.8027"/><text fill="#000000" font-family="sans-serif" font-size="13" lengthAdjust="spacing" textLength="106" x="772.5" y="2203.0605">Log SMS success</text><polygon fill="#181818" points="59.5,2233.1133,49.5,2237.1133,59.5,2241.1133,55.5,2237.1133" style="stroke:#181818;stroke-width:1.0;"/><line style="stroke:#181818;stroke-width:1.0;" x1="53.5" x2="257.5" y1="2237.1133" y2="2237.1133"/><text fill="#000000" font-family="sans-serif" font-size="13" lengthAdjust="spacing" textLength="103" x="65.5" y="2232.3711">200 Code resent</text><!--SRC=[xLRVJzim47xFNt7YVGAXxM6LEed1Xf1WgoW_dbtdsbeaTcOxbFptyvsJne522z9UO94grV5tF_pvkxjuvGk4eyaPd6cFLaYlZ8OJ9HPMbB1IVWcNw6q3GkTmAJp2kIgLLtgHPG5iB5mxj5abh5TILK9xs2Dlfm6w4iqU24VUs-KGDssSnv8XyUzmku-6ba7qebqFaIV2YvbmoAXkyIZMnHIcQE-LZAYmRfT3tBbPBCBX1jZsNOVFncEOB8r6-5MNCxGmhMUbSew86uypuWC-VKjEFOB9x-aLx5TajEy8xRD-cy39qKPml4Hv1vQENz2xJ1G-SizBm0U9c6EUGNWIoyTHKnDhZMNyC2ubEuBFXr_XoXYu4Be9r_sdHkTTXeL3k0qAK3fDPalGew8mgpQtOQnunoEu4ONAoH_p0Pf9P3oTyqpVq_xJJNgY2t8sl9CHhK7jPffc-uDu0OkkCZf8fWDl9EdWuFdacAkRjoRkQYdHkNbTW5jhQODj9-qHJ4FbuUPGct8_3BbF4d0CutrxJwZpZ7uixMEZvygMWXl1iSbnPttB0DvtvEZZYliKDR8_cT98p6GltoL1Oh_5XqhPvX6yxrV1851CBzOrGytDnLsO2rNKjfToR_YS-iZwPQitLioNeBfhBMPXm7W3BisQdiAOgXqk9SgbqCgLwyqD32SCH2looBqwSKhgMnTav2MqzRx0YkQLpBIcMykBAuM2RQgei7M9J40hm1qAwHwjcZSVk9H-efVBM1TpQqh8ky7UoPvvxPf-42KNJkjoUzCboMCEJBEINAV_PbZqcVLzW3dZ_1dp-Zcn9Us-krnNF6jh4blubebs2KdFwVac2P04VghkIG2QN4duBkHTNUsWR8l_XqGS4XfNhnWKxLLoHT3d-3iT554UxtrKy2c7m-8l]--></g></svg>