<?xml version="1.0" encoding="us-ascii" standalone="no"?><svg xmlns="http://www.w3.org/2000/svg" xmlns:xlink="http://www.w3.org/1999/xlink" contentStyleType="text/css" height="474px" preserveAspectRatio="none" style="width:1168px;height:474px;background:#FFFFFF;" version="1.1" viewBox="0 0 1168 474" width="1168px" zoomAndPan="magnify"><defs/><g><text fill="#000000" font-family="sans-serif" font-size="14" font-weight="bold" lengthAdjust="spacing" textLength="242" x="456" y="23.5352">API Layered Architecture Diagram</text><!--cluster User Interface Layer--><g id="cluster_User Interface Layer"><rect fill="none" height="127.48" rx="2.5" ry="2.5" style="stroke:#181818;stroke-width:1.0;" width="400" x="7" y="44.4883"/><text fill="#000000" font-family="sans-serif" font-size="14" font-weight="bold" lengthAdjust="spacing" textLength="143" x="135.5" y="60.0234">User Interface Layer</text></g><!--cluster API Layer--><g id="cluster_API Layer"><rect fill="none" height="87.49" rx="2.5" ry="2.5" style="stroke:#181818;stroke-width:1.0;" width="136" x="525" y="235.9683"/><text fill="#000000" font-family="sans-serif" font-size="14" font-weight="bold" lengthAdjust="spacing" textLength="67" x="559.5" y="251.5034">API Layer</text></g><!--cluster Business Logic Layer--><g id="cluster_Business Logic Layer"><rect fill="none" height="258.97" rx="2.5" ry="2.5" style="stroke:#181818;stroke-width:1.0;" width="369" x="793" y="64.4883"/><text fill="#000000" font-family="sans-serif" font-size="14" font-weight="bold" lengthAdjust="spacing" textLength="150" x="902.5" y="80.0234">Business Logic Layer</text></g><!--cluster Data Layer--><g id="cluster_Data Layer"><rect fill="none" height="96.49" rx="2.5" ry="2.5" style="stroke:#181818;stroke-width:1.0;" width="116" x="803" y="372.4583"/><text fill="#000000" font-family="sans-serif" font-size="14" font-weight="bold" lengthAdjust="spacing" textLength="76" x="823" y="387.9934">Data Layer</text></g><!--entity User--><g id="elem_User"><ellipse cx="39" cy="87.9883" fill="#F1F1F1" rx="8" ry="8" style="stroke:#181818;stroke-width:0.5;"/><path d="M39,95.9883 L39,122.9883 M26,103.9883 L52,103.9883 M39,122.9883 L26,137.9883 M39,122.9883 L52,137.9883 " fill="none" style="stroke:#181818;stroke-width:0.5;"/><text fill="#000000" font-family="sans-serif" font-size="14" lengthAdjust="spacing" textLength="31" x="23.5" y="153.0234">User</text></g><!--entity Frontend--><g id="elem_Frontend"><rect fill="#F1F1F1" height="36.4883" rx="2.5" ry="2.5" style="stroke:#181818;stroke-width:0.5;" width="161" x="230.5" y="99.4883"/><text fill="#000000" font-family="sans-serif" font-size="14" lengthAdjust="spacing" textLength="141" x="240.5" y="123.0234">Frontend (Web/App)</text></g><!--entity APIGateway--><g id="elem_APIGateway"><rect fill="#F1F1F1" height="36.4883" rx="2.5" ry="2.5" style="stroke:#181818;stroke-width:0.5;" width="103" x="541.5" y="270.9683"/><text fill="#000000" font-family="sans-serif" font-size="14" lengthAdjust="spacing" textLength="83" x="551.5" y="294.5034">API Gateway</text></g><!--entity RateLimiter--><g id="elem_RateLimiter"><rect fill="#F1F1F1" height="36.4883" rx="2.5" ry="2.5" style="stroke:#181818;stroke-width:0.5;" width="101" x="809.5" y="99.4883"/><text fill="#000000" font-family="sans-serif" font-size="14" lengthAdjust="spacing" textLength="81" x="819.5" y="123.0234">Rate Limiter</text></g><!--entity System--><g id="elem_System"><rect fill="#F1F1F1" height="36.4883" rx="2.5" ry="2.5" style="stroke:#181818;stroke-width:0.5;" width="105" x="808.5" y="270.9683"/><text fill="#000000" font-family="sans-serif" font-size="14" lengthAdjust="spacing" textLength="85" x="818.5" y="294.5034">Core System</text></g><!--entity SMSService--><g id="elem_SMSService"><rect fill="#F1F1F1" height="36.4883" rx="2.5" ry="2.5" style="stroke:#181818;stroke-width:0.5;" width="100" x="972" y="99.4883"/><text fill="#000000" font-family="sans-serif" font-size="14" lengthAdjust="spacing" textLength="80" x="982" y="123.0234">SMS Service</text></g><!--entity LoggingService--><g id="elem_LoggingService"><rect fill="#F1F1F1" height="36.4883" rx="2.5" ry="2.5" style="stroke:#181818;stroke-width:0.5;" width="128" x="1018" y="270.9683"/><text fill="#000000" font-family="sans-serif" font-size="14" lengthAdjust="spacing" textLength="108" x="1028" y="294.5034">Logging Service</text></g><!--entity Database--><g id="elem_Database"><path d="M819.5,417.4583 C819.5,407.4583 861,407.4583 861,407.4583 C861,407.4583 902.5,407.4583 902.5,417.4583 L902.5,442.9466 C902.5,452.9466 861,452.9466 861,452.9466 C861,452.9466 819.5,452.9466 819.5,442.9466 L819.5,417.4583 " fill="#F1F1F1" style="stroke:#181818;stroke-width:0.5;"/><path d="M819.5,417.4583 C819.5,427.4583 861,427.4583 861,427.4583 C861,427.4583 902.5,427.4583 902.5,417.4583 " fill="none" style="stroke:#181818;stroke-width:0.5;"/><text fill="#000000" font-family="sans-serif" font-size="14" lengthAdjust="spacing" textLength="63" x="829.5" y="444.9934">Database</text></g><!--link User to Frontend--><g id="link_User_Frontend"><path d="M54.8,117.7283 C88.3,117.7283 162.47,117.7283 224.28,117.7283 " fill="none" id="User-to-Frontend" style="stroke:#181818;stroke-width:1.0;"/><polygon fill="#181818" points="230.28,117.7283,221.28,113.7283,225.28,117.7283,221.28,121.7283,230.28,117.7283" style="stroke:#181818;stroke-width:1.0;"/><text fill="#000000" font-family="sans-serif" font-size="13" lengthAdjust="spacing" textLength="139" x="73" y="81.2966">Submit phone number</text><text fill="#000000" font-family="sans-serif" font-size="13" lengthAdjust="spacing" textLength="84" x="100.5" y="96.6072">Request code</text><text fill="#000000" font-family="sans-serif" font-size="13" lengthAdjust="spacing" textLength="70" x="107.5" y="111.9177">Verify code</text></g><!--link Frontend to APIGateway--><g id="link_Frontend_APIGateway"><path d="M275.2,136.4183 C239.65,156.3183 193.82,189.7883 219,219.9683 C259.43,268.4383 442.1857,282.317 535.0857,286.367 " fill="none" id="Frontend-to-APIGateway" style="stroke:#181818;stroke-width:1.0;"/><polygon fill="#181818" points="541.08,286.6283,532.2628,282.2401,536.0847,286.4105,531.9143,290.2325,541.08,286.6283" style="stroke:#181818;stroke-width:1.0;"/><text fill="#000000" font-family="sans-serif" font-size="13" lengthAdjust="spacing" textLength="89" x="243.5" y="201.5366">REST API Calls</text><text fill="#000000" font-family="sans-serif" font-size="13" lengthAdjust="spacing" textLength="136" x="220" y="216.8472">(e.g., /phone/submit)</text></g><!--reverse link Frontend to APIGateway--><g id="link_Frontend_APIGateway"><path d="M329.4017,140.8579 C348.4117,162.9679 379.84,196.3583 417,219.9683 C455.72,244.5783 504.73,262.6883 541.19,274.0383 " fill="none" id="Frontend-backto-APIGateway" style="stroke:#181818;stroke-width:1.0;"/><polygon fill="#181818" points="325.49,136.3083,328.3245,145.7404,328.7497,140.0996,334.3906,140.5249,325.49,136.3083" style="stroke:#181818;stroke-width:1.0;"/><text fill="#000000" font-family="sans-serif" font-size="13" lengthAdjust="spacing" textLength="67" x="460" y="201.5366">Responses</text><text fill="#000000" font-family="sans-serif" font-size="13" lengthAdjust="spacing" textLength="151" x="418" y="216.8472">(200 OK, 400 Error, etc.)</text></g><!--link APIGateway to RateLimiter--><g id="link_APIGateway_RateLimiter"><path d="M586.31,270.5583 C579.31,248.7483 571.64,211.6283 590,187.9683 C616.62,153.6583 732.7086,134.18 803.2586,125.15 " fill="none" id="APIGateway-to-RateLimiter" style="stroke:#181818;stroke-width:1.0;"/><polygon fill="#181818" points="809.21,124.3883,799.775,121.5633,804.2505,125.0231,800.7907,129.4985,809.21,124.3883" style="stroke:#181818;stroke-width:1.0;"/><text fill="#000000" font-family="sans-serif" font-size="13" lengthAdjust="spacing" textLength="107" x="591" y="209.0366">Check rate limits</text></g><!--link RateLimiter to APIGateway--><g id="link_RateLimiter_APIGateway"><path d="M832.86,136.4283 C801.64,156.7583 748.77,191.0183 703,219.9683 C675.46,237.3883 648.9388,253.8218 626.6788,267.5318 " fill="none" id="RateLimiter-to-APIGateway" style="stroke:#181818;stroke-width:1.0;"/><polygon fill="#181818" points="621.57,270.6783,631.3308,269.3644,625.8273,268.0562,627.1355,262.5527,621.57,270.6783" style="stroke:#181818;stroke-width:1.0;"/><text fill="#000000" font-family="sans-serif" font-size="13" lengthAdjust="spacing" textLength="74" x="751" y="209.0366">Allow/Deny</text></g><!--link APIGateway to System--><g id="link_APIGateway_System"><path d="M644.99,289.2183 C692.03,289.2183 754.97,289.2183 802.24,289.2183 " fill="none" id="APIGateway-to-System" style="stroke:#181818;stroke-width:1.0;"/><polygon fill="#181818" points="808.24,289.2183,799.24,285.2183,803.24,289.2183,799.24,293.2183,808.24,289.2183" style="stroke:#181818;stroke-width:1.0;"/><text fill="#000000" font-family="sans-serif" font-size="13" lengthAdjust="spacing" textLength="99" x="677" y="282.7866">Process request</text></g><!--link System to Database--><g id="link_System_Database"><path d="M861,307.8183 C861,333.0883 861,373.6383 861,401.1683 " fill="none" id="System-to-Database" style="stroke:#181818;stroke-width:1.0;"/><polygon fill="#181818" points="861,407.1683,865,398.1683,861,402.1683,857,398.1683,861,407.1683" style="stroke:#181818;stroke-width:1.0;"/><text fill="#000000" font-family="sans-serif" font-size="13" lengthAdjust="spacing" textLength="135" x="862" y="353.0266">Store/Fetch user data</text></g><!--reverse link SMSService to System--><g id="link_SMSService_System"><path d="M995.4213,140.0896 C977.1913,154.0096 954.72,169.1483 928,179.9683 C910.79,186.9483 900.52,175.2483 887,187.9683 C864.21,209.4083 860.39,248.0183 860.28,270.5483 " fill="none" id="SMSService-backto-System" style="stroke:#181818;stroke-width:1.0;"/><polygon fill="#181818" points="1000.19,136.4483,990.6093,138.7311,996.216,139.4827,995.4644,145.0894,1000.19,136.4483" style="stroke:#181818;stroke-width:1.0;"/><text fill="#000000" font-family="sans-serif" font-size="13" lengthAdjust="spacing" textLength="149" x="888" y="209.0366">Send confirmation code</text></g><!--link System to LoggingService--><g id="link_System_LoggingService"><path d="M913.94,289.2183 C945.09,289.2183 978.72,289.2183 1011.67,289.2183 " fill="none" id="System-to-LoggingService" style="stroke:#181818;stroke-width:1.0;"/><polygon fill="#181818" points="1017.67,289.2183,1008.67,285.2183,1012.67,289.2183,1008.67,293.2183,1017.67,289.2183" style="stroke:#181818;stroke-width:1.0;"/><text fill="#000000" font-family="sans-serif" font-size="13" lengthAdjust="spacing" textLength="68" x="931.75" y="282.7866">Log events</text></g><!--link SMSService to LoggingService--><g id="link_SMSService_LoggingService"><path d="M1028.2,136.2283 C1039.69,168.7083 1062.2078,232.3022 1073.7478,264.9022 " fill="none" id="SMSService-to-LoggingService" style="stroke:#181818;stroke-width:1.0;"/><polygon fill="#181818" points="1075.75,270.5583,1076.5174,260.7394,1074.0815,265.8449,1068.976,263.4089,1075.75,270.5583" style="stroke:#181818;stroke-width:1.0;"/><text fill="#000000" font-family="sans-serif" font-size="13" lengthAdjust="spacing" textLength="95" x="1058" y="209.0366">Log SMS status</text></g><!--SRC=[TL9DRzim3BthLn0vDK2S5CDEnX0WIzgXM8eLyJukkIWoumYpfOoIMmJ3_lie-IEnWVfYaNnyr7kKrxv4MBqymLPUa3275QcJzgXyJGWRBGkIbH342MaAnav-E2HuCXxfA1KsVHFuAu0_gRob1Z81wI0SOk6c_v4iDviSxdxXOR4wdwSHsgN5ly6q_chTY57jY_Ju9Y-HWkCs795yhfqsw1niRQ7LktmxReQjhbX-S_sGQECnTctPdkpYF5OHsXp7gEmvWmpfLIjiKCzP6uwHVBD2csA0RdDTnr3JHdevL99pvY1TMmkdoD85eJ_kBbdsPgUGrGVM1-UJDGYchWv8UxF3FpKw3yhck3S_aVJn4WFHBuz9hdQdi7l8liTdj9PbwVRc3kV5V0QBoBjmSSXKN3iWOO8RUrDOdr3z1WehA4FEYPjoXD_EMvMbVLjiq5p4W7NPBYA55x8gh9mQBQB9Gv8pfhE4vVDxnSKZUdM2EfWJJEonTU3hLyRee5nPSzHKIQ-jQKpfuClHnj8G0xwYOJLNdlU0uR4uBttjnDNdJqaoD1hTsHg7mUCFz_VmxUiCFlB_WSZI35Z8V2h-0m00]--></g></svg>